<?xml version="1.0" encoding="utf-8"?>
<!-- Generator: Adobe Illustrator 24.0.0, SVG Export Plug-In . SVG Version: 6.00 Build 0)  -->
<svg version="1.1" id="Layer_1" xmlns="http://www.w3.org/2000/svg" xmlns:xlink="http://www.w3.org/1999/xlink" x="0px" y="0px"
	 viewBox="0 0 1080 1080" style="enable-background:new 0 0 1080 1080;" xml:space="preserve">
<style type="text/css">
	.st0{fill:#010101;}
</style>
<g>
	<polygon class="st0" points="384.42,468.72 384.42,519.41 454.82,563.87 454.82,964.96 540,1018.39 625.18,964.96 625.18,563.87 
		695.58,519.41 695.58,468.72 540,468.72 	"/>
	<path class="st0" d="M829.32,181.45C752.04,104.17,649.29,61.61,540,61.61s-212.04,42.56-289.32,119.84
		c-77.28,77.28-119.84,180.03-119.84,289.32v78.08v212.92l187.52,117.62V626.72l-61.32-38.46v-117.5
		c0-156.02,126.93-282.96,282.96-282.96s282.96,126.93,282.96,282.96v117.5l-61.32,38.46v252.66l187.52-117.62V548.85v-78.08
		C949.15,361.47,906.59,258.73,829.32,181.45z"/>
</g>
</svg>
