<?xml version="1.0" encoding="utf-8"?>
<!-- Generator: Adobe Illustrator 22.1.0, SVG Export Plug-In . SVG Version: 6.00 Build 0)  -->
<svg version="1.1" id="_x2018_лой_x5F_1" xmlns="http://www.w3.org/2000/svg" xmlns:xlink="http://www.w3.org/1999/xlink"
	 x="0px" y="0px" viewBox="0 0 720.1 730.3" style="enable-background:new 0 0 720.1 730.3;" xml:space="preserve">
<style type="text/css">
	.st0{fill:#EBF3FA;}
	.st1{fill:#233862;}
	.st2{fill:#82B378;}
	.st3{fill:#A8D29F;}
	.st4{fill:#FFB27D;}
	.st5{fill:#E58638;}
	.st6{fill:#F99746;}
	.st7{fill:#152949;}
	.st8{fill:#ED975D;}
	.st9{fill:#8C9DF4;}
	.st10{fill:#707FE5;}
	.st11{fill:#BBD0FF;}
	.st12{fill:#AEC3FF;}
	.st13{fill:#D2E0FF;}
	.st14{fill:#C0D4FF;}
	.st15{fill:#86A2E2;}
	.st16{fill:#214C7F;}
	.st17{fill:#FCA56B;}
	.st18{fill:#163560;}
	.st19{fill:#FFFFFF;}
	.st20{fill:#6C7AFF;}
	.st21{fill:#2C3A64;}
	.st22{fill:#2B478B;}
	.st23{fill:#ED985F;}
	.st24{opacity:0.5;}
	.st25{fill:#798EE8;}
	.st26{fill:#849DEF;}
	.st27{fill:#505ABA;}
	.st28{fill:#5E6ECC;}
	.st29{fill:#3D4CA5;}
	.st30{fill:#ED7B2E;}
	.st31{fill:#739AF0;}
	.st32{fill:#1F3B72;}
	.st33{fill:#F77D48;}
	.st34{fill:#ED917E;}
	.st35{fill:#B3C2FF;}
	.st36{fill:#ED7D2B;}
	.st37{fill:#FF8939;}
	.st38{fill:#6B80DD;}
	.st39{fill:#A4B5FF;}
</style>
<g>
	<g>
		<g>
			<path class="st21" d="M510.4,48.2c0.1-1.4,1.1-16.1,23.5-16.9c0,0-11,1.3-12.9,6.2c0,0,7.5-6,13.6-4.1c6.1,1.9,9.7,12.6,9.7,16.2
				c0,3.5-3.4,14.9-7.2,15.9c-1.5,0.4-3.2,0.3-4.7,0c1,1.6,2,3.4,3,5.4c9,18.4-0.3,36.3-7.9,34.4c-4.9-1.3-6.2,7-6.2,7L474.2,74
				C474.2,74,491.5,38.1,510.4,48.2z"/>
		</g>
		<g>
			<path class="st4" d="M381.7,277.9c3.9,3.5,14.4-8.5,15.9-10.1c0.1-0.2,0.2-0.2,0.2-0.2l-3.2-8.9c0,0-13.7-0.5-16,1.7
				C376.3,262.8,377.4,274.2,381.7,277.9z"/>
		</g>
		<g>
			<path class="st22" d="M494,589.5l10,3.7c0,0,43.6-60.4,48.9-113.6c1-9.5-1-29.6-0.3-33.9c0.3-2,0.8-4.4,1.3-7.2
				c1.4-8.1,3.4-19.2,5.6-31.9c5.1-29.1,11.8-66.3,16.9-93.6l-2.7-0.9l-29.2-9.4l-6-19.2l-21.8-5.7c0,0-4.9,9.5-9.2,54.5
				c-0.8,5.9-1.5,12.4-2.1,19.4c-1.7,21.5-1.8,48.2,2.1,78.7c1,7.8,5.1,38.5,4.7,48C509.9,522,494,589.5,494,589.5z"/>
		</g>
		<g>
			<path class="st1" d="M505.4,351.8l47.3,94c0.3-2,0.8-4.4,1.3-7.2c1.4-8.1,3.4-19.2,5.6-31.9c5.1-29.1,11.8-66.3,16.9-93.6
				l-2.7-0.9l-29.2-9.4l-6-19.2l-21.8-5.7c0,0-4.9,9.5-9.2,54.5C506.7,338.2,506,344.7,505.4,351.8z"/>
		</g>
		<g>
			<path class="st22" d="M526.2,289.9l1.1-9.4c18.3,4.9,67.3-13.6,67.3-13.6s17.8,15.6,15.4,53c-1.1,18.3-3.2,95.9-5.4,118.9
				c-0.8,8.3,4.6,29.8,6.8,35.5c21.3,56.8-3.3,126.8-3.3,126.8l-6.4-2.6c0,0-40.4-146.4-44.6-161.9c-7.9-29.3-14.2-67.5-18.4-96.9
				C538.2,339.7,526.2,289.9,526.2,289.9z"/>
		</g>
		<g>
			<path class="st4" d="M512.3,181c31.5,1.7,24.6-45.3,22.7-45c-3.9-2-10.8-11.8-14.8-28.2l-1.4,0.6l-22.7,10.7
				c0,0,2.4,7.4,4.2,14.5c1.4,5.5,2.4,10.9,1.6,12.4c-1.8,0.7-2.9,1.2-2.9,1.2s0,0,0,0C498.7,147.8,503.9,180.6,512.3,181z"/>
		</g>
		<g>
			<path class="st23" d="M496.1,119.2c0,0,2.4,7.4,4.2,14.5c13.3-3.7,17.3-17.7,18.6-25.2L496.1,119.2z"/>
		</g>
		<g>
			<path class="st4" d="M493.3,127c0,0,31.8-7.4,26.9-27.1c-4.9-19.7-4.1-34-24.6-30.1C475.1,73.6,473,82.1,473,89.1
				C473.1,96.1,484.9,128.4,493.3,127z"/>
		</g>
		<g>
			<path class="st21" d="M471.3,77.9c3.4-7.2,7.4-6.8,10-5.5c14.9-13.8,29.6-2.5,29.6-2.5c5.6,13.6,17.9,19.2,17.9,19.2
				s-4.9,5-19.1,4.9c-4.3,0-8.7-2-12.6-4.8c7.6,7.7,16.6,12.4,16.6,12.4c-17.7-3.4-29.6-23.9-30.8-26.1c-1.5,2.2-4.4,6.9-4.6,10.9
				c-0.3,5.4,1.5,15.9-1.6,16.3C476.6,102.8,466.1,88.6,471.3,77.9z"/>
		</g>
		<g>
			<path class="st1" d="M571.1,606.4h50.5c0,0,1.2-7.7-1.4-13.5c-2.5-5.6-6.5-8.2-5.5-14.9c-3.2,3.3-8.4,7-15.7,6
				c-0.9,1.5-5.8,9.2-8.8,11.4C586.8,597.7,572.1,596.8,571.1,606.4z"/>
		</g>
		<g>
			<path class="st1" d="M462.6,606.4h50.5c0,0,1.9-8.1-1.4-13.5c-2.9-4.9-1.8-7.6,0.4-11.6c-2.3,0.9-5.2,1.8-8.5,1.6
				c-2.5-0.1-5.2-1.3-7.5-2.6c-2.2,2.5-11.5,13-14.4,15.1C478.3,597.7,463.6,596.8,462.6,606.4z"/>
		</g>
		<g>
			<path class="st9" d="M595.6,207.3c-2.7-8.8-5.5-17.3-8.4-25.1c-6.5-17.7-10.6-27-14.1-34.2c-6.6-13.6-36.3-12.8-36.3-12.8
				c-5.7,20.6-21.4,33.4-21.4,33.4c-8.4-4.9-14.6-22.2-14.6-22.2l-18.3,9.7l0,0l0,0c-0.1,0.1-5.7,3.4-10.6,17.6
				c-7.4,21.1-19.3,51.2-27.5,60.3c-1.9,2.1-7.6,5.4-14.4,8.8v0c-0.1,0.2-0.3,0.3-0.3,0.3c0.4,1,2.4,5.8,5.7,10.6
				c2.6,3.9,6,7.9,10.1,10c3.1-1.5,8.7-3.7,11.1-5.2c8.6-5.3,21.5-12.9,31.5-28.9l2.8,37.7l5.1,68.1c7.8,2.4,15.2,4.3,22.2,5.8
				c0.5-5.7,2.3-12.5,2.3-12.5c-0.1,3.6,4.1,10.4,6.6,14.2c64.7,10.4,95-17.9,95-17.9C619.5,300.1,608.6,249.6,595.6,207.3z"/>
		</g>
		<g>
			<path class="st10" d="M530.3,131.4c0,0,5.4,0.4,6.5,3.8c0,0-7,28.3-21.4,33.4L530.3,131.4z"/>
		</g>
		<g>
			<path class="st10" d="M515.4,168.6c0,0-13.7-24.8-13.7-28.1c0,0-5.2,4.6-4.9,8.1C496.9,148.6,508.4,167.1,515.4,168.6z"/>
		</g>
		<g>
			<path class="st10" d="M552.3,158.6c-0.4,1.3-28.4,68.4-53.6,93.1c-11,10.8,24.1,7.7,24.4,5.7
				C523.4,255.3,552.3,158.6,552.3,158.6z"/>
		</g>
		<g>
			<path class="st10" d="M491.7,269.6l2.4,37.8c76.7-17.8,70.3-140,70.3-140l-38.5,79.5L492,269C492,269,491.9,269.2,491.7,269.6z"
				/>
		</g>
		<g>
			<path class="st12" d="M429.5,243.2c0,0.1,0.1,0.1,0.1,0.1C429.6,243.2,429.5,243.2,429.5,243.2C429.5,243,429.5,243,429.5,243.2z
				"/>
		</g>
		<g>
			<g>
				<path class="st6" d="M467.4,191.1l15.3,68.1c2.4,10.8-5.8,19.6-18.3,19.6H97.6c-12.6,0-24.7-8.8-27.1-19.6l-15.3-68.1
					c-0.1-0.4-0.2-0.8-0.2-1.2c-1.6-10.3,6.5-18.4,18.6-18.4h366.7c12.1,0,23.8,8.1,26.8,18.4C467.2,190.3,467.3,190.7,467.4,191.1z
					"/>
			</g>
			<g>
				<g>
					<g>
						<g>
							<polygon class="st0" points="98.4,248.1 94.9,248.1 85.3,205.8 88.9,205.8 							"/>
						</g>
					</g>
					<g>
						<g>
							<polygon class="st0" points="123.2,223.3 97.5,223.3 94.8,211.3 120.5,211.3 							"/>
						</g>
					</g>
					<g>
						<g>
							<polygon class="st0" points="135.2,240.4 101.3,240.4 98.6,228.4 132.6,228.4 							"/>
						</g>
					</g>
				</g>
				<g>
					<g>
						<g>
							<polygon class="st0" points="180.9,248.1 177.3,248.1 167.8,205.8 171.4,205.8 							"/>
						</g>
					</g>
					<g>
						<g>
							<polygon class="st0" points="186.4,223.3 160.6,223.3 157.9,211.3 183.7,211.3 							"/>
						</g>
					</g>
					<g>
						<g>
							<polygon class="st0" points="194.3,240.4 160.4,240.4 157.7,228.4 191.6,228.4 							"/>
						</g>
					</g>
				</g>
				<g>
					<g>
						<g>
							<polygon class="st0" points="263.3,248.1 259.7,248.1 250.2,205.8 253.8,205.8 							"/>
						</g>
					</g>
					<g>
						<g>
							<polygon class="st0" points="249.5,223.3 223.8,223.3 221.1,211.3 246.9,211.3 							"/>
						</g>
					</g>
					<g>
						<g>
							<polygon class="st0" points="253.4,240.4 219.5,240.4 216.8,228.4 250.7,228.4 							"/>
						</g>
					</g>
				</g>
				<g>
					<g>
						<g>
							<polygon class="st0" points="316.1,209.2 273.7,209.2 272.9,205.6 315.3,205.6 							"/>
						</g>
					</g>
					<g>
						<g>
							<polygon class="st0" points="292,212.6 297.8,238.3 285.8,238.3 280,212.6 							"/>
						</g>
					</g>
					<g>
						<g>
							<polygon class="st0" points="309.2,212.6 316.8,246.5 304.8,246.5 297.2,212.6 							"/>
						</g>
					</g>
				</g>
				<g>
					<g>
						<g>
							<polygon class="st0" points="382.8,228.7 340.4,228.7 339.6,225.2 381.9,225.2 							"/>
						</g>
					</g>
					<g>
						<g>
							<polygon class="st0" points="354.6,214.1 360.4,239.8 348.4,239.8 342.6,214.1 							"/>
						</g>
					</g>
					<g>
						<g>
							<polygon class="st0" points="370.9,210 378.5,243.9 366.5,243.9 358.9,210 							"/>
						</g>
					</g>
				</g>
				<g>
					<g>
						<g>
							<polygon class="st0" points="449.5,248.5 407.1,248.5 406.3,244.9 448.6,244.9 							"/>
						</g>
					</g>
					<g>
						<g>
							<polygon class="st0" points="417.5,215.4 423.2,241.2 411.3,241.2 405.5,215.4 							"/>
						</g>
					</g>
					<g>
						<g>
							<polygon class="st0" points="432.8,207.2 440.4,241.2 428.4,241.2 420.8,207.2 							"/>
						</g>
					</g>
				</g>
			</g>
		</g>
		<g>
			<g>
				<path class="st4" d="M430.6,272.7c4.2,0,10.8-0.3,14.6-1.8c0,0-12.2-0.2-9.6-4c0.5-0.7,6.5-0.2,13.3-0.2c2.8,0,9.6,3.8,9.3,4
					c4.9-0.6,9.4-1.6,10.8-1.9c0.4-0.1,0.5-0.2,0.5-0.2l4.3,12.6c0,0-0.9,0.2-2.5,0.5c-4,1-12.3,3.1-20.1,6.1
					c-10.9,4.3-19-1.1-22.6-4.9c-2.3-2.4-4.1-5.6-4-7.9C424.7,272.6,428.1,272.7,430.6,272.7z"/>
			</g>
			<g>
				<path class="st4" d="M460,273.7l2.7,9.7c0,0,3.3-0.6,8.7-1.6c1.6-0.3,2.5-0.5,2.5-0.5c4.3-0.8,9.3-2,14.9-3.2h0.1
					c9.5-2.3,20.1-5,29.1-8c0.8-0.3,1.6-0.6,2.4-0.8c5.3-2-4.9-28.8-9.6-25.5c-1.2,0.9-2.5,1.8-3.9,2.8c-7.7,5.2-17.5,11-26.1,15.9
					c-4.3,2.4-8.3,4.6-11.6,6.5C463.6,271.8,460,273.7,460,273.7z"/>
			</g>
			<g>
				<path class="st9" d="M506.7,246.5c0,0-0.6,18.4,16.6,27.3c19.9-7.2,30.5-36.8,38.7-57.1c1.1-2.8,2.2-5.6,3.3-8.3
					c3.8-10.2,6.8-20.2,8.7-28.8c1.1-5.2-20.9-31.2-23.8-25c-4.3,9.8-8.9,22.5-13.1,35.1c-2.4,6.9-4.6,13.8-6.9,20.2
					c-1.3,3.9-2.6,7.5-3.8,10.9c-2.4,6.4-4.5,11.5-6.4,14.8c-1.2,2.1-4.7,5.1-9.3,8.4C509.4,244.6,508.1,245.5,506.7,246.5z"/>
			</g>
		</g>
	</g>
	<g>
		<rect x="398.7" y="606.4" class="st12" width="266.5" height="92.6"/>
	</g>
</g>
</svg>
