<?xml version="1.0" encoding="utf-8"?>
<!-- Generator: Adobe Illustrator 22.1.0, SVG Export Plug-In . SVG Version: 6.00 Build 0)  -->
<svg version="1.1" id="_x2018_лой_x5F_1" xmlns="http://www.w3.org/2000/svg" xmlns:xlink="http://www.w3.org/1999/xlink"
	 x="0px" y="0px" viewBox="0 0 3000 2000" style="enable-background:new 0 0 3000 2000;" xml:space="preserve">
<style type="text/css">
	.st0{fill:#EBF3FA;}
	.st1{fill:#233862;}
	.st2{fill:#82B378;}
	.st3{fill:#A8D29F;}
	.st4{fill:#FFB27D;}
	.st5{fill:#E58638;}
	.st6{fill:#F99746;}
	.st7{fill:#152949;}
	.st8{fill:#ED975D;}
	.st9{fill:#8C9DF4;}
	.st10{fill:#707FE5;}
	.st11{fill:#BBD0FF;}
	.st12{fill:#AEC3FF;}
	.st13{fill:#D2E0FF;}
	.st14{fill:#C0D4FF;}
	.st15{fill:#86A2E2;}
	.st16{fill:#214C7F;}
	.st17{fill:#FCA56B;}
	.st18{fill:#163560;}
	.st19{fill:#FFFFFF;}
	.st20{fill:#6C7AFF;}
	.st21{fill:#2C3A64;}
	.st22{fill:#2B478B;}
	.st23{fill:#ED985F;}
	.st24{opacity:0.5;}
	.st25{fill:#798EE8;}
	.st26{fill:#849DEF;}
	.st27{fill:#505ABA;}
	.st28{fill:#5E6ECC;}
	.st29{fill:#3D4CA5;}
	.st30{fill:#ED7B2E;}
	.st31{fill:#739AF0;}
	.st32{fill:#1F3B72;}
	.st33{fill:#F77D48;}
	.st34{fill:#ED917E;}
	.st35{fill:#B3C2FF;}
	.st36{fill:#ED7D2B;}
	.st37{fill:#FF8939;}
	.st38{fill:#6B80DD;}
	.st39{fill:#A4B5FF;}
</style>
<g>
	<path class="st0" d="M2720.4,1838.8c-154.1,0-2398.5,0.6-2399.8-3.5l-0.2-0.5c0,0-0.2-0.5-0.2-0.7c-0.9-2-345.8-566.3,190.5-959.1
		c209.8-153.7-13.1-255.2,153.7-426.3c191.8-196.6,401,20.9,614.3-68.3c37.7-15.7,75.5-41.1,113.3-79.9
		c87.8-90.1,208.2-131.7,332.5-141.1c238.3-17.8,506.4,82.4,644.8,228.7c27.9,29.5,154.5,182,54.7,391.7
		c-63,132.4,201.1,258.8,294.9,409.9C2957.4,1574.1,2722.5,1833.7,2720.4,1838.8z"/>
</g>
<g>
	<path class="st1" d="M2843.8,1842.6H156.2c-1.8,0-3.2-1.4-3.2-3.2v-1.4c0-1.8,1.4-3.2,3.2-3.2h2687.7c1.8,0,3.2,1.4,3.2,3.2v1.4
		C2847,1841.2,2845.6,1842.6,2843.8,1842.6z"/>
</g>
</svg>
