<?xml version="1.0" encoding="utf-8"?>
<!-- Generator: Adobe Illustrator 22.1.0, SVG Export Plug-In . SVG Version: 6.00 Build 0)  -->
<svg version="1.1" id="_x2018_лой_x5F_1" xmlns="http://www.w3.org/2000/svg" xmlns:xlink="http://www.w3.org/1999/xlink"
	 x="0px" y="0px" viewBox="0 0 2680.6 2000" style="enable-background:new 0 0 2680.6 2000;" xml:space="preserve">
<style type="text/css">
	.st0{fill:#EBF3FA;}
	.st1{fill:#233862;}
	.st2{fill:#82B378;}
	.st3{fill:#A8D29F;}
	.st4{fill:#FFB27D;}
	.st5{fill:#E58638;}
	.st6{fill:#F99746;}
	.st7{fill:#152949;}
	.st8{fill:#ED975D;}
	.st9{fill:#8C9DF4;}
	.st10{fill:#707FE5;}
	.st11{fill:#BBD0FF;}
	.st12{fill:#AEC3FF;}
	.st13{fill:#D2E0FF;}
	.st14{fill:#C0D4FF;}
	.st15{fill:#86A2E2;}
	.st16{fill:#214C7F;}
	.st17{fill:#FCA56B;}
	.st18{fill:#163560;}
	.st19{fill:#FFFFFF;}
	.st20{fill:#6C7AFF;}
	.st21{fill:#2C3A64;}
	.st22{fill:#2B478B;}
	.st23{fill:#ED985F;}
	.st24{opacity:0.5;}
	.st25{fill:#798EE8;}
	.st26{fill:#849DEF;}
	.st27{fill:#505ABA;}
	.st28{fill:#5E6ECC;}
	.st29{fill:#3D4CA5;}
	.st30{fill:#ED7B2E;}
	.st31{fill:#739AF0;}
	.st32{fill:#1F3B72;}
	.st33{fill:#F77D48;}
	.st34{fill:#ED917E;}
	.st35{fill:#B3C2FF;}
	.st36{fill:#ED7D2B;}
	.st37{fill:#FF8939;}
	.st38{fill:#6B80DD;}
	.st39{fill:#A4B5FF;}
</style>
<g>
	<g class="st24">
		<g class="st24">
			<path class="st12" d="M655.4,411.8c0,0-25.3-211.7-133.8-338c-14.4-16.8-42-6.1-41.5,16c0,0.4,0,0.7,0,1.1
				C481.6,128.7,603,288,655.4,411.8z"/>
		</g>
		<g class="st24">
			<path class="st12" d="M668.6,472.4c0,0-108.1-264.6-292.7-381.6c-11.3-7.1-26.5-4.5-34.1,6.4c-4.9,7.2-7.1,18.3-1.6,35.8
				C354.9,179.5,560.8,336.2,668.6,472.4z"/>
		</g>
	</g>
	<g>
		<path class="st25" d="M1324.5,878.9l-83.7,995c0,0-8.8,60.3,36.1,60.4c73.8,0.2,367.2,0,367.2,0s-55.5-12.6-54.8-40.8
			c0.8-33.3,97.8-1024.1,97.8-1024.1L1324.5,878.9z"/>
	</g>
	<g>
		<path class="st12" d="M1671.7,1916.3c-14.5,0-298.6,0.5-370.4-0.4c-31.3-0.4-36.8-27.8-37.1-45.6c-0.1-8.5,1-14.8,1-14.8l2.2-25.9
			l5.5-65.9l4.9-58.2l6.3-74.8l5.3-63.2l59.5-707l362.5-9.4c0,0-40.9,414.6-69.8,716.5c-3.2,33.6-6.3,65.9-9.1,96
			c-0.9,9.6-1.8,19-2.7,28.2c-2.7,28.6-5.1,54.8-7.3,77.9c-1.1,12.2-2.2,23.5-3.1,33.9c-3.7,40.7-5.9,66.7-5.9,71.6
			c0,2.9,0.2,5.6,0.7,8.1C1620.2,1914.9,1666.2,1916.3,1671.7,1916.3z"/>
	</g>
	<g>
		<polygon class="st12" points="444,337 647.8,1155.8 675.7,1268 770.7,1649.3 2534.5,1649.3 2184.6,337 		"/>
	</g>
	<g>
		<polygon class="st25" points="444,337 415.7,346.5 733.1,1677.8 770.7,1649.3 		"/>
	</g>
	<g>
		<polygon class="st26" points="733.1,1677.8 2486.1,1677.8 2534.5,1649.3 770.7,1649.3 		"/>
	</g>
	<g>
		
			<rect x="1348.7" y="1916.3" transform="matrix(-1 -1.224647e-16 1.224647e-16 -1 3076.9907 3850.6489)" class="st12" width="379.5" height="18"/>
	</g>
	<g>
		<polygon class="st9" points="1631.8,1677.8 1629.8,1691.6 1272.9,1763.7 1277.8,1705.5 1280.1,1677.8 		"/>
	</g>
	<g class="st24">
		<path class="st9" d="M1671.7,1916.3c-14.5,0-298.6,0.5-370.4-0.4c-31.3-0.4-36.8-27.8-37.1-45.6l355.3-66.8
			c-3.7,40.7-5.9,66.7-5.9,71.6c0,2.9,0.2,5.6,0.7,8.1C1620.2,1914.9,1666.2,1916.3,1671.7,1916.3z"/>
	</g>
	<g>
		<polygon class="st9" points="444,337 2184.6,337 2467,1391.7 706.6,1391.7 		"/>
	</g>
	<g>
		<polygon class="st27" points="2384.9,1346 755.2,1346 696.9,1114 674.4,1024.2 665.2,987.6 605.4,749.2 602.3,736.8 570.6,610.8 
			556.5,554.4 544.4,506.3 534.5,467.1 516.1,393.5 2122.3,393.5 2142.6,467.1 2153.4,506.3 2166.7,554.4 2182.2,610.8 
			2284.6,982.3 2284.6,982.3 2293.3,1013.8 2297.3,1028.4 2368,1284.8 		"/>
	</g>
	<g>
		<polygon class="st28" points="1739,1304 900.5,1304 854.4,1078.2 836.6,1007.2 829.3,978.2 781.9,789.6 779.5,779.8 754.5,680.1 
			743.3,635.5 733.7,597.4 725.9,566.4 711.3,508.2 1531.8,508.2 		"/>
	</g>
	<g>
		<polygon class="st9" points="1367.9,1391.7 771.3,1652.4 706.6,1391.7 		"/>
	</g>
	<g>
		<polygon class="st29" points="2142.6,467.1 534.5,467.1 516.1,393.5 2122.3,393.5 		"/>
	</g>
	<g>
		<g>
			<path class="st0" d="M616,431c2.1,6.6-2.1,12-9.3,12c-7.2,0-14.8-5.3-16.9-11.8c-2.1-6.6,2.1-12,9.3-12
				C606.4,419.1,613.9,424.4,616,431z"/>
		</g>
		<g>
			<path class="st0" d="M670.2,430.6c2.1,6.6-2.1,12-9.3,12c-7.2,0.1-14.8-5.3-16.9-11.8c-2.1-6.6,2.1-12,9.3-12
				C660.6,418.7,668.2,424,670.2,430.6z"/>
		</g>
		<g>
			<path class="st0" d="M724.5,430.2c2.1,6.6-2.1,12-9.3,12c-7.2,0.1-14.8-5.3-16.9-11.8c-2.1-6.6,2.1-12,9.3-12
				C714.8,418.3,722.4,423.6,724.5,430.2z"/>
		</g>
	</g>
	<g>
		<path class="st6" d="M743.3,635.5c0,0,189.3,0.7,326.5,105.9c137.3,105.2,117.5,199.6,231.4,223.3
			c186.6,38.8,70.8-160.4,313.1-139.7l124.7,479H900.5l-63.9-296.8L743.3,635.5z"/>
	</g>
	<g>
		<path class="st19" d="M1344.4,971.5c-12.8,0-27.3-1.7-43.6-5.1c-62.9-13.1-86-48.3-115.4-93c-24.3-37-54.6-83-116.7-130.7
			c-39-29.9-107.8-70.1-214-92.1c-63.6-13.1-111-13.5-111.5-13.5l0-3.5c0.5,0,48.2,0.3,112.1,13.5c59,12.2,144.3,38.2,215.4,92.8
			c62.6,48,93,94.3,117.5,131.5c30,45.7,51.7,78.7,113.2,91.5c87.5,18.2,107.3-16.2,130.2-56c25.5-44.4,54.5-94.7,182.7-83.7
			l-0.3,3.4c-126-10.8-154.4,38.5-179.4,82c-11.6,20.1-22.6,39.2-42,50.9C1379.7,967.6,1363.9,971.5,1344.4,971.5z"/>
	</g>
	<g>
		<path class="st30" d="M787.5,810.5l48.1,191.7l64.9,301.8H1739l-42.3-156.7c0,0-124.1-69.2-292.5-8.9
			c-168.3,60.3-354.7,4.6-366.7-131C1024,854.5,883.5,780.8,787.5,810.5z"/>
	</g>
	<g>
		<path class="st19" d="M999.3,901.2c-48.2-74.5-137.1-112-211.3-89.1l-1-3.3c75.7-23.4,166.2,14.7,215.3,90.5L999.3,901.2z"/>
	</g>
	<g>
		<g>
			
				<rect x="1285.7" y="951.1" transform="matrix(0.9947 0.1028 -0.1028 0.9947 106.0247 -128.4228)" class="st19" width="27.4" height="27.4"/>
		</g>
		<g>
			
				<rect x="1313.4" y="733.4" transform="matrix(0.2033 -0.9791 0.9791 0.2033 100.5155 2059.2197)" class="st19" width="4.5" height="468.9"/>
		</g>
		<g>
			<path class="st19" d="M1078.3,919.4c0.4-4.3,4.3-7.5,8.6-7c4.3,0.4,7.5,4.3,7,8.6c-0.4,4.3-4.3,7.5-8.6,7
				C1081,927.5,1077.9,923.7,1078.3,919.4z"/>
		</g>
		<g>
			<path class="st19" d="M1537.4,1014.7c0.4-4.3,4.3-7.5,8.6-7c4.3,0.4,7.5,4.3,7,8.6c-0.4,4.3-4.3,7.5-8.6,7
				C1540.1,1022.9,1536.9,1019,1537.4,1014.7z"/>
		</g>
	</g>
	<g>
		<g>
			
				<rect x="963.2" y="671.1" transform="matrix(0.7276 0.686 -0.686 0.7276 735.8297 -483.621)" class="st19" width="27.4" height="27.4"/>
		</g>
		<g>
			
				<rect x="971.7" y="571.3" transform="matrix(0.7057 -0.7085 0.7085 0.7057 -195.9639 890.4461)" class="st19" width="4.5" height="219.7"/>
		</g>
		<g>
			<path class="st19" d="M890,598.6c2.7-3.4,7.7-3.9,11.1-1.2c3.4,2.7,3.9,7.7,1.2,11.1c-2.7,3.4-7.7,3.9-11.1,1.2
				C887.8,607,887.3,602,890,598.6z"/>
		</g>
		<g>
			<path class="st19" d="M1045.7,753.7c2.7-3.4,7.7-3.9,11.1-1.2c3.4,2.7,3.9,7.7,1.2,11.1c-2.7,3.4-7.7,3.9-11.1,1.2
				C1043.4,762,1042.9,757.1,1045.7,753.7z"/>
		</g>
	</g>
	<g>
		<g>
			
				<rect x="1488.2" y="823.8" transform="matrix(0.3908 -0.9205 0.9205 0.3908 144.0308 1892.6776)" class="st19" width="27.4" height="27.4"/>
		</g>
		<g>
			
				<rect x="1432.3" y="834.9" transform="matrix(0.4162 -0.9093 0.9093 0.4162 115.7883 1854.7849)" class="st19" width="140.1" height="4.5"/>
		</g>
		<g>
			<path class="st19" d="M1470.7,908.4c-4.1-1.4-6.3-5.9-4.9-10c1.4-4.1,5.9-6.3,10-4.9c4.1,1.4,6.3,5.9,4.9,10
				C1479.3,907.6,1474.8,909.8,1470.7,908.4z"/>
		</g>
		<g>
			<path class="st19" d="M1529,780.9c-4.1-1.4-6.3-5.9-4.9-10c1.4-4.1,5.9-6.3,10-4.9c4.1,1.4,6.3,5.9,4.9,10
				C1537.6,780.1,1533.1,782.3,1529,780.9z"/>
		</g>
	</g>
	<g>
		<g>
			<path class="st13" d="M1642.8,552.4l42.6,176.1c1.8,7.5-5.3,13.6-15.9,13.6h-438.4c-10.6,0-20.7-6.1-22.5-13.6L1166,552.4
				c-1.8-7.5,5.3-13.6,15.9-13.6h438.4C1630.9,538.8,1641,544.9,1642.8,552.4z"/>
		</g>
		<g>
			<g>
				<g>
					<polygon class="st22" points="1277.2,655.5 1230.5,655.5 1219.2,608.8 1265.9,608.8 					"/>
				</g>
				<g>
					<polygon class="st22" points="1306.1,678.8 1259.5,678.8 1248.2,632.1 1294.8,632.1 					"/>
				</g>
			</g>
			<g>
				<g>
					<polygon class="st22" points="1386.1,655.5 1339.4,655.5 1328.1,608.8 1374.8,608.8 					"/>
				</g>
				<g>
					<g>
						<polygon class="st31" points="1415.1,678.8 1368.4,678.8 1357.1,632.1 1403.8,632.1 						"/>
					</g>
					<g>
						<path class="st32" d="M1417.5,680.8h-50.6l-12.3-50.6h50.6L1417.5,680.8z M1369.9,676.8h42.7l-10.3-42.7h-42.7L1369.9,676.8z"
							/>
					</g>
				</g>
			</g>
			<g>
				<g>
					<polygon class="st31" points="1495,655.5 1448.4,655.5 1437.1,608.8 1483.7,608.8 					"/>
				</g>
				<g>
					<path class="st22" d="M1497.5,657.4h-50.6l-12.3-50.6h50.6L1497.5,657.4z M1449.9,653.5h42.7l-10.3-42.7h-42.7L1449.9,653.5z"
						/>
				</g>
				<g>
					<polygon class="st31" points="1524,678.8 1477.3,678.8 1466,632.1 1512.7,632.1 					"/>
				</g>
				<g>
					<path class="st22" d="M1526.5,680.8h-50.6l-12.3-50.6h50.6L1526.5,680.8z M1478.8,676.8h42.7l-10.3-42.7h-42.7L1478.8,676.8z"
						/>
				</g>
				<g>
					<g>
						<polygon class="st22" points="1497.5,657.3 1470,657.3 1463.4,630.1 1490.9,630.1 						"/>
					</g>
				</g>
			</g>
			<g>
				<g>
					<g>
						<polygon class="st22" points="1603.9,655.5 1557.3,655.5 1546,608.8 1592.6,608.8 						"/>
					</g>
				</g>
				<g>
					<g>
						<polygon class="st22" points="1632.9,678.8 1586.2,678.8 1575,632.1 1621.6,632.1 						"/>
					</g>
				</g>
				<g>
					<g>
						<polygon class="st31" points="1602.6,654.3 1581.2,654.3 1576.1,633.1 1597.5,633.1 						"/>
					</g>
				</g>
			</g>
		</g>
	</g>
	<g>
		<g>
			<path class="st29" d="M429.9,1108.6H268.4c-21.5,0-42.9-17.5-47.6-39L99.2,520.8c-4.8-21.5,8.8-39,30.4-39h161.6
				c21.5,0,42.9,17.5,47.6,39l121.6,548.8C465.1,1091.2,451.5,1108.6,429.9,1108.6z"/>
		</g>
		<g>
			<g>
				<rect x="118" y="605.2" class="st12" width="239.6" height="1"/>
			</g>
		</g>
		<g>
			<g>
				<rect x="146.6" y="734.5" class="st12" width="239.6" height="1"/>
			</g>
		</g>
		<g>
			<g>
				<rect x="175.3" y="863.8" class="st12" width="239.6" height="1"/>
			</g>
		</g>
		<g>
			<path class="st19" d="M264.6,567.1c0.3-2.8-12.1-50.4-12.1-50.4l43.9,35.6l-21.6-0.8L264.6,567.1z"/>
		</g>
		<g>
			<g>
				<g>
					<path class="st13" d="M396.9,1052.4h-85.1l-18.8-85h85.1L396.9,1052.4z M315.6,1047.7H391l-16.7-75.5h-75.4L315.6,1047.7z"/>
				</g>
			</g>
		</g>
		<g>
			<polygon class="st33" points="335.8,1004.1 255.5,1004.1 237.8,923.8 318,923.8 			"/>
		</g>
		<g>
			<g>
				
					<rect x="294.1" y="1006.5" transform="matrix(0.6143 -0.7891 0.7891 0.6143 -663.8448 661.688)" class="st33" width="101.7" height="6.9"/>
			</g>
		</g>
		<g>
			<g>
				<path class="st13" d="M156.5,567.1c0.3-2.8-12.1-50.4-12.1-50.4l43.9,35.6l-21.6-0.8L156.5,567.1z"/>
			</g>
			<g>
				<g>
					<g>
						<polygon class="st13" points="173.5,661.4 167.1,661.4 164.5,649.8 208.4,649.8 210.9,660.9 204.4,660.9 203.4,656.3 
							172.4,656.3 						"/>
					</g>
				</g>
				<g>
					<g>
						<polygon class="st13" points="198.5,689.5 192,689.5 183.9,653 190.4,653 						"/>
					</g>
				</g>
				<g>
					<g>
						<polygon class="st13" points="204.3,691.8 187.2,691.8 185.8,685.4 202.9,685.4 						"/>
					</g>
				</g>
			</g>
			<g>
				<g>
					<polygon class="st13" points="291.8,695.9 286,691.7 316.8,643.2 322.7,647.4 					"/>
				</g>
			</g>
			<g>
				<g>
					<g>
						<path class="st13" d="M217.8,808.9c-12.3,0-24.6-10-27.3-22.4c-2.7-12.3,5.1-22.4,17.4-22.4c12.3,0,24.6,10,27.3,22.4
							C237.9,798.9,230.1,808.9,217.8,808.9z M209.1,770.1c-9.1,0-14.8,7.4-12.8,16.5c2,9.1,11,16.5,20.1,16.5
							c9.1,0,14.8-7.4,12.8-16.5C227.3,777.4,218.2,770.1,209.1,770.1z"/>
					</g>
				</g>
				<g>
					<g>
						<path class="st13" d="M260.3,828.3c-0.8,0-1.6-0.3-2.3-0.9l-29.8-25.1c-1.4-1.2-1.8-3-0.9-4.2c0.9-1.1,2.8-1.1,4.2,0.1
							l29.8,25.1c1.4,1.2,1.8,3,0.9,4.2C261.8,828.1,261.1,828.3,260.3,828.3z"/>
					</g>
				</g>
			</g>
			<g>
				<polygon class="st13" points="324.8,762.1 335.9,782.4 357.2,782.4 342.8,794.9 353.8,815.2 333.8,802.6 319.3,815.2 
					321.4,794.9 301.4,782.4 322.7,782.4 				"/>
			</g>
		</g>
	</g>
	<g>
		<g>
			<path class="st34" d="M2384.4,584.6c0,0,0.6,32-4.2,31.4c-4.8-0.6-11.3-26.8-11.4-26.4c-0.1,0.4,2.2,27.6-3.9,28.9
				c-6,1.4-12.1-28.8-12.1-28.8s4,25.8-0.2,26.5c-4.2,0.7-10.9-24.4-12.7-24.4c-1.7-0.1,5.6,21.5,0.5,22.6
				c-5.2,1.1-16.7-29.2-12.8-33.1c3.9-3.9,10,0.3,10,0.3s7.5-5.6,13.3-2.4c0,0,13.5-2.7,17.6,3.3
				C2368.5,582.4,2376.9,575.1,2384.4,584.6z"/>
		</g>
		<g>
			<g>
				<path class="st13" d="M2471.6,462.1l109.6,395.3c4.7,16.9-6,30.6-23.9,30.6h-740c-17.9,0-36.2-13.7-40.9-30.6l-109.6-395.3
					c-4.7-16.9,6-30.6,23.9-30.6h740C2448.6,431.5,2466.9,445.2,2471.6,462.1z"/>
			</g>
			<g>
				<g>
					<polygon class="st35" points="1896.1,640.5 1800.6,640.5 1774,544.9 1869.6,544.9 					"/>
				</g>
				<g>
					<polygon class="st27" points="1866.2,617.1 1817.5,617.1 1803.9,568.3 1852.7,568.3 					"/>
				</g>
				<g>
					
						<rect x="1776.1" y="589" transform="matrix(0.5856 -0.8106 0.8106 0.5856 279.9489 1733.0509)" class="st33" width="117.9" height="7.5"/>
				</g>
				<g>
					<polygon class="st33" points="1828.1,588.7 1732.5,588.7 1706,493.1 1801.6,493.1 					"/>
				</g>
			</g>
			<g>
				<g>
					<polygon class="st33" points="1882.4,753.3 1805.6,753.3 1784.3,676.4 1861.1,676.4 					"/>
				</g>
				<g>
					<polygon class="st36" points="1958.5,753.3 1881.7,753.3 1860.4,676.4 1937.2,676.4 					"/>
				</g>
				<g>
					<polygon class="st37" points="2035.3,753.3 1958.5,753.3 1937.2,676.4 2014,676.4 					"/>
				</g>
				<g>
					<polygon class="st31" points="2112.2,753.3 2035.3,753.3 2014,676.4 2090.9,676.4 					"/>
				</g>
				<g>
					<polygon class="st9" points="2189,753.3 2112.2,753.3 2090.9,676.4 2167.7,676.4 					"/>
				</g>
				<g>
					<polygon class="st38" points="2265.8,753.3 2189,753.3 2167.7,676.4 2244.5,676.4 					"/>
				</g>
				<g>
					<polygon class="st27" points="2342.7,753.3 2265.8,753.3 2244.5,676.4 2321.3,676.4 					"/>
				</g>
				<g>
					<polygon class="st22" points="2419.5,753.3 2342.7,753.3 2321.3,676.4 2398.2,676.4 					"/>
				</g>
				<g>
					<polygon class="st39" points="1903.7,830.1 1826.9,830.1 1805.6,753.3 1882.4,753.3 					"/>
				</g>
				<g>
					<polygon class="st9" points="1979.8,830.1 1903,830.1 1881.7,753.3 1958.5,753.3 					"/>
				</g>
				<g>
					<polygon class="st27" points="2056.6,830.1 1979.8,830.1 1958.5,753.3 2035.3,753.3 					"/>
				</g>
				<g>
					<polygon class="st22" points="2133.5,830.1 2056.6,830.1 2035.3,753.3 2112.2,753.3 					"/>
				</g>
			</g>
			<g>
				<path class="st37" d="M2423.3,526.1h-402.5c-5.5,0-11.3-4.5-12.8-10.1l0,0c-1.5-5.5,1.7-10.1,7.3-10.1h402.5
					c5.5,0,11.3,4.5,12.8,10.1l0,0C2432.1,521.6,2428.8,526.1,2423.3,526.1z"/>
			</g>
			<g>
				<path class="st31" d="M2437.3,576.9h-402.5c-5.5,0-11.3-4.5-12.8-10.1l0,0c-1.5-5.5,1.7-10.1,7.3-10.1h402.5
					c5.5,0,11.3,4.5,12.8,10.1l0,0C2446.1,572.3,2442.9,576.9,2437.3,576.9z"/>
			</g>
			<g>
				<path class="st27" d="M2451.4,627.6H2049c-5.5,0-11.3-4.5-12.8-10.1l0,0c-1.5-5.5,1.7-10.1,7.3-10.1h402.5
					c5.5,0,11.3,4.5,12.8,10.1l0,0C2460.2,623.1,2457,627.6,2451.4,627.6z"/>
			</g>
			<g>
				<g>
					<path class="st27" d="M1952.4,501.2h12.1c6.4,0,11,3.4,12.5,8.7c1.2,4.5-0.7,7.1-4.2,8.2l10.2,10.3h-5.6l-9.4-9.5h-5.9l2.6,9.5
						h-4.8L1952.4,501.2z M1967.9,514.7c3.4,0,5.1-1.8,4.3-4.6c-0.8-2.9-3.3-4.5-6.9-4.5h-7l2.5,9.1H1967.9z"/>
				</g>
				<g>
					<path class="st27" d="M1966.4,566.2c-2.1-7.6,1.9-14.1,10.1-14.1c4.7,0,8,1.3,11.5,3.7l-2,3.6c-2.6-1.8-5-2.9-8.4-2.9
						c-5,0-7.6,4.4-6.1,9.7c1.6,5.6,6.4,9.7,11.9,9.7c2.6,0,4.7-0.8,6-2.1l-1.4-5.1h-7l-1.2-4.2h11.6l3.2,11.4
						c-2,2.3-5.4,4.2-10.2,4.2C1975.8,580.2,1968.6,574.2,1966.4,566.2z"/>
				</g>
				<g>
					<path class="st27" d="M1981.5,606.4h12.2c3.1,0,5.8,0.9,7.8,2.4c1.5,1.2,2.6,2.7,3.1,4.6c0.9,3.3-0.5,5-2.2,6.1
						c3.5,1.1,6.2,2.9,7.3,6.7c1.3,4.9-1.9,7.5-8,7.5h-12.6L1981.5,606.4z M1995.9,617.9c3.1,0,4.8-1.2,4.1-3.8
						c-0.6-2.1-2.7-3.5-5.7-3.5h-6.9l2,7.2H1995.9z M2000.5,629.4c3.3,0,4.9-1.3,4.2-3.8c-0.6-2.3-2.8-3.7-6.6-3.7h-7.6l2.1,7.5
						H2000.5z"/>
				</g>
			</g>
		</g>
	</g>
	<g>
		
			<rect x="990.9" y="897.4" transform="matrix(0.7544 0.6564 -0.6564 0.7544 841.3777 -434.0862)" class="st19" width="19.8" height="19.8"/>
	</g>
</g>
</svg>
