<?xml version="1.0" encoding="utf-8"?>
<!-- Generator: Adobe Illustrator 22.1.0, SVG Export Plug-In . SVG Version: 6.00 Build 0)  -->
<svg version="1.1" id="_x2018_лой_x5F_1" xmlns="http://www.w3.org/2000/svg" xmlns:xlink="http://www.w3.org/1999/xlink"
	 x="0px" y="0px" viewBox="0 0 3000 2000" style="enable-background:new 0 0 3000 2000;" xml:space="preserve">
<style type="text/css">
	.st0{fill:#EBF3FA;}
	.st1{fill:#233862;}
	.st2{fill:#BBD0FF;}
	.st3{fill:#AEC3FF;}
	.st4{fill:#D2E0FF;}
	.st5{fill:#C0D4FF;}
	.st6{fill:#86A2E2;}
	.st7{opacity:0.5;}
	.st8{fill:#798EE8;}
	.st9{fill:#849DEF;}
	.st10{fill:#8C9DF4;}
	.st11{fill:#505ABA;}
	.st12{fill:#5E6ECC;}
	.st13{fill:#3D4CA5;}
	.st14{fill:#F99746;}
	.st15{fill:#FFFFFF;}
	.st16{fill:#ED7B2E;}
	.st17{fill:#2B478B;}
	.st18{fill:#739AF0;}
	.st19{fill:#1F3B72;}
	.st20{fill:#F77D48;}
	.st21{fill:#ED917E;}
	.st22{fill:#B3C2FF;}
	.st23{fill:#ED7D2B;}
	.st24{fill:#FF8939;}
	.st25{fill:#6B80DD;}
	.st26{fill:#A4B5FF;}
</style>
<g>
	<path class="st0" d="M2720.4,1838.8c-154.1,0-2398.5,0.6-2399.8-3.5l-0.2-0.5c0,0-0.2-0.5-0.2-0.7c-0.9-2-345.8-566.3,190.5-959.1
		c209.8-153.7-13.1-255.2,153.7-426.3c191.8-196.6,401,20.9,614.3-68.3c37.7-15.7,75.5-41.1,113.3-79.9
		c87.8-90.1,208.2-131.7,332.5-141.1c238.3-17.8,506.4,82.4,644.8,228.7c27.9,29.5,154.5,182,54.7,391.7
		c-63,132.4,201.1,258.8,294.9,409.9C2957.4,1574.1,2722.5,1833.7,2720.4,1838.8z"/>
</g>
<g>
	<path class="st1" d="M2843.8,1842.6H156.2c-1.8,0-3.2-1.4-3.2-3.2v-1.4c0-1.8,1.4-3.2,3.2-3.2h2687.7c1.8,0,3.2,1.4,3.2,3.2v1.4
		C2847,1841.2,2845.6,1842.6,2843.8,1842.6z"/>
</g>
<g>
	<g>
		<g>
			<path class="st2" d="M2492.1,1539c0,0-46.9-54.7-2.9-89.5c0,0,32.1-19.5,58.4-17.9c0,0-37.1,62.3-25.1,68.5
				c12,6.2,36.4-72.4,36.4-72.4s73.2-7.1,96.7,4.2c0,0-62.5,51.2-49.4,54.2c13.2,3,80.7-47.2,80.7-47.2s68.1,11.6,64.5,53.1
				c-3.6,41.5-27.1,54.4-37.4,53.3c-10.3-1.1-70.6-24.1-71.9-15.7c-1.3,8.4,35,36.1,60.4,37.3c0,0-48,52.9-79.9,37.7
				c-31.9-15.3-34.6-39.5-54.5-48.6c-19.9-9.1-36.9-9.1-28.7,0.2c8.2,9.3,44.2,18.3,55.6,38.4c11.4,20.1,21.6,33.7-11.4,28.7
				s-86.7-29.1-89-56.8C2492.1,1539,2492.1,1539,2492.1,1539z"/>
		</g>
		<g>
			<g>
				<path class="st2" d="M2717.8,1493.2c0,0-184.9-7.1-225.8,45.8c0,0-9,27.1-36.8,51.7l-4.3,11.8c0,0,32-33.8,43.5-35.8
					C2494.4,1566.6,2476.5,1501.1,2717.8,1493.2z"/>
			</g>
			<g>
				<path class="st2" d="M2455.2,1590.7c0,0-39.7,29.4-42.4,81.8l7.2,0.6c0,0,12.7-54.2,35.6-75.4
					C2478.5,1576.5,2455.2,1590.7,2455.2,1590.7z"/>
			</g>
		</g>
	</g>
	<g>
		<g>
			<path class="st3" d="M2328.1,1470.2c0,0,74.6-41.8,39.8-98.5c0,0-27.9-34.8-57.7-43.8c0,0,15.9,84.6,0,86.5
				c-15.9,2-10.9-95.5-10.9-95.5s-78.6-37.8-109.4-34.8c0,0,48.7,82.6,32.8,80.6c-15.9-2-70.6-85.6-70.6-85.6s-80.6-14.9-93.5,32.8
				c-12.9,47.7,8,71.6,19.9,74.6c11.9,3,88.5,2,86.5,11.9c-2,9.9-53.7,25.9-82.6,16.9c0,0,31.8,78.6,73.6,74.6
				c41.8-4,54.7-29.8,80.6-31.8c25.9-2,44.8,5,31.8,11.9c-12.9,7-56.7,2.3-77.6,20c-20.9,17.8-37.8,28.7,1,36.7
				c38.8,8,108.4,3,122.4-26.9C2328.1,1470.2,2328.1,1470.2,2328.1,1470.2z"/>
		</g>
		<g>
			<g>
				<path class="st3" d="M2095.3,1326.9c0,0,208.9,67.6,232.8,143.2c0,0-1,33.8,19.9,72.6v14.9c0,0-21.9-50.7-33.8-57.7
					C2314.1,1500,2360.9,1434.4,2095.3,1326.9z"/>
			</g>
			<g>
				<path class="st3" d="M2348,1542.8c0,0,32.2,48.9,13.8,108.5l-8.3-2.2c0,0,8-65.6-8.8-98.6
					C2327.9,1517.5,2348,1542.8,2348,1542.8z"/>
			</g>
		</g>
	</g>
	<g>
		<g>
			<path class="st4" d="M2446.8,1412.5c0,0-98.3-55.1-52.5-129.8c0,0,36.7-45.9,76.1-57.7c0,0-21,111.5,0,114.1
				c21,2.6,14.4-125.9,14.4-125.9s103.6-49.8,144.2-45.9c0,0-64.3,108.8-43.3,106.2s93.1-112.8,93.1-112.8s106.2-19.7,123.3,43.3
				c17,62.9-10.5,94.4-26.2,98.3c-15.7,3.9-116.7,2.6-114.1,15.7c2.6,13.1,70.8,34.1,108.8,22.3c0,0-42,103.6-97,98.3
				c-55.1-5.2-72.1-39.3-106.2-42c-34.1-2.6-59,6.6-42,15.7c17,9.2,74.7,3,102.3,26.4c27.5,23.4,49.8,37.8-1.3,48.3
				c-51.1,10.5-142.9,3.9-161.3-35.4C2446.8,1412.5,2446.8,1412.5,2446.8,1412.5z"/>
		</g>
		<g>
			<g>
				<path class="st4" d="M2753.6,1223.7c0,0-275.4,89.2-306.8,188.8c0,0,1.3,44.6-26.2,95.7v19.7c0,0,28.8-66.9,44.6-76.1
					C2465.1,1451.9,2403.5,1365.3,2753.6,1223.7z"/>
			</g>
			<g>
				<path class="st4" d="M2420.5,1508.3c0,0-42.5,64.5-18.3,143l10.9-2.9c0,0-10.6-86.5,11.6-129.9
					C2447,1474.9,2420.5,1508.3,2420.5,1508.3z"/>
			</g>
		</g>
	</g>
	<g>
		<path class="st5" d="M2443.5,1821.5c106.4,0,192.6-86.3,192.6-192.6h-385.3C2250.8,1735.2,2337.1,1821.5,2443.5,1821.5z"/>
	</g>
	<g>
		<path class="st5" d="M2638.8,1831.3h-390.6l0,0c0-13.1,10.6-23.8,23.8-23.8H2615C2628.1,1807.5,2638.8,1818.2,2638.8,1831.3
			L2638.8,1831.3z"/>
	</g>
	<g>
		<rect x="2244.5" y="1628.8" class="st6" width="396" height="5.9"/>
	</g>
</g>
<g>
	<g class="st7">
		<g class="st7">
			<path class="st3" d="M1956.4,661.5c0,0,19.5-163.6,103.4-261.3c11.1-13,32.5-4.7,32.1,12.4c0,0.3,0,0.6,0,0.9
				C2090.8,442.7,1996.9,565.8,1956.4,661.5z"/>
		</g>
		<g class="st7">
			<path class="st3" d="M1946.2,708.4c0,0,83.5-204.5,226.3-295c8.7-5.5,20.5-3.5,26.3,5c3.8,5.5,5.5,14.2,1.2,27.7
				C2188.7,482,2029.5,603.1,1946.2,708.4z"/>
		</g>
	</g>
	<g>
		<path class="st8" d="M1439.3,1022.6l64.7,769c0,0,6.8,46.6-27.9,46.7c-57,0.1-283.8,0-283.8,0s42.9-9.7,42.4-31.5
			c-0.6-25.7-75.6-791.5-75.6-791.5L1439.3,1022.6z"/>
	</g>
	<g>
		<path class="st3" d="M1171,1824.3c11.2,0,230.8,0.4,286.3-0.3c24.2-0.3,28.4-21.5,28.6-35.2c0.1-6.6-0.7-11.4-0.7-11.4l-1.7-20
			l-4.3-50.9l-3.8-45l-4.9-57.8l-4.1-48.8l-46-546.5l-280.2-7.3c0,0,31.6,320.5,53.9,553.7c2.5,26,4.9,50.9,7.1,74.2
			c0.7,7.4,1.4,14.7,2.1,21.8c2.1,22.1,4,42.3,5.6,60.2c0.9,9.4,1.7,18.2,2.4,26.2c2.9,31.5,4.5,51.5,4.5,55.4
			c0,2.2-0.2,4.3-0.5,6.2C1210.7,1823.2,1175.2,1824.3,1171,1824.3z"/>
	</g>
	<g>
		<polygon class="st3" points="2119.8,603.7 1962.3,1236.6 1940.7,1323.2 1867.3,1618 504.1,1618 774.6,603.7 		"/>
	</g>
	<g>
		<polygon class="st8" points="2119.8,603.7 2141.7,611 1896.4,1640 1867.3,1618 		"/>
	</g>
	<g>
		<polygon class="st9" points="1896.4,1640 541.5,1640 504.1,1618 1867.3,1618 		"/>
	</g>
	<g>
		<rect x="1127.3" y="1824.3" class="st3" width="293.3" height="13.9"/>
	</g>
	<g>
		<polygon class="st10" points="1201.8,1640 1203.3,1650.7 1479.2,1706.4 1475.4,1661.4 1473.6,1640 		"/>
	</g>
	<g class="st7">
		<path class="st10" d="M1171,1824.3c11.2,0,230.8,0.4,286.3-0.3c24.2-0.3,28.4-21.5,28.6-35.2l-274.6-51.7
			c2.9,31.5,4.5,51.5,4.5,55.4c0,2.2-0.2,4.3-0.5,6.2C1210.7,1823.2,1175.2,1824.3,1171,1824.3z"/>
	</g>
	<g>
		<polygon class="st10" points="2119.8,603.7 774.6,603.7 556.3,1418.9 1916.9,1418.9 		"/>
	</g>
	<g>
		<polygon class="st11" points="619.8,1383.5 1879.3,1383.5 1924.3,1204.2 1941.8,1134.9 1948.9,1106.6 1995.1,922.3 1997.5,912.7 
			2022,815.3 2032.9,771.7 2042.2,734.5 2049.9,704.2 2064.1,647.4 822.7,647.4 807,704.2 798.7,734.5 788.4,771.7 776.4,815.3 
			697.3,1102.4 697.3,1102.4 690.6,1126.8 687.4,1138.1 632.8,1336.3 		"/>
	</g>
	<g>
		<polygon class="st12" points="1119,1351.1 1767.1,1351.1 1802.7,1176.5 1816.4,1121.7 1822.1,1099.3 1858.7,953.5 1860.5,945.9 
			1879.9,868.9 1888.5,834.4 1895.9,805 1902,781 1913.2,736 1279.1,736 		"/>
	</g>
	<g>
		<polygon class="st10" points="1405.8,1418.9 1866.9,1620.4 1916.9,1418.9 		"/>
	</g>
	<g>
		<polygon class="st13" points="807,704.2 2049.9,704.2 2064.1,647.4 822.7,647.4 		"/>
	</g>
	<g>
		<g>
			<path class="st0" d="M1986.9,676.3c-1.6,5.1,1.6,9.3,7.2,9.3c5.6,0,11.4-4.1,13.1-9.2c1.6-5.1-1.6-9.3-7.2-9.3
				C1994.4,667.1,1988.5,671.2,1986.9,676.3z"/>
		</g>
		<g>
			<path class="st0" d="M1945,676c-1.6,5.1,1.6,9.3,7.2,9.3c5.6,0,11.4-4.1,13.1-9.2c1.6-5.1-1.6-9.3-7.2-9.3
				C1952.4,666.8,1946.6,670.9,1945,676z"/>
		</g>
		<g>
			<path class="st0" d="M1903.1,675.7c-1.6,5.1,1.6,9.3,7.2,9.3c5.6,0,11.4-4.1,13.1-9.2c1.6-5.1-1.6-9.3-7.2-9.3
				C1910.5,666.6,1904.7,670.6,1903.1,675.7z"/>
		</g>
	</g>
	<g>
		<path class="st14" d="M1888.5,834.4c0,0-146.3,0.6-252.4,81.9c-106.1,81.3-90.8,154.3-178.8,172.6c-144.2,30-54.7-124-242-108
			l-96.4,370.2h648.1l49.4-229.4L1888.5,834.4z"/>
	</g>
	<g>
		<path class="st15" d="M1424,1094.1c9.9,0,21.1-1.3,33.7-3.9c48.6-10.1,66.5-37.4,89.2-71.9c18.8-28.6,42.2-64.2,90.2-101
			c30.1-23.1,83.3-54.2,165.4-71.2c49.1-10.2,85.8-10.4,86.1-10.4l0-2.7c-0.4,0-37.3,0.3-86.7,10.5c-45.6,9.4-111.5,29.5-166.5,71.7
			c-48.4,37.1-71.9,72.9-90.8,101.6c-23.2,35.3-40,60.8-87.5,70.7c-67.6,14.1-82.9-12.5-100.7-43.3c-19.7-34.3-42.1-73.2-141.2-64.7
			l0.2,2.7c97.4-8.3,119.3,29.8,138.7,63.4c9,15.6,17.4,30.3,32.4,39.4C1396.7,1091.1,1408.9,1094.1,1424,1094.1z"/>
	</g>
	<g>
		<path class="st16" d="M1854.4,969.6l-37.2,148.2l-50.1,233.2H1119l32.7-121.1c0,0,95.9-53.5,226-6.9
			c130.1,46.6,274.1,3.6,283.4-101.2C1671.5,1003.7,1780.1,946.7,1854.4,969.6z"/>
	</g>
	<g>
		<path class="st15" d="M1690.6,1039.8c37.3-57.6,105.9-86.5,163.3-68.8l0.8-2.6c-58.5-18.1-128.5,11.4-166.4,69.9L1690.6,1039.8z"
			/>
	</g>
	<g>
		<g>
			
				<rect x="1448.1" y="1078.3" transform="matrix(-0.9947 0.1028 -0.1028 -0.9947 3021.6096 2022.1625)" class="st15" width="21.2" height="21.2"/>
		</g>
		<g>
			
				<rect x="1265" y="1089.5" transform="matrix(0.9791 -0.2033 0.2033 0.9791 -191.6923 316.8691)" class="st15" width="362.4" height="3.5"/>
		</g>
		<g>
			<path class="st15" d="M1629.6,1053.8c-0.3-3.3-3.3-5.8-6.7-5.4c-3.3,0.3-5.8,3.3-5.4,6.7c0.3,3.3,3.3,5.8,6.7,5.4
				C1627.5,1060.1,1629.9,1057.1,1629.6,1053.8z"/>
		</g>
		<g>
			<path class="st15" d="M1274.8,1127.5c-0.3-3.3-3.3-5.8-6.7-5.4c-3.3,0.3-5.8,3.3-5.4,6.7c0.3,3.3,3.3,5.8,6.7,5.4
				C1272.7,1133.8,1275.1,1130.8,1274.8,1127.5z"/>
		</g>
	</g>
	<g>
		<g>
			
				<rect x="1697.4" y="861.9" transform="matrix(-0.7276 0.686 -0.686 -0.7276 3549.2251 335.6344)" class="st15" width="21.2" height="21.2"/>
		</g>
		<g>
			
				<rect x="1625.3" y="867.9" transform="matrix(0.7085 -0.7057 0.7057 0.7085 -115.1766 1460.5133)" class="st15" width="169.8" height="3.5"/>
		</g>
		<g>
			<path class="st15" d="M1775.1,805.9c-2.1-2.6-5.9-3-8.6-0.9c-2.6,2.1-3,5.9-0.9,8.6c2.1,2.6,5.9,3,8.6,0.9
				C1776.9,812.3,1777.3,808.5,1775.1,805.9z"/>
		</g>
		<g>
			<path class="st15" d="M1654.8,925.8c-2.1-2.6-5.9-3-8.6-0.9c-2.6,2.1-3,5.9-0.9,8.6c2.1,2.6,5.9,3,8.6,0.9
				C1656.5,932.2,1656.9,928.4,1654.8,925.8z"/>
		</g>
	</g>
	<g>
		<g>
			
				<rect x="1291.6" y="980" transform="matrix(-0.3908 -0.9205 0.9205 -0.3908 899.34 2576.3223)" class="st15" width="21.2" height="21.2"/>
		</g>
		<g>
			
				<rect x="1300.1" y="936.2" transform="matrix(0.9093 -0.4162 0.4162 0.9093 -294.0676 631.7295)" class="st15" width="3.5" height="108.3"/>
		</g>
		<g>
			<path class="st15" d="M1326.3,1045.3c3.2-1.1,4.9-4.5,3.8-7.7c-1.1-3.2-4.5-4.9-7.7-3.8c-3.2,1.1-4.9,4.5-3.8,7.7
				C1319.7,1044.7,1323.2,1046.4,1326.3,1045.3z"/>
		</g>
		<g>
			<path class="st15" d="M1281.3,946.8c3.2-1.1,4.9-4.5,3.8-7.7c-1.1-3.2-4.5-4.9-7.7-3.8c-3.2,1.1-4.9,4.5-3.8,7.7
				C1274.6,946.2,1278.1,947.9,1281.3,946.8z"/>
		</g>
	</g>
	<g>
		<g>
			<path class="st4" d="M1193.3,770.2l-32.9,136.1c-1.4,5.8,4.1,10.5,12.3,10.5h338.8c8.2,0,16-4.7,17.4-10.5l32.9-136.1
				c1.4-5.8-4.1-10.5-12.3-10.5h-338.8C1202.5,759.6,1194.7,764.4,1193.3,770.2z"/>
		</g>
		<g>
			<g>
				<g>
					<polygon class="st17" points="1475.9,849.8 1512,849.8 1520.7,813.8 1484.6,813.8 					"/>
				</g>
				<g>
					<polygon class="st17" points="1453.5,867.9 1489.6,867.9 1498.3,831.8 1462.2,831.8 					"/>
				</g>
			</g>
			<g>
				<g>
					<polygon class="st17" points="1391.7,849.8 1427.8,849.8 1436.5,813.8 1400.4,813.8 					"/>
				</g>
				<g>
					<g>
						<polygon class="st18" points="1369.3,867.9 1405.4,867.9 1414.1,831.8 1378.1,831.8 						"/>
					</g>
					<g>
						<path class="st19" d="M1376.9,830.3h39.1l-9.5,39.1h-39.1L1376.9,830.3z M1412.2,833.3h-33l-8,33h33L1412.2,833.3z"/>
					</g>
				</g>
			</g>
			<g>
				<g>
					<polygon class="st18" points="1307.5,849.8 1343.6,849.8 1352.3,813.8 1316.3,813.8 					"/>
				</g>
				<g>
					<path class="st17" d="M1315.1,812.2h39.1l-9.5,39.1h-39.1L1315.1,812.2z M1350.4,815.3h-33l-8,33h33L1350.4,815.3z"/>
				</g>
				<g>
					<polygon class="st18" points="1285.1,867.9 1321.2,867.9 1329.9,831.8 1293.9,831.8 					"/>
				</g>
				<g>
					<path class="st17" d="M1292.7,830.3h39.1l-9.5,39.1h-39.1L1292.7,830.3z M1328,833.3h-33l-8,33h33L1328,833.3z"/>
				</g>
				<g>
					<g>
						<polygon class="st17" points="1305.6,851.3 1326.9,851.3 1332,830.3 1310.7,830.3 						"/>
					</g>
				</g>
			</g>
			<g>
				<g>
					<g>
						<polygon class="st17" points="1223.3,849.8 1259.4,849.8 1268.1,813.8 1232.1,813.8 						"/>
					</g>
				</g>
				<g>
					<g>
						<polygon class="st17" points="1201,867.9 1237,867.9 1245.7,831.8 1209.7,831.8 						"/>
					</g>
				</g>
				<g>
					<g>
						<polygon class="st18" points="1224.4,849 1240.9,849 1244.8,832.6 1228.3,832.6 						"/>
					</g>
				</g>
			</g>
		</g>
	</g>
	<g>
		<g>
			<path class="st13" d="M2130.7,1200.1h124.9c16.7,0,33.1-13.5,36.8-30.1l93.9-424.2c3.7-16.7-6.8-30.1-23.5-30.1H2238
				c-16.7,0-33.1,13.5-36.8,30.1l-93.9,424.2C2103.5,1186.6,2114.1,1200.1,2130.7,1200.1z"/>
		</g>
		<g>
			<g>
				<rect x="2186.6" y="811" class="st3" width="185.2" height="0.8"/>
			</g>
		</g>
		<g>
			<g>
				<rect x="2164.5" y="910.9" class="st3" width="185.2" height="0.8"/>
			</g>
		</g>
		<g>
			<g>
				<rect x="2142.4" y="1010.9" class="st3" width="185.2" height="0.8"/>
			</g>
		</g>
		<g>
			<path class="st15" d="M2258.5,781.5c-0.2-2.1,9.3-38.9,9.3-38.9l-33.9,27.5l16.7-0.6L2258.5,781.5z"/>
		</g>
		<g>
			<g>
				<g>
					<path class="st4" d="M2170.8,1091h65.8l-14.5,65.7h-65.8L2170.8,1091z M2232,1094.6h-58.3l-12.9,58.4h58.3L2232,1094.6z"/>
				</g>
			</g>
		</g>
		<g>
			<polygon class="st20" points="2203.5,1119.3 2265.5,1119.3 2279.2,1057.3 2217.2,1057.3 			"/>
		</g>
		<g>
			<g>
				
					<rect x="2193.7" y="1084.5" transform="matrix(0.7891 -0.6143 0.6143 0.7891 -227.0519 1586.3407)" class="st20" width="5.3" height="78.6"/>
			</g>
		</g>
		<g>
			<g>
				<path class="st4" d="M2342,781.5c-0.2-2.1,9.3-38.9,9.3-38.9l-33.9,27.5l16.7-0.6L2342,781.5z"/>
			</g>
			<g>
				<g>
					<g>
						<polygon class="st4" points="2328.9,854.4 2333.9,854.4 2335.8,845.5 2301.9,845.5 2300,854 2305,854 2305.8,850.5 
							2329.7,850.5 						"/>
					</g>
				</g>
				<g>
					<g>
						<polygon class="st4" points="2309.6,876.2 2314.6,876.2 2320.8,848 2315.8,848 						"/>
					</g>
				</g>
				<g>
					<g>
						<polygon class="st4" points="2305.1,878 2318.3,878 2319.4,873 2306.2,873 						"/>
					</g>
				</g>
			</g>
			<g>
				<g>
					<polygon class="st4" points="2237.4,881.1 2242,877.8 2218.1,840.3 2213.6,843.6 					"/>
				</g>
			</g>
			<g>
				<g>
					<g>
						<path class="st4" d="M2281.2,951.1c2.1-9.5,11.6-17.3,21.1-17.3c9.5,0,15.6,7.8,13.5,17.3c-2.1,9.5-11.6,17.3-21.1,17.3
							C2285.2,968.4,2279.1,960.7,2281.2,951.1z M2285.8,951.1c-1.6,7,2.9,12.7,9.9,12.7c7,0,14-5.7,15.6-12.7
							c1.6-7-2.9-12.7-9.9-12.7C2294.3,938.4,2287.4,944.1,2285.8,951.1z"/>
					</g>
				</g>
				<g>
					<g>
						<path class="st4" d="M2261.8,983.5c0.6,0,1.2-0.2,1.8-0.7l23-19.4c1.1-0.9,1.4-2.4,0.7-3.2c-0.7-0.9-2.2-0.9-3.2,0.1l-23,19.4
							c-1.1,0.9-1.4,2.4-0.7,3.2C2260.7,983.2,2261.2,983.5,2261.8,983.5z"/>
					</g>
				</g>
			</g>
			<g>
				<polygon class="st4" points="2211.9,932.2 2203.4,947.9 2186.9,947.9 2198.1,957.6 2189.5,973.3 2205,963.6 2216.2,973.3 
					2214.6,957.6 2230,947.9 2213.6,947.9 				"/>
			</g>
		</g>
	</g>
	<g>
		<g>
			<path class="st21" d="M620.2,795c0,0-0.5,24.7,3.3,24.2c3.7-0.5,8.7-20.7,8.8-20.4c0,0.3-1.7,21.3,3,22.3
				c4.7,1,9.4-22.2,9.4-22.2s-3.1,20,0.2,20.5c3.3,0.5,8.4-18.8,9.8-18.9c1.3-0.1-4.3,16.6-0.4,17.5c4,0.8,12.9-22.6,9.9-25.6
				c-3-3-7.7,0.2-7.7,0.2s-5.8-4.3-10.3-1.9c0,0-10.5-2.1-13.6,2.5C632.4,793.4,625.9,787.8,620.2,795z"/>
		</g>
		<g>
			<g>
				<path class="st4" d="M552.7,700.4L468,1005.9c-3.6,13.1,4.6,23.7,18.5,23.7h571.9c13.8,0,28-10.6,31.6-23.7l84.7-305.5
					c3.6-13.1-4.6-23.7-18.5-23.7H584.3C570.5,676.8,556.4,687.4,552.7,700.4z"/>
			</g>
			<g>
				<g>
					<polygon class="st22" points="997.5,838.3 1071.4,838.3 1091.9,764.4 1018,764.4 					"/>
				</g>
				<g>
					<polygon class="st11" points="1020.6,820.2 1058.3,820.2 1068.8,782.5 1031.1,782.5 					"/>
				</g>
				<g>
					
						<rect x="1041.8" y="755.8" transform="matrix(0.8106 -0.5856 0.5856 0.8106 -271.3972 763.6187)" class="st20" width="5.8" height="91.1"/>
				</g>
				<g>
					<polygon class="st20" points="1050.1,798.2 1124,798.2 1144.4,724.4 1070.6,724.4 					"/>
				</g>
			</g>
			<g>
				<g>
					<polygon class="st20" points="1008.1,925.4 1067.5,925.4 1084,866 1024.6,866 					"/>
				</g>
				<g>
					<polygon class="st23" points="949.3,925.4 1008.7,925.4 1025.2,866 965.8,866 					"/>
				</g>
				<g>
					<polygon class="st24" points="889.9,925.4 949.3,925.4 965.8,866 906.4,866 					"/>
				</g>
				<g>
					<polygon class="st18" points="830.5,925.4 889.9,925.4 906.4,866 847,866 					"/>
				</g>
				<g>
					<polygon class="st10" points="771.2,925.4 830.5,925.4 847,866 787.6,866 					"/>
				</g>
				<g>
					<polygon class="st25" points="711.8,925.4 771.2,925.4 787.6,866 728.3,866 					"/>
				</g>
				<g>
					<polygon class="st11" points="652.4,925.4 711.8,925.4 728.3,866 668.9,866 					"/>
				</g>
				<g>
					<polygon class="st17" points="593,925.4 652.4,925.4 668.9,866 609.5,866 					"/>
				</g>
				<g>
					<polygon class="st26" points="991.7,984.8 1051,984.8 1067.5,925.4 1008.1,925.4 					"/>
				</g>
				<g>
					<polygon class="st10" points="932.8,984.8 992.2,984.8 1008.7,925.4 949.3,925.4 					"/>
				</g>
				<g>
					<polygon class="st11" points="873.5,984.8 932.8,984.8 949.3,925.4 889.9,925.4 					"/>
				</g>
				<g>
					<polygon class="st17" points="814.1,984.8 873.5,984.8 889.9,925.4 830.5,925.4 					"/>
				</g>
			</g>
			<g>
				<path class="st24" d="M590.1,749.8h311c4.3,0,8.7-3.5,9.9-7.8l0,0c1.2-4.3-1.3-7.8-5.6-7.8h-311c-4.3,0-8.7,3.5-9.9,7.8l0,0
					C583.3,746.3,585.8,749.8,590.1,749.8z"/>
			</g>
			<g>
				<path class="st18" d="M579.2,789.1h311c4.3,0,8.7-3.5,9.9-7.8l0,0c1.2-4.3-1.3-7.8-5.6-7.8h-311c-4.3,0-8.7,3.5-9.9,7.8l0,0
					C572.4,785.6,575,789.1,579.2,789.1z"/>
			</g>
			<g>
				<path class="st11" d="M568.3,828.3h311c4.3,0,8.7-3.5,9.9-7.8l0,0c1.2-4.3-1.3-7.8-5.6-7.8h-311c-4.3,0-8.7,3.5-9.9,7.8l0,0
					C561.5,824.8,564.1,828.3,568.3,828.3z"/>
			</g>
			<g>
				<g>
					<path class="st11" d="M948.2,751.6h-3.7l2-7.3H942l-7.3,7.3h-4.4l7.9-8c-2.7-0.8-4.2-2.9-3.2-6.4c1.1-4.1,4.7-6.7,9.7-6.7h9.4
						L948.2,751.6z M947.5,741.1l2-7.1H944c-2.7,0-4.7,1.2-5.3,3.5c-0.6,2.2,0.7,3.6,3.3,3.6H947.5z"/>
				</g>
				<g>
					<path class="st11" d="M929.3,791.7c-3.7,0-6.3-1.5-7.9-3.3l2.4-8.8h8.9l-0.9,3.2h-5.4l-1.1,3.9c1,1,2.7,1.6,4.6,1.6
						c4.3,0,8-3.2,9.2-7.5c1.1-4.1-0.9-7.5-4.7-7.5c-2.7,0-4.5,0.9-6.5,2.3l-1.6-2.8c2.7-1.8,5.2-2.9,8.9-2.9c6.3,0,9.5,5,7.8,10.9
						C941.5,787,935.9,791.7,929.3,791.7z"/>
				</g>
				<g>
					<path class="st11" d="M925.7,832.9h-9.7c-4.7,0-7.2-2-6.2-5.8c0.8-2.9,2.9-4.3,5.6-5.2c-1.3-0.8-2.4-2.2-1.7-4.7
						c0.4-1.5,1.2-2.6,2.4-3.5c1.5-1.2,3.6-1.9,6-1.9h9.4L925.7,832.9z M925.4,820.8l1.5-5.6h-5.3c-2.4,0-4,1-4.4,2.7
						c-0.6,2,0.8,2.9,3.2,2.9H925.4z M922.9,829.7l1.6-5.8h-5.9c-2.9,0-4.6,1.1-5.1,2.8c-0.5,2,0.7,2.9,3.2,2.9H922.9z"/>
				</g>
			</g>
		</g>
	</g>
	<g>
		
			<rect x="1681.9" y="1036.8" transform="matrix(-0.7544 0.6564 -0.6564 -0.7544 3649.7117 723.389)" class="st15" width="15.3" height="15.3"/>
	</g>
</g>
</svg>
