<?xml version="1.0" encoding="utf-8"?>
<!-- Generator: Adobe Illustrator 22.1.0, SVG Export Plug-In . SVG Version: 6.00 Build 0)  -->
<svg version="1.1" id="_x2018_лой_x5F_1" xmlns="http://www.w3.org/2000/svg" xmlns:xlink="http://www.w3.org/1999/xlink"
	 x="0px" y="0px" viewBox="0 0 841 730.3" style="enable-background:new 0 0 841 730.3;" xml:space="preserve">
<style type="text/css">
	.st0{fill:#EBF3FA;}
	.st1{fill:#233862;}
	.st2{fill:#82B378;}
	.st3{fill:#A8D29F;}
	.st4{fill:#FFB27D;}
	.st5{fill:#E58638;}
	.st6{fill:#F99746;}
	.st7{fill:#152949;}
	.st8{fill:#ED975D;}
	.st9{fill:#8C9DF4;}
	.st10{fill:#707FE5;}
	.st11{fill:#BBD0FF;}
	.st12{fill:#AEC3FF;}
	.st13{fill:#D2E0FF;}
	.st14{fill:#C0D4FF;}
	.st15{fill:#86A2E2;}
	.st16{fill:#214C7F;}
	.st17{fill:#FCA56B;}
	.st18{fill:#163560;}
	.st19{fill:#FFFFFF;}
	.st20{fill:#6C7AFF;}
	.st21{fill:#2C3A64;}
	.st22{fill:#2B478B;}
	.st23{fill:#ED985F;}
	.st24{opacity:0.5;}
	.st25{fill:#798EE8;}
	.st26{fill:#849DEF;}
	.st27{fill:#505ABA;}
	.st28{fill:#5E6ECC;}
	.st29{fill:#3D4CA5;}
	.st30{fill:#ED7B2E;}
	.st31{fill:#739AF0;}
	.st32{fill:#1F3B72;}
	.st33{fill:#F77D48;}
	.st34{fill:#ED917E;}
	.st35{fill:#B3C2FF;}
	.st36{fill:#ED7D2B;}
	.st37{fill:#FF8939;}
	.st38{fill:#6B80DD;}
	.st39{fill:#A4B5FF;}
</style>
<g>
	<g>
		<g>
			<path class="st2" d="M487.3,441.4c0,0-66.9-41.2-32.8-92c0,0,26.9-30.9,54.7-38c0,0-17.8,77.1-3.3,79.5
				c14.5,2.4,13.7-87.3,13.7-87.3s73.6-31.7,101.8-27.8c0,0-47.9,74-33.2,72.8c14.7-1.2,68.1-75.9,68.1-75.9s74.6-10.6,84.6,33.7
				c10.1,44.3-10,65.5-21.1,67.8c-11.1,2.3-81.4-1.5-79.9,7.7c1.4,9.2,48.4,25.8,75.2,18.7c0,0-32.2,71-70.4,65.7
				c-38.2-5.2-49.1-29.5-72.8-32.3c-23.7-2.8-41.3,2.9-29.7,9.8c11.6,6.9,52,4.3,70.5,21.4c18.5,17.1,33.6,27.8-2.3,33.6
				c-35.9,5.8-99.7-1.4-111.4-29.3C487.3,441.4,487.3,441.4,487.3,441.4z"/>
		</g>
		<g>
			<g>
				<path class="st2" d="M706.6,318.6c0,0-194.4,54.2-219.2,122.7c0,0-0.4,31.1-21,65.9l-0.6,13.7c0,0,22-45.8,33.3-51.7
					C499,469.3,458.5,407.2,706.6,318.6z"/>
			</g>
			<g>
				<path class="st2" d="M466.3,507.3c0,0-31.4,43.7-16.8,99.1l7.7-1.7c0,0-4.9-60.6,11.8-90.2C485.7,484.8,466.3,507.3,466.3,507.3
					z"/>
			</g>
		</g>
	</g>
	<g>
		<g>
			<path class="st3" d="M216.5,439.7c0,0-112.4,9.9-116.6-77.8c0,0,4.5-58.7,30.3-90.6c0,0,45.5,104,64.4,94.3
				c18.8-9.7-59.1-112.2-59.1-112.2s57.6-99.7,93.4-119.3c0,0,8.3,126.3,24.1,112.3c15.9-14,13.4-145.8,13.4-145.8
				s76.7-76.2,126.4-33.8c49.6,42.4,44.6,84,33.8,96.1c-10.8,12.1-95,68-85.5,77.4c9.6,9.4,77.8-11.8,102.6-43
				c0,0,23.7,109.3-24.8,136.1c-48.5,26.7-81.8,8.2-111.5,25.2c-29.7,17.1-45.1,38.7-25.8,36.7c19.3-2,63.5-39.7,99.5-35.9
				c36,3.8,62.6,3.2,26.2,40.7c-36.4,37.5-116,83.9-153.4,61.7C216.5,439.7,216.5,439.7,216.5,439.7z"/>
		</g>
		<g>
			<g>
				<path class="st3" d="M363.7,110.4c0,0-177.4,229.1-147.2,329.3c0,0,26.2,36.1,32.3,94l11.1,16.3c0,0-13.9-71.6-6-88.1
					C253.9,461.9,154.1,425.1,363.7,110.4z"/>
			</g>
			<g>
				<path class="st3" d="M248.8,533.7c0,0,1.3,77.3,65.6,128.6l7.4-8.6c0,0-57.6-65.5-63.7-114C251.9,491.1,248.8,533.7,248.8,533.7
					z"/>
			</g>
		</g>
	</g>
</g>
</svg>
