<?xml version="1.0" encoding="utf-8"?>
<!-- Generator: Adobe Illustrator 22.1.0, SVG Export Plug-In . SVG Version: 6.00 Build 0)  -->
<svg version="1.1" id="_x2018_лой_x5F_1" xmlns="http://www.w3.org/2000/svg" xmlns:xlink="http://www.w3.org/1999/xlink"
	 x="0px" y="0px" viewBox="0 0 589.1 730.3" style="enable-background:new 0 0 589.1 730.3;" xml:space="preserve">
<style type="text/css">
	.st0{fill:#EBF3FA;}
	.st1{fill:#233862;}
	.st2{fill:#82B378;}
	.st3{fill:#A8D29F;}
	.st4{fill:#FFB27D;}
	.st5{fill:#E58638;}
	.st6{fill:#F99746;}
	.st7{fill:#152949;}
	.st8{fill:#ED975D;}
	.st9{fill:#8C9DF4;}
	.st10{fill:#707FE5;}
	.st11{fill:#BBD0FF;}
	.st12{fill:#AEC3FF;}
	.st13{fill:#D2E0FF;}
	.st14{fill:#C0D4FF;}
	.st15{fill:#86A2E2;}
	.st16{fill:#214C7F;}
	.st17{fill:#FCA56B;}
	.st18{fill:#163560;}
	.st19{fill:#FFFFFF;}
	.st20{fill:#6C7AFF;}
	.st21{fill:#2C3A64;}
	.st22{fill:#2B478B;}
	.st23{fill:#ED985F;}
	.st24{opacity:0.5;}
	.st25{fill:#798EE8;}
	.st26{fill:#849DEF;}
	.st27{fill:#505ABA;}
	.st28{fill:#5E6ECC;}
	.st29{fill:#3D4CA5;}
	.st30{fill:#ED7B2E;}
	.st31{fill:#739AF0;}
	.st32{fill:#1F3B72;}
	.st33{fill:#F77D48;}
	.st34{fill:#ED917E;}
	.st35{fill:#B3C2FF;}
	.st36{fill:#ED7D2B;}
	.st37{fill:#FF8939;}
	.st38{fill:#6B80DD;}
	.st39{fill:#A4B5FF;}
</style>
<g>
	<g>
		<g>
			<path class="st4" d="M239,615.9c-2,2.3-2.3,4.9-1.3,7.6c0,0,0,0,0,0c1.8,5.1,7.9,10.8,15,16.5c0.9,0.7,1.7,1.4,2.4,2
				c0.2,0.2,0.4,0.3,0.5,0.5c0.1,0.1,0.3,0.3,0.4,0.4c6.6,6.1,4.1,7.5,16,19.8c13.5,14.1,22.8,14.3,25.5,13
				c2.2-1.1-2.3-8.6-7.4-16.9c-0.2-0.4-0.5-0.8-0.7-1.2c-0.7-1.1-1.3-2.2-2-3.4c-5.9-10.1-4.4-14.8-3-29.9c1.1-12.2,19-68.2,19-68.2
				l-25.9-4.5c0,0-7.8,44.6-16.4,51.5c-4.6,3.7-9.7,3.7-14.2,6.4c-0.3,0.2-0.6,0.4-0.9,0.6C243.6,611.9,241,613.6,239,615.9z"/>
		</g>
		<g>
			<path class="st1" d="M239,615.9c-2,2.3-2.3,4.9-1.3,7.6c0,0,0,0,0,0c2.3,5.1,8.2,10.8,15,16.4c0.9,0.7,1.7,1.4,2.4,2.1
				c0.2,0.2,0.4,0.3,0.5,0.5c0.1,0.1,0.3,0.3,0.4,0.4c6.6,6.1,4.1,7.5,16,19.8c13.5,14.1,22.8,14.3,25.5,13
				c2.2-1.1-2.3-8.6-7.4-16.9c-2.6-1-14.9-5.9-24.1-17.8c-7.8-10-13.2-22.8-18.5-30.6c-0.6-0.1-0.9-0.2-1.5-0.3
				C243.6,611.9,241,613.6,239,615.9z"/>
		</g>
		<g>
			<path class="st4" d="M448,599.8c1.6,8,13,6.7,25.7,3.6c12.7-3.1,9.7,0.6,27.8-1.4c18.1-2,23.6-8.8,24.2-11.5
				c0.5-2.4-8.5-3.2-18.1-4.3c-1.2-0.1-2.4-0.3-3.6-0.4c-10.9-1.4-18.8-8.4-28.7-14.1c-9.3-5.4-23.3-27.6-23.3-27.6l-24.9,2
				c0,0,13,19.8,18.1,28.4c3,5.1,2.8,11.8,2.4,16.9C447.6,594.1,447.4,596.9,448,599.8z"/>
		</g>
		<g>
			<path class="st1" d="M473.7,603.3c12.7-3.1,9.7,0.6,27.8-1.4c18.1-2,23.6-8.8,24.2-11.5c0.5-2.4-8.5-3.2-18.1-4.3l-0.1,0.2
				c0,0-10.9,7.7-26,8.1c-12.3,0.3-25.3-3.2-33.8-3.1c-0.2,2.8-0.4,5.7,0.2,8.5C449.6,607.8,461,606.4,473.7,603.3z"/>
		</g>
		<g>
			<path class="st5" d="M352.7,440.7l-23.2,62.6L299.1,585c0,0-8.2,0.8-16.1-1.5c-7.3-2.1-15.6-7.6-15.6-7.6s8.4-87.7,24.1-138
				c4-12.9,8.5-23.4,13.5-29.3C329.4,379.8,352.7,440.7,352.7,440.7z"/>
		</g>
		<g>
			<path class="st6" d="M329,341.4c-13.2-4.3-47.8-0.1-85.2,6.7c-10.3,1.9-20.8-2.9-26.2-11.8l0,0l-94.2-7.4c0,0-31.1,69-14.1,112.9
				c2.5,6.5,8,10.5,16.5,10.6c0,0,0,0,0,0c0,0,57,0.1,75.2,0.1c46.9,0,99.2-32.2,106-33.6c11.1-2.2,15.5,19.9,26.6,43.2
				c11.1,23.3,104.1,103,104.1,103s14.3,0.1,20.2-2.1c6.4-2.4,8.7-5.5,8.7-5.5S363.4,352.5,329,341.4z"/>
		</g>
		<g>
			<path class="st7" d="M207.6,59.5c-7-4.2-13.8-4.8-18-4.7c-2.9,0.1-5.8-0.1-8.7-0.5c-36-5.3-57.6,47-58.9,62.8
				c-2.3,29-17.7,33.4-39.2,51.6C39.5,205,52.2,247.3,75.8,263c14.2,9.4,39.2,0,39.2,0c0.4,0.2,68.4-38.1,102-56.5
				C267.4,199.3,227.8,71.5,207.6,59.5z"/>
		</g>
		<g>
			<path class="st4" d="M188.9,190.7c0.1,0.1-16.5,5.8-27.7,0.9c-10.5-4.6-18.4-21.9-18.3-21.9c4.8-0.2,10-4.4,14-31.7l2,0.7
				l34.1,12.3c0,0-2.5,11-4.1,21.4C187.8,181.1,187.1,189.5,188.9,190.7z"/>
		</g>
		<g>
			<path class="st8" d="M193.2,151c0,0-1.4,5.9-3.4,16.9c-19.6-3.5-28-18.6-30.8-29.2L193.2,151z"/>
		</g>
		<g>
			<path class="st4" d="M198.3,161.9c0,0-46.7-6.3-42.4-35.3c4.4-29,1.3-49.4,31.3-46.6c30,2.8,34.1,14.7,35,24.8
				C223.1,114.8,210.5,162.7,198.3,161.9z"/>
		</g>
		<g>
			<path class="st7" d="M220.5,88.8c0,0-29.9,25.8-50.2,27.8c-20.3,2.1-28-4.4-28-4.4s12-10,19.2-26c2.1-4.7,6.6-8,11.8-8.4
				C187.8,76.5,215.3,75.9,220.5,88.8z"/>
		</g>
		<g>
			<path class="st7" d="M201.8,86.5c0,0,10,9.7,13.2,16.8c3,6.9,4,23.5,1.5,30c0,0,15.6-30.3,6.8-45
				C213.9,72.8,201.8,86.5,201.8,86.5z"/>
		</g>
		<g>
			<path class="st9" d="M228.3,259.5c-1.4,94.5-0.4,74.8-10.7,83.8c-2.5,2.2-9.5,3.4-18.7,4.1c-29,1.9-79.9-2.9-81.9-8.2
				c-6.7-18.5-2-24.3-7.5-52.7c-0.6-3-1.3-6.3-2.1-9.8c-4.7-19.5-9.2-26.1,7.3-57.4c15-28.4,30.5-51.4,31.9-50.6
				c39.5,23.4,42.7,3.7,42.7,3.7S228.9,213.4,228.3,259.5z"/>
		</g>
		<g>
			<path class="st6" d="M329.4,503.3L299.1,585c0,0-8.2,0.8-16.1-1.5c-7.3-2.1-15.6-7.6-15.6-7.6s8.4-87.7,24.1-138L329.4,503.3z"/>
		</g>
		<g>
			<path class="st9" d="M189.1,172.4c0,0,40.6,6.9,45.4,24.4c4.8,17.5,20.5,123.7,20.5,123.7s-11.5,11.2-21,1.6
				c-9.5-9.5-30-99.3-30-99.3L189.1,172.4z"/>
		</g>
		<g>
			<path class="st10" d="M198.8,347.3c-29,1.9-79.9-2.9-81.9-8.2c-6.7-18.5-2-24.3-7.5-52.7l14-39.4c0,0-2.3,43.8,10.6,55.4
				c12.9,11.5,52.9,22.3,59.2,31.9C196.2,339,198.2,343.6,198.8,347.3z"/>
		</g>
		<g>
			<path class="st4" d="M165.6,328.9c0,0,28.6-6.4,33.2-3.8c4.6,2.5,15.9,11.8,17.3,15c1.4,3.2-10.3-2.4-14.1-3.5
				c-2.5-0.7-8.9,1.6-12.1,2.7c-13.5,4.5-21.8,2.2-21.8,2.2L165.6,328.9z"/>
		</g>
		<g>
			<path class="st9" d="M146.4,168.6c0,0-38.4,2.4-51.7,20.9C76,215.6,38.9,326.8,60.2,341.7c24,16.7,109,4.4,109,4.4
				s2.8-13.2-1.1-19.6c-3.9-6.4-68-16.7-70.9-19.7c-3-3,36.9-57.6,36.9-66.5C134.1,231.4,146.4,168.6,146.4,168.6z"/>
		</g>
		<g>
			<path class="st4" d="M200.2,333c0,0,6,7.7,8,8.7c2,0.9,3.2,0.7,3.2,0.7l-4-7.3L200.2,333z"/>
		</g>
		<g>
			<path class="st4" d="M198.8,325.1l17.4,8.5c0,0-0.7,1.2-2.9,1.1c-2.1-0.1-7.6-2.1-7.6-2.1L198.8,325.1z"/>
		</g>
	</g>
	<g>
		<g>
			<polygon class="st7" points="347.6,345 165.6,345 165.6,349 346,349 			"/>
		</g>
		<g>
			<polygon class="st7" points="208.1,349 346,349 387.4,245.9 249.8,245.9 			"/>
		</g>
		<g>
			<path class="st0" d="M311.2,297.4c1-3.6-1.1-6.6-4.7-6.6c-3.6,0-7.4,2.9-8.4,6.6c-1,3.6,1.1,6.6,4.7,6.6S310.1,301.1,311.2,297.4
				z"/>
		</g>
	</g>
</g>
</svg>
