<?xml version="1.0" encoding="utf-8"?>
<!-- Generator: Adobe Illustrator 22.1.0, SVG Export Plug-In . SVG Version: 6.00 Build 0)  -->
<svg version="1.1" id="_x2018_лой_x5F_1" xmlns="http://www.w3.org/2000/svg" xmlns:xlink="http://www.w3.org/1999/xlink"
	 x="0px" y="0px" viewBox="0 0 823.4 730.3" style="enable-background:new 0 0 823.4 730.3;" xml:space="preserve">
<style type="text/css">
	.st0{fill:#EBF3FA;}
	.st1{fill:#233862;}
	.st2{fill:#82B378;}
	.st3{fill:#A8D29F;}
	.st4{fill:#FFB27D;}
	.st5{fill:#E58638;}
	.st6{fill:#F99746;}
	.st7{fill:#152949;}
	.st8{fill:#ED975D;}
	.st9{fill:#8C9DF4;}
	.st10{fill:#707FE5;}
	.st11{fill:#BBD0FF;}
	.st12{fill:#AEC3FF;}
	.st13{fill:#D2E0FF;}
	.st14{fill:#C0D4FF;}
	.st15{fill:#86A2E2;}
	.st16{fill:#214C7F;}
	.st17{fill:#FCA56B;}
	.st18{fill:#163560;}
	.st19{fill:#FFFFFF;}
	.st20{fill:#6C7AFF;}
	.st21{fill:#2C3A64;}
	.st22{fill:#2B478B;}
	.st23{fill:#ED985F;}
	.st24{opacity:0.5;}
	.st25{fill:#798EE8;}
	.st26{fill:#849DEF;}
	.st27{fill:#505ABA;}
	.st28{fill:#5E6ECC;}
	.st29{fill:#3D4CA5;}
	.st30{fill:#ED7B2E;}
	.st31{fill:#739AF0;}
	.st32{fill:#1F3B72;}
	.st33{fill:#F77D48;}
	.st34{fill:#ED917E;}
	.st35{fill:#B3C2FF;}
	.st36{fill:#ED7D2B;}
	.st37{fill:#FF8939;}
	.st38{fill:#6B80DD;}
	.st39{fill:#A4B5FF;}
</style>
<g>
	<g>
		<g>
			<path class="st11" d="M469.5,407.1c0,0-44.4-51.8-2.7-84.6c0,0,30.4-18.4,55.2-16.9c0,0-35.1,58.9-23.8,64.8
				c11.4,5.9,34.4-68.5,34.4-68.5s69.2-6.7,91.4,4c0,0-59.1,48.4-46.7,51.3c12.5,2.9,76.3-44.6,76.3-44.6s64.4,11,61,50.2
				c-3.4,39.3-25.6,51.4-35.4,50.4c-9.8-1-66.8-22.8-68-14.8c-1.2,8,33.1,34.1,57.1,35.3c0,0-45.4,50.1-75.6,35.6
				c-30.2-14.5-32.7-37.4-51.6-45.9c-18.8-8.6-34.9-8.6-27.1,0.2c7.8,8.8,41.8,17.3,52.6,36.3c10.8,19,20.4,31.9-10.8,27.2
				c-31.2-4.7-82-27.5-84.2-53.7C469.5,407.1,469.5,407.1,469.5,407.1z"/>
		</g>
		<g>
			<g>
				<path class="st11" d="M683,363.8c0,0-174.9-6.7-213.5,43.3c0,0-8.5,25.6-34.8,48.9l-4.1,11.2c0,0,30.3-32,41.2-33.9
					C471.7,433.3,454.8,371.3,683,363.8z"/>
			</g>
			<g>
				<path class="st11" d="M434.7,456c0,0-37.5,27.8-40.2,77.4l6.8,0.6c0,0,12-51.3,33.7-71.4C456.7,442.6,434.7,456,434.7,456z"/>
			</g>
		</g>
	</g>
	<g>
		<g>
			<path class="st12" d="M314.4,342c0,0,70.6-39.5,37.6-93.1c0,0-26.3-32.9-54.6-41.4c0,0,15.1,80,0,81.9
				c-15.1,1.9-10.4-90.3-10.4-90.3s-74.3-35.8-103.5-32.9c0,0,46.1,78.1,31,76.2c-15.1-1.9-66.8-80.9-66.8-80.9s-76.2-14.1-88.4,31
				c-12.2,45.2,7.5,67.7,18.8,70.6c11.3,2.8,83.7,1.9,81.9,11.3c-1.9,9.4-50.8,24.5-78.1,16c0,0,30.1,74.3,69.6,70.6
				c39.5-3.8,51.7-28.2,76.2-30.1c24.5-1.9,42.3,4.7,30.1,11.3c-12.2,6.6-53.6,2.2-73.4,19c-19.8,16.8-35.8,27.1,0.9,34.7
				c36.7,7.5,102.6,2.8,115.7-25.4C314.4,342,314.4,342,314.4,342z"/>
		</g>
		<g>
			<g>
				<path class="st12" d="M94.2,206.6c0,0,197.6,64,220.2,135.5c0,0-0.9,32,18.8,68.7v14.1c0,0-20.7-48-32-54.6
					C301.2,370.3,345.4,308.2,94.2,206.6z"/>
			</g>
			<g>
				<path class="st12" d="M333.2,410.7c0,0,30.5,46.3,13.1,102.6l-7.8-2.1c0,0,7.6-62-8.3-93.2C314.2,386.8,333.2,410.7,333.2,410.7
					z"/>
			</g>
		</g>
	</g>
	<g>
		<g>
			<path class="st13" d="M426.7,287.5c0,0-93-52.1-49.6-122.8c0,0,34.7-43.4,71.9-54.6c0,0-19.8,105.4,0,107.9
				C468.8,220.6,462.6,99,462.6,99s98-47.1,136.4-43.4c0,0-60.8,102.9-40.9,100.5c19.8-2.5,88.1-106.7,88.1-106.7
				s100.5-18.6,116.6,40.9c16.1,59.5-9.9,89.3-24.8,93c-14.9,3.7-110.4,2.5-107.9,14.9c2.5,12.4,67,32.2,102.9,21.1
				c0,0-39.7,98-91.8,93c-52.1-5-68.2-37.2-100.5-39.7c-32.2-2.5-55.8,6.2-39.7,14.9c16.1,8.7,70.7,2.8,96.7,25
				c26,22.1,47.1,35.8-1.2,45.7c-48.4,9.9-135.2,3.7-152.6-33.5C426.7,287.5,426.7,287.5,426.7,287.5z"/>
		</g>
		<g>
			<g>
				<path class="st13" d="M716.9,108.9c0,0-260.5,84.3-290.2,178.6c0,0,1.2,42.2-24.8,90.5v18.6c0,0,27.3-63.3,42.2-71.9
					C444,324.8,385.7,242.9,716.9,108.9z"/>
			</g>
			<g>
				<path class="st13" d="M401.9,378.1c0,0-40.2,61-17.3,135.2l10.3-2.8c0,0-10-81.8,11-122.9C426.9,346.5,401.9,378.1,401.9,378.1z
					"/>
			</g>
		</g>
	</g>
	<g>
		<path class="st14" d="M423.5,674.3c100.6,0,182.2-81.6,182.2-182.2H241.3C241.3,592.8,322.9,674.3,423.5,674.3z"/>
	</g>
	<g>
		<path class="st14" d="M608.2,683.6H238.8l0,0c0-12.4,10.1-22.5,22.5-22.5h324.5C598.2,661.1,608.2,671.2,608.2,683.6L608.2,683.6z
			"/>
	</g>
	<g>
		<rect x="235.3" y="492.1" class="st15" width="374.6" height="5.6"/>
	</g>
</g>
</svg>
