<?xml version="1.0" encoding="utf-8"?>
<!-- Generator: Adobe Illustrator 22.1.0, SVG Export Plug-In . SVG Version: 6.00 Build 0)  -->
<svg version="1.1" id="_x2018_лой_x5F_1" xmlns="http://www.w3.org/2000/svg" xmlns:xlink="http://www.w3.org/1999/xlink"
	 x="0px" y="0px" viewBox="0 0 523.5 730.3" style="enable-background:new 0 0 523.5 730.3;" xml:space="preserve">
<style type="text/css">
	.st0{fill:#EBF3FA;}
	.st1{fill:#233862;}
	.st2{fill:#82B378;}
	.st3{fill:#A8D29F;}
	.st4{fill:#FFB27D;}
	.st5{fill:#E58638;}
	.st6{fill:#F99746;}
	.st7{fill:#152949;}
	.st8{fill:#ED975D;}
	.st9{fill:#8C9DF4;}
	.st10{fill:#707FE5;}
	.st11{fill:#BBD0FF;}
	.st12{fill:#AEC3FF;}
	.st13{fill:#D2E0FF;}
	.st14{fill:#C0D4FF;}
	.st15{fill:#86A2E2;}
	.st16{fill:#214C7F;}
	.st17{fill:#FCA56B;}
	.st18{fill:#163560;}
	.st19{fill:#FFFFFF;}
	.st20{fill:#6C7AFF;}
	.st21{fill:#2C3A64;}
	.st22{fill:#2B478B;}
	.st23{fill:#ED985F;}
	.st24{opacity:0.5;}
	.st25{fill:#798EE8;}
	.st26{fill:#849DEF;}
	.st27{fill:#505ABA;}
	.st28{fill:#5E6ECC;}
	.st29{fill:#3D4CA5;}
	.st30{fill:#ED7B2E;}
	.st31{fill:#739AF0;}
	.st32{fill:#1F3B72;}
	.st33{fill:#F77D48;}
	.st34{fill:#ED917E;}
	.st35{fill:#B3C2FF;}
	.st36{fill:#ED7D2B;}
	.st37{fill:#FF8939;}
	.st38{fill:#6B80DD;}
	.st39{fill:#A4B5FF;}
</style>
<g>
	<g>
		<path class="st5" d="M328.7,205.1c-1.8-6.1-2.7-6.6-2.7-6.6s-56.9,7.1-66.6,6.5c-5.7-0.4-74.1-23.2-74.1-23.2l-41.5,39.8
			c0,0,102.9,17,117.4,15.8c24-1.8,60.6-23,60.6-23S330.1,209.8,328.7,205.1z"/>
	</g>
	<g>
		<path class="st16" d="M173.2,659.3c0,0,0.8,19.3,4.5,24l51.5,0.3c-0.4-2-0.6-6.6-7.7-7.8c-9-1.6-19.6-7.8-25-19.7
			C190.7,643.5,173.2,659.3,173.2,659.3z"/>
	</g>
	<g>
		<path class="st16" d="M72.1,656.6c0,0-3.6,25.6,1.3,26.1c0.6,0.1,20.8,0.4,29.5,0.5c10.2,0.2,27.1-0.2,27.1-0.2
			c2.1,0.1,3.5-2.2,2.4-4c-1.2-2-3.4-4.1-7.7-5c-9-1.7-23.9-8.3-29.2-20.3C89.9,641,72.1,656.6,72.1,656.6z"/>
	</g>
	<g>
		<path class="st10" d="M199.9,394c0,0-14.3,50.1-55.4,137.2c-41.1,87-42.8,129-42.8,129s-6.2,2.2-14.5,1.3
			c-8.9-1-15.2-4.9-15.2-4.9S74.7,553,94.1,509c19.4-43.9,23.3-164.1,23.3-164.1L199.9,394z"/>
	</g>
	<g>
		<path class="st9" d="M222.9,350.9c0,0,1.1,77.6-12.3,172.9c-13.4,95.3-7.1,139.6-7.1,139.6s-3.6,2.6-14.5,2.5
			c-12.8-0.1-19.4-5.3-19.4-5.3s-19.2-95.3-13.7-143c5.5-47.7-26.3-163.7-26.3-163.7L222.9,350.9z"/>
	</g>
	<g>
		<path class="st4" d="M191.7,157.4c-0.1,6.1-0.9,12.7-3.4,16l-13.7,7.2l-15.2-11.2c0,0,5.5-12.3,4.2-30.3c-0.1-1.1-0.7-8-0.7-8.1
			l7.6,3.8l20.6,10.3c0,0,0,0.4,0.1,0.9C191.5,148,191.7,152.4,191.7,157.4z"/>
	</g>
	<g>
		<path class="st6" d="M116,360.5c5,22.7,111.1,12.7,109.7-1.1c-0.1-0.5-0.3-6.9-0.7-15.5c-0.8-18.7-2-47.9-2.2-50.2
			c0,0,0-0.1,0-0.1c-1.9-19.3-3.7-38.1-3.9-50.5c-0.1-10.7-1.6-21.6-3.5-31.5c-1.8-9.2-4-17.5-5.9-23.9c-1.4-4.6-3.9-8.6-7.2-11.7
			c-2.4-2.2-5.2-4-8.3-5.3c-0.8-0.4-1.7-0.6-2.6-0.9c-12.5-3.6-25.1-8.2-29.8-6.9c-12.7,3.7-26.8,26.2-33.5,54.7
			C115.7,270.8,112.8,345.7,116,360.5z"/>
	</g>
	<g>
		<path class="st17" d="M191.7,157.4c-7.7-3.1-22.5-10.2-26.5-18.1c-1.8-3.5,0.9-4.6,5.4-4.6l20.6,10.3c0,0,0,0.4,0.1,0.9
			C191.5,148,191.7,152.4,191.7,157.4z"/>
	</g>
	<g>
		<path class="st4" d="M201.1,143.7c0,0-36.9,11.5-43.8-11.6c-6.8-23.1-16.2-37.2,7.1-45.5c23.3-8.3,30.5-0.9,34.7,6.3
			C203.3,100,210.5,140.1,201.1,143.7z"/>
	</g>
	<g>
		<path class="st18" d="M197.7,90.6c0,0-2.4,26.9-7.9,25.7c-5.6-1.2-10.6-2-9.8,6.1c0.8,8.1,1.1,17.9-16.1,19.3
			c-17.1,1.4-34.3-43.2-29.6-51.5C147.9,66.1,217.3,61.2,197.7,90.6z"/>
	</g>
	<g>
		<path class="st5" d="M225,343.8c-0.8-18.7-2-47.9-2.2-50.2c0,0,0-0.1,0-0.1l-62.7-37.5C160.1,256.1,157.7,343.6,225,343.8z"/>
	</g>
	<g>
		<g>
			<g>
				<path class="st18" d="M441.4,46.7l11.3,9.8c0,0-19.4,20.7-17.6,42.6l-28.9,24.4l-23.9-20.8l20-33.2
					C402.3,69.4,423.7,68.6,441.4,46.7z"/>
			</g>
			<g>
				<path class="st19" d="M412,82.1c2.3-2.7,6.4-3,9.1-0.6c2.7,2.3,3,6.4,0.6,9.1c-2.3,2.7-6.4,3-9.1,0.6
					C410,88.9,409.7,84.8,412,82.1z"/>
			</g>
			<g>
				
					<rect x="428.8" y="45.2" transform="matrix(0.7543 0.6565 -0.6565 0.7543 152.4223 -264.83)" class="st19" width="2.5" height="52"/>
			</g>
		</g>
		<g>
			
				<rect x="375.7" y="112.1" transform="matrix(0.7544 0.6564 -0.6564 0.7544 172.3625 -228.5584)" class="st20" width="31.8" height="8"/>
		</g>
		<g>
			<path class="st18" d="M138.9,407.6l-1.2-1c-6.3-5.5-7-15-1.5-21.3L377,108.6l24,20.8L160.3,406.2
				C154.8,412.4,145.2,413.1,138.9,407.6z"/>
		</g>
	</g>
	<g>
		<path class="st4" d="M274.4,264.6c0,0,4.6-4.1,5.7-6.9c0.4-1,3.5-5.4,8.9-5.1c4.9,0.4,13.7-10.1,13.7-10.1
			c1.3,2.8,5.7,13.2-0.6,18.4c-5.1,4.3-17.4,11.7-24.9,16.6C269.1,282.8,274.4,264.6,274.4,264.6z"/>
	</g>
	<g>
		<path class="st6" d="M275,263.1c0,0-62.2,10.6-67.7,7.9c-8.8-4.3,3.4-67.4,3.4-67.4s0.5-14.3-16.2-17.7
			c-14.5-2.9-28.5,7.9-28.5,7.9s-12.7,11.4-11.1,24c3.6,28,9.2,85,28,93.8c24.2,11.3,94.1-31.3,94.1-31.3s2.3-2.9,2-8.2
			C278.7,267.5,275,263.1,275,263.1z"/>
	</g>
	<g>
		<path class="st4" d="M331.3,209.6c0,0,15.7-5.7,14.3-13.8c-1.4-8-6.3-7-9.2-4.2C333.4,194.4,335.1,208.6,331.3,209.6z"/>
	</g>
	<g>
		<path class="st4" d="M279,260.5c0,0,2.1-6.3,4.4-9c2.3-2.7,3.3-7.3,4.3-5.7c1,1.5-0.8,7,0,9.1C288.6,256.9,279,260.5,279,260.5z"
			/>
	</g>
</g>
</svg>
