<svg id="Layer_1" data-name="Layer 1" xmlns="http://www.w3.org/2000/svg" viewBox="0 0 1200 1200"><defs><style>.cls-1{fill:#ffcc57;}.cls-2{fill:#f5b22f;}.cls-3{fill:#53aae5;}.cls-4{fill:#2f81a7;}.cls-5{fill:#534766;}.cls-6{fill:#594a47;}.cls-7{fill:#645478;}.cls-8{fill:#847199;}.cls-9{fill:#edc5be;}.cls-10{fill:#756088;}.cls-11{fill:#d8aa8b;}.cls-12{fill:#efc09e;}.cls-13{fill:#935837;}.cls-14{fill:#b58768;}.cls-15{fill:#dd905b;}.cls-16{fill:#fff;}.cls-17{fill:#ededed;}.cls-18{fill:#e5e5e4;}.cls-19{fill:#d6d6d6;}</style></defs><title>Graphic-Illustrasi-Agustriana2</title><polygon class="cls-1" points="363.04 946.81 379.84 980.85 417.4 986.31 390.22 1012.81 396.64 1050.23 363.04 1032.56 329.43 1050.23 335.85 1012.81 308.67 986.31 346.24 980.85 363.04 946.81"/><polygon class="cls-2" points="308.67 986.31 363.04 998.52 363.04 946.81 346.24 980.85 308.67 986.31"/><polygon class="cls-2" points="335.85 1012.81 363.04 998.52 329.43 1050.23 335.85 1012.81"/><polygon class="cls-2" points="417.4 986.31 363.04 998.52 396.64 1050.23 390.22 1012.81 417.4 986.31"/><polygon class="cls-1" points="481.52 946.81 498.32 980.85 535.89 986.31 508.7 1012.81 515.12 1050.23 481.52 1032.56 447.92 1050.23 454.33 1012.81 427.15 986.31 464.72 980.85 481.52 946.81"/><polygon class="cls-2" points="427.15 986.31 481.52 998.52 481.52 946.81 464.72 980.85 427.15 986.31"/><polygon class="cls-2" points="454.33 1012.81 481.52 998.52 447.92 1050.23 454.33 1012.81"/><polygon class="cls-2" points="535.89 986.31 481.52 998.52 515.12 1050.23 508.7 1012.81 535.89 986.31"/><polygon class="cls-1" points="600 946.81 616.8 980.85 654.37 986.31 627.18 1012.81 633.6 1050.23 600 1032.56 566.4 1050.23 572.82 1012.81 545.63 986.31 583.2 980.85 600 946.81"/><polygon class="cls-2" points="545.63 986.31 600 998.52 600 946.81 583.2 980.85 545.63 986.31"/><polygon class="cls-2" points="572.82 1012.81 600 998.52 566.4 1050.23 572.82 1012.81"/><polygon class="cls-2" points="654.37 986.31 600 998.52 633.6 1050.23 627.18 1012.81 654.37 986.31"/><polygon class="cls-1" points="718.48 946.81 735.28 980.85 772.85 986.31 745.67 1012.81 752.08 1050.23 718.48 1032.56 684.88 1050.23 691.3 1012.81 664.11 986.31 701.68 980.85 718.48 946.81"/><polygon class="cls-2" points="664.11 986.31 718.48 998.52 718.48 946.81 701.68 980.85 664.11 986.31"/><polygon class="cls-2" points="691.3 1012.81 718.48 998.52 684.88 1050.23 691.3 1012.81"/><polygon class="cls-2" points="772.85 986.31 718.48 998.52 752.08 1050.23 745.67 1012.81 772.85 986.31"/><polygon class="cls-1" points="836.97 946.81 853.76 980.85 891.33 986.31 864.15 1012.81 870.57 1050.23 836.97 1032.56 803.36 1050.23 809.78 1012.81 782.6 986.31 820.16 980.85 836.97 946.81"/><polygon class="cls-2" points="782.6 986.31 836.97 998.52 836.97 946.81 820.16 980.85 782.6 986.31"/><polygon class="cls-2" points="809.78 1012.81 836.97 998.52 803.36 1050.23 809.78 1012.81"/><polygon class="cls-2" points="891.33 986.31 836.97 998.52 870.57 1050.23 864.15 1012.81 891.33 986.31"/><path class="cls-3" d="M753.07,701.05H449.22c-27.68,0-49-19.14-45.24-40.61l29.15-166.58c4.4-25.28,28.06-45.93,59.75-52.07l47.8-9.28,22.84-4.44H637.6l22.71,4.37,48.94,9.42C741,448,764.77,468.61,769.17,494l29.15,166.47C802.08,681.91,780.76,701.05,753.07,701.05Z"/><path class="cls-4" d="M543.25,701.05h-94c-27.68,0-49-19.14-45.24-40.61l29.15-166.58c4.4-25.28,28.06-45.93,59.75-52.07l47.8-9.28C524.82,502.15,533.75,619.39,543.25,701.05Z"/><path class="cls-4" d="M657.56,701.05c9.29-81.17,18-197.63,2.74-268.6h0l48.94,9.42C741,448,764.77,468.61,769.17,494l29.15,166.47c3.76,21.48-17.56,40.62-45.25,40.62Z"/><path class="cls-5" d="M421,710.75H779.51a0,0,0,0,1,0,0v59.83a96.6,96.6,0,0,1-96.6,96.6H517.56A96.59,96.59,0,0,1,421,770.58V710.75A0,0,0,0,1,421,710.75Z"/><path class="cls-6" d="M429.93,825.41c-21.49.51-51.56,3.65-66.9,18.71-9.6,9.43-14.92,22.73-16,36.15-.76,9.67.76,19.94,6.6,27.68a36,36,0,0,0,14.74,11c23.8,10.19,57.77,0,81.6-10.09l66.52-28.21c3.46-1.46,7-3,9.8-5.46,7.63-6.77,4.05-18,2-28C517.38,794.7,461.24,824.67,429.93,825.41Z"/><path class="cls-7" d="M851.21,738.9,845,720.71a35.81,35.81,0,0,0-45.45-22.31L511.29,796.8,481.43,807l29.34,85.95,30.1-10.27,288-98.3A35.82,35.82,0,0,0,851.21,738.9Z"/><path class="cls-8" d="M481.43,807l29.34,85.95,30.1-10.27c-13.38-25.93-20.34-58.07-29.58-85.85Z"/><path class="cls-9" d="M405.43,857.44a69.9,69.9,0,0,1,10,34.34c.14,4.93,7.82,5,7.68,0a78.25,78.25,0,0,0-11.05-38.21c-2.52-4.25-9.16-.39-6.63,3.87Z"/><path class="cls-9" d="M432.5,851.13A31.63,31.63,0,0,1,442.82,884c-1.28,4.78,6.12,6.82,7.4,2a39.29,39.29,0,0,0-12.29-40.29c-3.74-3.2-9.19,2.21-5.43,5.43Z"/><path class="cls-9" d="M460.27,844c11.23,7,10.21,21.45,9.34,33-.37,4.93,7.31,4.9,7.68,0,1.1-14.67.69-30.94-13.15-39.6-4.2-2.63-8.06,4-3.87,6.63Z"/><path class="cls-7" d="M365.75,858.74a50.55,50.55,0,0,0,11,51.6c4.5,4.83,11.73-2.42,7.24-7.24-10.65-11.46-13.54-27-8.35-41.64,2.2-6.22-7.68-8.9-9.87-2.72Z"/><path class="cls-6" d="M770.07,825.41c21.49.51,51.56,3.65,66.9,18.71,9.6,9.43,14.92,22.73,16,36.15.76,9.67-.76,19.94-6.6,27.68a36,36,0,0,1-14.74,11c-23.8,10.19-57.77,0-81.6-10.09l-66.52-28.21c-3.46-1.46-7-3-9.8-5.46-7.63-6.77-4.05-18-2-28C682.62,794.7,738.76,824.67,770.07,825.41Z"/><path class="cls-10" d="M688.71,796.8,400.45,698.4A35.81,35.81,0,0,0,355,720.71l-6.21,18.19a35.82,35.82,0,0,0,22.35,45.45l288,98.3,30.1,10.27L718.57,807Z"/><path class="cls-8" d="M718.57,807l-29.34,85.95-30.1-10.27c13.38-25.93,20.34-58.07,29.58-85.85Z"/><path class="cls-9" d="M732.51,879.26a56.89,56.89,0,0,1,8.59-36.63c2.63-4.2-4-8.06-6.63-3.88a63.82,63.82,0,0,0-9.64,40.51c.47,4.87,8.15,4.92,7.68,0Z"/><path class="cls-9" d="M754.5,882.63a50.28,50.28,0,0,1,8.9-33.49c2.8-4.09-3.85-7.93-6.63-3.88a57.07,57.07,0,0,0-9.95,37.37c.4,4.89,8.08,4.93,7.68,0Z"/><path class="cls-9" d="M779.44,891.78c-1-12.21-2.08-26.14,6.14-36.29,3.09-3.8-2.31-9.27-5.43-5.43-9.72,12-9.56,27-8.38,41.72.39,4.89,8.07,4.94,7.67,0Z"/><path class="cls-7" d="M817.55,907.34c22-8.7,15.12-37.91,3.36-52.18-4.19-5.09-11.4,2.19-7.24,7.24,6.2,7.51,14.84,29.65,1.16,35.07-6.05,2.4-3.41,12.3,2.72,9.87Z"/><path class="cls-11" d="M571.68,385.08v44.36c0,14.79,13,26.78,29,26.78s29-12,29-26.78V385.08Z"/><ellipse class="cls-12" cx="601.84" cy="296.08" rx="79.62" ry="113.74"/><path class="cls-13" d="M537.73,250.43c8.1-20,24-33.35,41.8-23.88,4.66,2.48,15.38,6.15,20.55,7.25,11.92,2.52,22.56-10,34.71-9.29,11.61.7,18.78,12.69,23.27,23.41,7.55,18.08,8.78,40.5,14.45,65.21,21.26,4.78,21-53.89,18.2-86.16-2-22.7-19.48-44.63-42.89-54.41-10.64-4.45-41.41-6.57-52.94-6.15-17.22.62-27.85.43-29.53-16.64-7.51,4.73-16.19,13.67-13.61,21.86-11.64,1.81-19.25,5.75-27.35,14.3-18.92,20-19,63.9-18.92,70.62.2,19.35.74,20.12,3.84,39.53,2.85,17.83,7.05,31.76,19.38,45C529.68,322.94,533.22,261.58,537.73,250.43Z"/><path class="cls-12" d="M538.51,314.9c5.31,17.1,2.32,33.23-6.68,36s-20.6-8.8-25.91-25.9-2.31-33.23,6.69-36S533.21,297.81,538.51,314.9Z"/><ellipse class="cls-12" cx="679.18" cy="319.96" rx="32.42" ry="17.06" transform="translate(172.29 873.78) rotate(-72.76)"/><path class="cls-13" d="M551.94,279.18c8.41-6,19.3-8.52,28.42-2.54,2.77,1.81,5.33-2.62,2.59-4.42-10.54-6.9-23.75-4.43-33.59,2.54-2.67,1.89-.12,6.33,2.58,4.42Z"/><path class="cls-13" d="M617.68,274c6.35-7.06,20.92-5.71,27.17.65,2.32,2.35,5.94-1.27,3.62-3.62-8.12-8.26-26.21-9.77-34.41-.65-2.19,2.44,1.41,6.07,3.62,3.62Z"/><path class="cls-14" d="M567,305.46c11,0,11-17.07,0-17.07s-11,17.07,0,17.07Z"/><path class="cls-14" d="M629.59,303.18h1.14c4.46,0,8.74-3.92,8.53-8.53a8.68,8.68,0,0,0-8.53-8.53h-1.14c-4.46,0-8.73,3.92-8.53,8.53a8.68,8.68,0,0,0,8.53,8.53Z"/><path class="cls-15" d="M596.89,294.65c-2.87,1.43-5.15,37.53-4.83,44.5,7.39,1.47,25.44.43,25.35-1.85C617.34,335.63,596.89,294.65,596.89,294.65Z"/><path class="cls-16" d="M565.4,356.8c-1.09,3.43,13.58,22.59,35.75,22.59,26.49,0,34.4-18.87,35.27-23.89C624.47,356.49,565.4,356.8,565.4,356.8Z"/><path class="cls-15" d="M526.64,318c-4.59.25-6.85,4.2-6.77,8.44a10.33,10.33,0,0,0,6.89,9.73c2,.83,2.91-2.47.9-3.29a6.68,6.68,0,0,1-4.35-5.92c-.19-2.32.41-5.39,3.33-5.55,2.19-.11,2.2-3.52,0-3.41Z"/><path class="cls-15" d="M526.73,308.2a20,20,0,0,0-10.86-5.46c-4.64-.76-6.59,2.35-6.5,6.67.05,2.19,3.46,2.2,3.41,0s.22-3.49,2.86-3.25a12.32,12.32,0,0,1,3,.89,15.35,15.35,0,0,1,5.71,3.56c1.51,1.6,3.92-.81,2.42-2.41Z"/><path class="cls-15" d="M675.27,319.38c2.81.11,3.78,3.59,3.73,6,0,1.27-1.39,5-3,5.09-2.18.13-2.19,3.54,0,3.41,3.74-.22,6.46-5.18,6.46-8.5,0-4.51-2.22-9.22-7.15-9.41-2.2-.09-2.19,3.32,0,3.41Z"/><path class="cls-15" d="M676.91,308.65c.83-2.09,3.42-3.53,5.37-4.29a10.05,10.05,0,0,1,4.71-.92c2.26.34,2.17,2.45,1.73,4.25-.52,2.13,2.77,3,3.29.91,1.31-5.4-1.52-9.16-7.17-8.41-4.44.6-9.48,3.18-11.22,7.55-.81,2,2.49,2.93,3.29.91Z"/><path class="cls-17" d="M769.76,494.62H430.24a9.28,9.28,0,0,0-9.28,9.27V690.06H779V503.89A9.28,9.28,0,0,0,769.76,494.62Z"/><path class="cls-18" d="M421,690.06v32.81a8.56,8.56,0,0,0,8.56,8.56h341a8.56,8.56,0,0,0,8.56-8.56V690.06Z"/><rect class="cls-19" x="420.96" y="690.06" width="358.07" height="11.41"/><path class="cls-16" d="M728.34,530.65l15.92,15.92c4.67,4.66,11.91-2.57,7.24-7.24q-8-8-15.92-15.92c-4.67-4.67-11.91,2.57-7.24,7.24Z"/><path class="cls-16" d="M699.9,539.74,734,573.87c4.66,4.66,11.9-2.58,7.23-7.24l-34.12-34.12c-4.66-4.67-11.9,2.57-7.24,7.23Z"/><path class="cls-16" d="M668.06,554.53l56.87,56.87c4.66,4.66,11.9-2.57,7.23-7.24l-56.87-56.87c-4.66-4.66-11.9,2.57-7.23,7.24Z"/><path class="cls-16" d="M656.68,588.65,676,608c4.66,4.66,11.9-2.57,7.24-7.24l-19.34-19.34c-4.66-4.66-11.9,2.58-7.24,7.24Z"/></svg>