<svg xmlns="http://www.w3.org/2000/svg" viewBox="0 0 750 500"><defs><style>.cls-1{fill:#fff6d9;}.cls-2{fill:#fff;}.cls-3{fill:#ebebeb;}.cls-4{fill:#e0e0e0;}.cls-5{fill:#f5f5f5;}.cls-6{fill:#1f1d36;}.cls-7{fill:#fafafa;}.cls-8{fill:#ffab4c;}.cls-9{opacity:0.5;}.cls-10{opacity:0.6;}.cls-11{opacity:0.7;}.cls-12{opacity:0.8;}.cls-13{opacity:0.1;}.cls-14{opacity:0.2;}.cls-15{opacity:0.3;}.cls-16{opacity:0.4;}.cls-17{fill:#272642;}.cls-18{fill:#ffbe9d;}.cls-19{fill:#eb996e;}</style></defs><title>Illustrasi</title><g id="Day_Graphic" data-name="Day Graphic"><path class="cls-1" d="M77.79,447.1c48.92,47.91,129.5-35,309-19.5,128.58,11.11,174.46,61.21,228,27,57.8-36.94,67.31-135.61,49.5-202.49C634.77,141.36,523.7,92.82,479.77,73.62c-39.88-17.43-89.77-40.45-154.49-33-131.91,15.2-201.81,141-216,166.49C76.28,266.52,26.33,396.7,77.79,447.1Z"/><rect class="cls-2" x="549.48" y="272.71" width="40.99" height="49.84" transform="translate(-66.75 207.97) rotate(-19.56)"/><rect class="cls-3" x="547.35" y="273.07" width="40.99" height="37.09" transform="translate(-64.86 206.91) rotate(-19.56)"/><path class="cls-4" d="M580.56,311.23c0,.07-4.95,1.9-11.11,4.09s-11.18,3.9-11.21,3.83,5-1.9,11.11-4.09S580.53,311.15,580.56,311.23Z"/><path class="cls-4" d="M568.79,318.11A47.63,47.63,0,0,1,564,320a49.5,49.5,0,0,1-4.89,1.59,47.63,47.63,0,0,1,4.8-1.85A49.5,49.5,0,0,1,568.79,318.11Z"/><path class="cls-4" d="M597.63,314.25l-.09-.22-.24-.66-.92-2.54c-.8-2.23-2-5.48-3.44-9.6l-12.11-33.9.16.07-38.62,13.73h0l.08-.17c6.17,17.37,11.9,33.53,16.67,47l-.15-.07L587,318l7.84-2.75,2.07-.73.72-.24-.69.26-2,.74-7.8,2.8-28.05,10-.11,0,0-.11-16.71-47,0-.13.13-.05h0l38.62-13.7.12,0,0,.11c5,14,9.1,25.76,12,34,1.45,4.12,2.59,7.36,3.37,9.59.39,1.1.69,1.95.89,2.53.09.28.17.49.22.65S597.63,314.25,597.63,314.25Z"/><path class="cls-5" d="M392.22,359.74v33.53h-5.59v3.63h5.59v22.44H496.85V398.93H489.1v-4.45h7.75v-6.67h3.45v-3h-4.09v-25Z"/><polygon class="cls-4" points="469.07 359.84 469.07 418.97 496.85 418.97 496.85 398.55 489.1 398.55 489.1 394.48 496.85 394.62 496.85 387.94 500.36 387.95 500.3 384.5 496.21 384.4 496.21 359.74 469.07 359.84"/><path class="cls-4" d="M471.05,396.42c0,.21-18.94.37-42.29.37s-42.28-.16-42.28-.37,18.93-.37,42.28-.37S471.05,396.22,471.05,396.42Z"/><path class="cls-4" d="M471.05,393c0,.2-18.94.37-42.29.37s-42.28-.17-42.28-.37,18.93-.37,42.28-.37S471.05,392.81,471.05,393Z"/><path class="cls-4" d="M476.48,383.85c0,.21-18.93.37-42.28.37s-42.29-.16-42.29-.37,18.93-.37,42.29-.37S476.48,383.65,476.48,383.85Z"/><path class="cls-4" d="M477,408.83c0,.2-18.93.37-42.28.37s-42.29-.17-42.29-.37,18.93-.37,42.29-.37S477,408.62,477,408.83Z"/><rect class="cls-2" x="171.79" y="256.35" width="40.99" height="49.84" transform="translate(37.08 -22.04) rotate(7.26)"/><rect class="cls-3" x="172.6" y="256.4" width="40.99" height="37.09" transform="translate(36.29 -22.19) rotate(7.26)"/><path class="cls-4" d="M195.59,298.18c0,.07-5.27-.54-11.76-1.36s-11.74-1.56-11.73-1.63,5.28.53,11.77,1.35S195.6,298.1,195.59,298.18Z"/><path class="cls-4" d="M182,299a46,46,0,0,1-5.12-.51,46.64,46.64,0,0,1-5.09-.79,50.9,50.9,0,0,1,5.12.52A48.27,48.27,0,0,1,182,299Z"/><path class="cls-4" d="M209.46,308.58l0-.24c0-.16,0-.39.08-.69.07-.62.18-1.52.33-2.69.29-2.34.71-5.77,1.25-10.11,1.09-8.69,2.64-21,4.49-35.73l.11.14-40.66-5.16h0l.15-.12c-2.34,18.28-4.51,35.28-6.32,49.44l-.1-.13,29.48,3.81,8.24,1.08,2.17.29.75.11-.73-.08-2.15-.26-8.22-1-29.57-3.7-.11,0v-.11c1.8-14.16,4-31.17,6.28-49.45v-.14l.14,0h0L215.78,259l.12,0,0,.12c-1.9,14.73-3.49,27.09-4.62,35.79-.56,4.33-1,7.74-1.31,10.08-.16,1.16-.28,2.05-.36,2.66l-.09.68A1.73,1.73,0,0,1,209.46,308.58Z"/><rect class="cls-5" x="118.88" y="237.92" width="40.99" height="49.84" transform="translate(-32.24 19.82) rotate(-7.29)"/><rect class="cls-4" x="118.07" y="237.97" width="40.99" height="37.09" transform="translate(-31.44 19.67) rotate(-7.29)"/><path class="cls-4" d="M146.82,278.37c0,.08-5.24.81-11.72,1.64s-11.75,1.44-11.76,1.37,5.24-.81,11.72-1.64S146.81,278.3,146.82,278.37Z"/><path class="cls-4" d="M133.87,282.6a49.75,49.75,0,0,1-5.09.79,50.9,50.9,0,0,1-5.12.52,46.64,46.64,0,0,1,5.09-.79A44.5,44.5,0,0,1,133.87,282.6Z"/><path class="cls-4" d="M162.87,285s0-.09,0-.24-.06-.39-.1-.69c-.08-.62-.2-1.51-.36-2.68-.3-2.35-.75-5.77-1.32-10.11-1.13-8.68-2.73-21-4.63-35.71l.13.11-40.64,5.22h0l.12-.16c2.33,18.28,4.5,35.29,6.31,49.45l-.13-.1,29.49-3.72,8.24-1,2.18-.27.76-.08-.73.1-2.15.29-8.22,1.08-29.54,3.84-.12,0v-.12c-1.82-14.15-4-31.15-6.35-49.43l0-.14.14,0h0l40.65-5.19h.12l0,.12c1.86,14.73,3.42,27.1,4.52,35.8.54,4.34,1,7.75,1.26,10.09.14,1.16.25,2.05.32,2.66,0,.3.06.52.08.68Z"/><rect class="cls-2" x="148.15" y="224.13" width="40.99" height="49.84" transform="translate(61.6 -32.03) rotate(13.26)"/><rect class="cls-3" x="149.61" y="224.3" width="40.99" height="37.09" transform="translate(60.22 -32.54) rotate(13.26)"/><path class="cls-4" d="M170.17,266.21c0,.08-5.19-1.08-11.56-2.58s-11.51-2.77-11.49-2.85,5.19,1.08,11.56,2.58S170.18,266.14,170.17,266.21Z"/><path class="cls-4" d="M156.55,265.62a49,49,0,0,1-5-1,48.45,48.45,0,0,1-5-1.32,47.09,47.09,0,0,1,5,1.05A49.22,49.22,0,0,1,156.55,265.62Z"/><path class="cls-4" d="M182.88,278s0-.09,0-.24.09-.38.16-.68c.14-.6.34-1.49.6-2.63.54-2.31,1.32-5.67,2.31-9.94l8.19-35.06.1.15-39.9-9.38h0l.17-.1c-4.24,17.93-8.18,34.62-11.46,48.51l-.08-.14,28.92,6.87L180,277.3l2.13.52.74.19-.72-.16-2.12-.48L172,275.5l-29-6.78-.12,0,0-.12c3.26-13.89,7.19-30.58,11.41-48.52l0-.13.13,0h0l39.88,9.41.12,0,0,.12c-3.42,14.44-6.3,26.58-8.33,35.11-1,4.25-1.81,7.59-2.36,9.89-.28,1.13-.49,2-.63,2.6l-.17.67C182.9,277.94,182.88,278,182.88,278Z"/><path class="cls-6" d="M615.58,419.77c0,.11-111,.2-247.9.2s-247.93-.09-247.93-.2,111-.2,247.93-.2S615.58,419.66,615.58,419.77Z"/><rect class="cls-7" x="524.49" y="158.88" width="108.37" height="35.7" rx="4.9" ry="4.9" transform="matrix(0.99, -0.13, 0.13, 0.99, -17.98, 76.24)"/><path class="cls-6" d="M526.62,196.57s0,.25.16.7a4.87,4.87,0,0,0,3.93,3.46,6.77,6.77,0,0,0,2.18-.09l2.48-.33,29.72-3.92,44.08-5.77L621.91,189l6.58-.86c.55-.07,1.12-.13,1.65-.23a4.69,4.69,0,0,0,1.52-.58,4.75,4.75,0,0,0,2-2.5,4.3,4.3,0,0,0,.27-1.63c0-.54-.11-1.12-.18-1.69-.15-1.13-.3-2.28-.45-3.43q-.45-3.43-.9-6.94-.91-7-1.85-14.17a4.76,4.76,0,0,0-4.84-4.14c-2.34.25-4.71.6-7,.89L605,155.46l-26,3.38-44.09,5.71-4.59.6-2.21.28a5.56,5.56,0,0,0-2,.55,4.8,4.8,0,0,0-2.49,3.06,10.11,10.11,0,0,0,.14,3.84c.63,5,1.19,9.28,1.64,12.79s.79,6.23,1,8.08c.11.92.2,1.63.26,2.1s.08.72.08.72,0-.24-.11-.71-.16-1.18-.29-2.1c-.25-1.85-.61-4.57-1.08-8.08s-1-7.8-1.69-12.78c-.08-.62-.17-1.26-.25-1.9a5.21,5.21,0,0,1,.1-2,5,5,0,0,1,2.58-3.2,5.7,5.7,0,0,1,2.11-.56l2.21-.29,4.59-.61,44.08-5.77,26-3.4,13.77-1.8c2.34-.29,4.66-.63,7.06-.89a5.05,5.05,0,0,1,5.15,4.4q.93,7.17,1.84,14.18.46,3.49.91,6.94c.15,1.14.3,2.29.44,3.43.07.57.17,1.12.19,1.72a4.84,4.84,0,0,1-.29,1.73,5.13,5.13,0,0,1-2.17,2.66,5.25,5.25,0,0,1-1.61.61c-.57.11-1.12.15-1.68.23l-6.58.86-12.74,1.65-44.08,5.72-29.73,3.82-2.49.32a7.15,7.15,0,0,1-2.2.07,4.94,4.94,0,0,1-3-1.67,4.73,4.73,0,0,1-1-1.87,3.58,3.58,0,0,1-.11-.53A1.23,1.23,0,0,1,526.62,196.57Z"/><rect class="cls-8" x="600.72" y="163.31" width="32.83" height="16.82" transform="translate(707.7 -462.43) rotate(82.58)"/><rect class="cls-8" x="577.1" y="166.39" width="32.83" height="16.82" transform="translate(690.18 -436.32) rotate(82.58)"/><rect class="cls-8" x="553.47" y="169.47" width="32.83" height="16.82" transform="translate(672.65 -410.22) rotate(82.58)"/><rect class="cls-8" x="529.85" y="172.54" width="32.83" height="16.82" transform="translate(655.13 -384.11) rotate(82.58)"/><g class="cls-9"><rect x="600.72" y="163.31" width="32.83" height="16.82" transform="translate(707.7 -462.43) rotate(82.58)"/></g><g class="cls-10"><rect x="577.1" y="166.39" width="32.83" height="16.82" transform="translate(690.18 -436.32) rotate(82.58)"/></g><g class="cls-11"><rect x="553.47" y="169.47" width="32.83" height="16.82" transform="translate(672.65 -410.22) rotate(82.58)"/></g><g class="cls-12"><rect x="529.85" y="172.54" width="32.83" height="16.82" transform="translate(655.13 -384.11) rotate(82.58)"/></g><rect class="cls-7" x="514.78" y="138.11" width="108.37" height="35.7" rx="5.2" ry="5.2" transform="translate(-8.18 278.24) rotate(-27.29)"/><path class="cls-6" d="M526.61,192.05l.1.15a3.9,3.9,0,0,0,.29.45,4.92,4.92,0,0,0,1.54,1.42,5.11,5.11,0,0,0,3.27.71,5.61,5.61,0,0,0,2.06-.68l2.21-1.16,26.57-13.76,39.42-20.37,11.39-5.89,5.89-3a8.16,8.16,0,0,0,2.74-1.8,5,5,0,0,0,1.24-3,4.77,4.77,0,0,0-.15-1.64,7.45,7.45,0,0,0-.66-1.55c-.53-1-1-2-1.58-3.06l-3.21-6.21L611.19,120a5,5,0,0,0-5.92-2.53,8.37,8.37,0,0,0-1.59.72l-1.58.81L599,120.57l-12.32,6.36-23.3,12-39.45,20.32-4.11,2.12-2,1a6.13,6.13,0,0,0-1.77,1.17,5.14,5.14,0,0,0-1.5,3.67,5.05,5.05,0,0,0,.37,1.89c.25.58.58,1.15.86,1.7l5.87,11.45,3.71,7.25c.42.82.74,1.45.95,1.88s.32.65.32.65-.12-.21-.34-.63l-1-1.88-3.75-7.21L515.6,170.9c-.28-.56-.59-1.1-.86-1.71a5.29,5.29,0,0,1,1.16-5.77,6.38,6.38,0,0,1,1.81-1.21l2-1,4.1-2.13,39.42-20.37,23.29-12,12.32-6.36,3.14-1.62,1.58-.81a8.81,8.81,0,0,1,1.65-.74,5.37,5.37,0,0,1,3.6.2,5.5,5.5,0,0,1,2.67,2.48L618,132.49l3.2,6.21,1.58,3.07a7.36,7.36,0,0,1,.69,1.6,5.12,5.12,0,0,1,.16,1.74,5.28,5.28,0,0,1-1.32,3.16,5.13,5.13,0,0,1-1.33,1.09c-.5.29-1,.52-1.49.78l-5.89,3-11.4,5.87-39.45,20.32-26.61,13.68-2.23,1.14a5.69,5.69,0,0,1-2.09.68,5.19,5.19,0,0,1-3.31-.75,4.77,4.77,0,0,1-1.53-1.45,3.12,3.12,0,0,1-.28-.46Z"/><rect class="cls-8" x="587.02" y="129.77" width="32.83" height="16.82" transform="translate(449.54 -461.44) rotate(62.71)"/><rect class="cls-8" x="565.85" y="140.69" width="32.83" height="16.82" transform="translate(447.78 -436.71) rotate(62.71)"/><rect class="cls-8" x="544.67" y="151.61" width="32.83" height="16.82" transform="translate(446.03 -411.98) rotate(62.71)"/><rect class="cls-8" x="523.5" y="162.54" width="32.83" height="16.82" transform="translate(444.27 -387.25) rotate(62.71)"/><g class="cls-13"><rect x="587.02" y="129.77" width="32.83" height="16.82" transform="translate(449.54 -461.44) rotate(62.71)"/></g><g class="cls-14"><rect x="565.85" y="140.69" width="32.83" height="16.82" transform="translate(447.78 -436.71) rotate(62.71)"/></g><g class="cls-15"><rect x="544.67" y="151.61" width="32.83" height="16.82" transform="translate(446.03 -411.98) rotate(62.71)"/></g><g class="cls-16"><rect x="523.5" y="162.54" width="32.83" height="16.82" transform="translate(444.27 -387.25) rotate(62.71)"/></g><rect class="cls-7" x="499.78" y="123.89" width="108.37" height="35.7" rx="5.37" ry="5.37" transform="translate(93.21 480.38) rotate(-50.67)"/><path class="cls-6" d="M529.27,191.57l.15.1c.11.06.24.19.45.3a5.38,5.38,0,0,0,5.27.16c1.25-.59,2.11-2,3.24-3.31l18.91-23.15,28.07-34.3,8.12-9.92,4.19-5.12a8.76,8.76,0,0,0,1.82-2.73,5.27,5.27,0,0,0,.06-3.24,5.36,5.36,0,0,0-1.89-2.68L595,105.5l-5.4-4.42-11-9a5.22,5.22,0,0,0-6.46-.12,6.84,6.84,0,0,0-1.21,1.25l-1.13,1.37-2.23,2.73L558.75,108l-16.6,20.25L514,162.49l-2.93,3.57-1.41,1.72a6.48,6.48,0,0,0-1.17,1.77,5.25,5.25,0,0,0-.05,4,5.15,5.15,0,0,0,1,1.64,17.06,17.06,0,0,0,1.43,1.25l9.92,8.16,6.27,5.18,1.63,1.35c.36.3.54.47.54.47l-.56-.45-1.65-1.33-6.3-5.12-10-8.13a15.5,15.5,0,0,1-1.45-1.27,5.26,5.26,0,0,1-1.06-1.69,5.44,5.44,0,0,1,0-4.1,6.74,6.74,0,0,1,1.2-1.83l1.4-1.72,2.93-3.57,28.07-34.31,16.59-20.26,8.77-10.71,2.24-2.73L570.65,93a7.43,7.43,0,0,1,1.27-1.3,5.41,5.41,0,0,1,3.43-1.12,5.5,5.5,0,0,1,3.41,1.25l11,9,5.4,4.43,2.67,2.18a5.64,5.64,0,0,1,2,2.82,5.58,5.58,0,0,1-.06,3.43,5.15,5.15,0,0,1-.82,1.51c-.34.46-.7.87-1.05,1.31-1.42,1.72-2.81,3.43-4.2,5.12l-8.12,9.9c-10.59,12.9-20.12,24.51-28.12,34.27l-19,23.09-1.59,1.92a5.27,5.27,0,0,1-1.71,1.39,5.42,5.42,0,0,1-3.36.53,5.07,5.07,0,0,1-2-.75A5.35,5.35,0,0,1,529.27,191.57Z"/><rect class="cls-8" x="562.13" y="103.33" width="32.83" height="16.82" transform="translate(201.88 -341.39) rotate(39.33)"/><rect class="cls-8" x="547.03" y="121.76" width="32.83" height="16.82" transform="translate(210.14 -327.64) rotate(39.33)"/><rect class="cls-8" x="531.93" y="140.19" width="32.83" height="16.82" transform="translate(218.4 -313.89) rotate(39.33)"/><rect class="cls-8" x="516.83" y="158.62" width="32.83" height="16.82" transform="translate(226.66 -300.15) rotate(39.33)"/><g class="cls-9"><rect class="cls-2" x="562.13" y="103.33" width="32.83" height="16.82" transform="translate(201.88 -341.39) rotate(39.33)"/></g><g class="cls-10"><rect class="cls-2" x="547.03" y="121.76" width="32.83" height="16.82" transform="translate(210.14 -327.64) rotate(39.33)"/></g><g class="cls-11"><rect class="cls-2" x="531.93" y="140.19" width="32.83" height="16.82" transform="translate(218.4 -313.89) rotate(39.33)"/></g><g class="cls-12"><rect class="cls-2" x="516.83" y="158.62" width="32.83" height="16.82" transform="translate(226.66 -300.15) rotate(39.33)"/></g><rect class="cls-7" x="478.75" y="118.12" width="108.37" height="35.7" rx="4.99" ry="4.99" transform="translate(245.85 605.11) rotate(-72.85)"/><path class="cls-6" d="M529.25,191.54s.23.07.7.14a4.76,4.76,0,0,0,2.09-.13,5,5,0,0,0,2.73-1.94,6.4,6.4,0,0,0,.86-2c.22-.75.47-1.55.73-2.39,2.07-6.77,5.08-16.55,8.79-28.64l13.07-42.47L562,101.84c.64-2.09,1.3-4.2,2-6.34.16-.53.35-1.07.48-1.6a4.64,4.64,0,0,0,.12-1.62,4.77,4.77,0,0,0-2.72-3.88,12.54,12.54,0,0,0-1.6-.56l-3.3-1-6.68-2.06-13.66-4.21a4.85,4.85,0,0,0-5.83,2.61,17.21,17.21,0,0,0-.56,1.67l-.52,1.7-1,3.38q-2.07,6.74-4.09,13.26l-7.75,25.07c-4.94,16-9.4,30.37-13.13,42.45-.47,1.51-.93,3-1.37,4.42q-.35,1.08-.66,2.13a5.67,5.67,0,0,0-.38,2.09,4.93,4.93,0,0,0,1.7,3.57,9.23,9.23,0,0,0,3.51,1.52l12.31,3.83,7.77,2.43,2,.63.69.23-.7-.2-2-.61-7.79-2.37-12.32-3.78-1.83-.56a5,5,0,0,1-1.75-1,5.12,5.12,0,0,1-1.77-3.7,5.93,5.93,0,0,1,.38-2.16c.21-.7.43-1.41.65-2.13.44-1.43.9-2.91,1.36-4.42l13.07-42.47c2.47-8,5.05-16.38,7.73-25.07q2-6.53,4.1-13.27c.34-1.12.69-2.25,1-3.38l.52-1.7c.19-.56.33-1.14.58-1.71a5.11,5.11,0,0,1,2.56-2.54,5.17,5.17,0,0,1,3.63-.23l13.66,4.21L557,86.54l3.3,1a11.4,11.4,0,0,1,1.64.57,5.15,5.15,0,0,1,1.43,1,5.28,5.28,0,0,1,1.46,3.11,5.51,5.51,0,0,1-.13,1.72c-.14.56-.33,1.08-.49,1.62-.66,2.13-1.31,4.25-2,6.34q-1.95,6.27-3.8,12.27l-13.13,42.44-8.88,28.61c-.26.85-.51,1.64-.75,2.39a10.51,10.51,0,0,1-.36,1.08l-.24.49c-.09.15-.18.31-.28.45a5,5,0,0,1-2.78,2,4.75,4.75,0,0,1-2.11.1,3.62,3.62,0,0,1-.53-.12Z"/><rect class="cls-8" x="527.96" y="90.5" width="32.83" height="16.82" transform="translate(53.38 -156.14) rotate(17.15)"/><rect class="cls-8" x="520.94" y="113.27" width="32.83" height="16.82" transform="translate(59.78 -153.06) rotate(17.15)"/><rect class="cls-8" x="513.91" y="136.03" width="32.83" height="16.82" transform="translate(66.18 -149.97) rotate(17.15)"/><rect class="cls-8" x="506.88" y="158.8" width="32.83" height="16.82" transform="translate(72.58 -146.89) rotate(17.15)"/><g class="cls-14"><rect class="cls-2" x="520.94" y="113.27" width="32.83" height="16.82" transform="translate(59.78 -153.06) rotate(17.15)"/></g><g class="cls-15"><rect class="cls-2" x="513.91" y="136.03" width="32.83" height="16.82" transform="translate(66.18 -149.97) rotate(17.15)"/></g><g class="cls-16"><rect class="cls-2" x="506.88" y="158.8" width="32.83" height="16.82" transform="translate(72.58 -146.89) rotate(17.15)"/></g><g class="cls-13"><rect class="cls-2" x="527.96" y="90.5" width="32.83" height="16.82" transform="translate(53.38 -156.14) rotate(17.15)"/></g><path class="cls-17" d="M532.87,186.38a3.95,3.95,0,1,1-1.43-5.4A4,4,0,0,1,532.87,186.38Z"/><path class="cls-6" d="M532.87,186.38s.16-.31.32-.91a4,4,0,0,0-.19-2.55,3.81,3.81,0,0,0-2.87-2.27,3.72,3.72,0,0,0-2.19.26,3.78,3.78,0,0,0-2.26,3.88,3.68,3.68,0,0,0,.85,2,3.88,3.88,0,0,0,5.7.28c.44-.43.61-.75.64-.73s0,.08-.11.23a3.14,3.14,0,0,1-.44.58,3.9,3.9,0,0,1-2.37,1.23,4.08,4.08,0,0,1-4.57-3.59,4.11,4.11,0,0,1,.53-2.5,4.06,4.06,0,0,1,7.29.51,3.9,3.9,0,0,1,.1,2.66,2.58,2.58,0,0,1-.29.67C532.93,186.31,532.88,186.39,532.87,186.38Z"/><rect class="cls-7" x="252.1" y="109.04" width="259.99" height="173.33"/><path class="cls-6" d="M512.09,282.37c0-1.31-.06-67.69-.16-173.33l.16.16-260,0h0l.2-.2c0,61.72,0,120.43,0,173.33l-.18-.19,260,.19-260,.18h-.18v-.18c0-52.9,0-111.61,0-173.33v-.2h.22l260,0h.16V109C512.15,214.68,512.09,281.06,512.09,282.37Z"/><path class="cls-6" d="M390.49,184.42s0-.19,0-.56,0-.91,0-1.59c0-1.41,0-3.44,0-6,0-5.19-.05-12.59-.09-21.53l.17.17-38.16,0,.19-.19h0v15.51c0,5,0,9.73,0,14.16l-.18-.18,27.52.09,7.83,0,2.09,0h.73s-.06,0-.17,0h-.52l-2.05,0-7.79,0-27.64.09h-.18v-.18c0-4.43,0-9.18,0-14.16,0-2.49,0-5,0-7.63v-7.88h0c-.18.17.25-.25.21-.2l38.16,0h.16v.16c0,9-.06,16.42-.08,21.63,0,2.57,0,4.59-.05,6,0,.67,0,1.19,0,1.56S390.49,184.42,390.49,184.42Z"/><path class="cls-6" d="M471,254.76H266.06V124.13H471ZM266.83,254H470.19V124.89H266.83Z"/><rect class="cls-6" x="266.44" y="124.51" width="204.13" height="6.61"/><rect class="cls-6" x="266.44" y="159.89" width="7.41" height="94.48"/><rect class="cls-6" x="266.44" y="124.51" width="7.41" height="12.45"/><path class="cls-6" d="M284.65,156.38l-13.54-19.93,2.39-1.61L287,154.76Zm-12.47-19.72,12.68,18.65,1.11-.75L273.29,135.9Z"/><path class="cls-6" d="M293.51,203.76h-17.8V184.57h17.8Zm-17-.76h16.27V185.34H276.48Z"/><rect class="cls-6" x="266.44" y="246.89" width="204.13" height="7.48"/><path class="cls-6" d="M284.61,199.53a5.11,5.11,0,1,1,5.11-5.1A5.11,5.11,0,0,1,284.61,199.53Zm0-9.44a4.34,4.34,0,1,0,4.34,4.34A4.34,4.34,0,0,0,284.61,190.09Z"/><path class="cls-6" d="M406.92,149.39H338V130.74h69Zm-68.2-.77h67.43V131.51H338.72Z"/><path class="cls-6" d="M361.21,147l-8.09-6.77,6.77-8.09,8.09,6.77Zm-7-6.87,6.92,5.79L366.9,139,360,133.2Z"/><path class="cls-6" d="M372,147l-8.09-6.77,6.77-8.09,8.09,6.77Zm-7-6.87,6.92,5.79,5.78-6.91-6.91-5.79Z"/><path class="cls-6" d="M382.75,147l-8.09-6.77,6.77-8.09,8.09,6.77Zm-7-6.87,6.92,5.79,5.79-6.91-6.92-5.79Z"/><path class="cls-6" d="M417.89,145.87a6.32,6.32,0,1,1,6.32-6.32A6.32,6.32,0,0,1,417.89,145.87Zm0-11.88a5.56,5.56,0,1,0,5.55,5.56A5.57,5.57,0,0,0,417.89,134Z"/><path class="cls-6" d="M333.55,147.42H304V130.74h29.57Zm-28.81-.76h28.05V131.51H304.74Z"/><path class="cls-6" d="M464.15,186H447.07V142h17.08Zm-16.31-.76h15.54V142.74H447.84Z"/><rect class="cls-6" x="463.76" y="124.51" width="6.81" height="122.38"/><path class="cls-6" d="M439,176.61h-1.25a5.19,5.19,0,0,1-5.18-5.19v-10a5.19,5.19,0,0,1,5.18-5.19H439a5.19,5.19,0,0,1,5.18,5.19v10A5.19,5.19,0,0,1,439,176.61ZM437.79,157a4.43,4.43,0,0,0-4.42,4.42v10a4.43,4.43,0,0,0,4.42,4.42H439a4.43,4.43,0,0,0,4.42-4.42v-10A4.43,4.43,0,0,0,439,157Z"/><path class="cls-6" d="M359.09,207c0,.11-19.35.2-43.22.2s-43.23-.09-43.23-.2,19.35-.2,43.23-.2S359.09,206.93,359.09,207Z"/><path class="cls-6" d="M358.5,223.1a13.28,13.28,0,0,1-.14-2.41c0-1.49-.06-3.55-.06-5.82s0-4.33.06-5.82a13.17,13.17,0,0,1,.14-2.41,15.88,15.88,0,0,1,.14,2.41c0,1.49.06,3.54.06,5.82s0,4.33-.06,5.82A16,16,0,0,1,358.5,223.1Z"/><path class="cls-6" d="M296.05,247.78H273.47V206.66h22.58ZM274.24,247h21V207.43h-21Z"/><path class="cls-6" d="M496.21,124.51c0,.11-8.5.2-19,.2s-19-.09-19-.2,8.5-.2,19-.2S496.21,124.4,496.21,124.51Z"/><path class="cls-6" d="M495.91,266.52c-.11,0-.2-32.71-.2-73s.09-73.06.2-73.06.2,32.7.2,73.06S496,266.52,495.91,266.52Z"/><path class="cls-6" d="M503.5,254.67c0,.11-7.61.2-17,.2s-17-.09-17-.2,7.62-.2,17-.2S503.5,254.56,503.5,254.67Z"/><path class="cls-6" d="M470.09,265.91a72.36,72.36,0,0,1-.2-7.59,72.48,72.48,0,0,1,.2-7.6,72.48,72.48,0,0,1,.2,7.6A72.36,72.36,0,0,1,470.09,265.91Z"/><path class="cls-6" d="M268.09,262.88c0-.12,50.59-.2,113-.2s113,.08,113,.2-50.59.19-113,.19S268.09,263,268.09,262.88Z"/><path class="cls-6" d="M267.18,266.52a46.36,46.36,0,0,1-.2-6.07,46.45,46.45,0,0,1,.2-6.08,46.45,46.45,0,0,1,.2,6.08A46.36,46.36,0,0,1,267.18,266.52Z"/><path class="cls-6" d="M286.93,154.72s-.18.21-.55.53a20.5,20.5,0,0,1-1.66,1.27,22.54,22.54,0,0,1-6.18,3,27.91,27.91,0,0,1-6.78,1.08c-.88,0-1.59,0-2.08,0a2.47,2.47,0,0,1-.76-.08c0-.06,1.09-.08,2.82-.21a32.41,32.41,0,0,0,6.68-1.19,25.27,25.27,0,0,0,6.15-2.82C286,155.35,286.88,154.67,286.93,154.72Z"/><path class="cls-6" d="M370.72,243.27l-13.54-19.92,2.39-1.62,13.53,19.92Zm-12.47-19.72,12.68,18.66,1.11-.76L359.36,222.8Z"/><path class="cls-6" d="M373,241.62s-.18.21-.55.53a17.27,17.27,0,0,1-1.66,1.26,22.26,22.26,0,0,1-6.18,3,27.43,27.43,0,0,1-6.78,1.08c-.88,0-1.59,0-2.08,0a2.74,2.74,0,0,1-.76-.07,28.25,28.25,0,0,1,2.83-.22,32.34,32.34,0,0,0,6.67-1.18,25.27,25.27,0,0,0,6.15-2.82C372.11,242.24,373,241.56,373,241.62Z"/><path class="cls-6" d="M352.32,148.15c-.11,0-.2-3.73-.2-8.33s.09-8.34.2-8.34.2,3.73.2,8.34S352.43,148.15,352.32,148.15Z"/><path class="cls-6" d="M389.87,148.88c-.11,0-.2-3.77-.2-8.42s.09-8.43.2-8.43.2,3.77.2,8.43S390,148.88,389.87,148.88Z"/><path class="cls-6" d="M447.06,212.35a1.33,1.33,0,0,1,0-.42l.11-1.2c.12-1.1.28-2.59.48-4.41s.48-4.09.77-6.54a8.3,8.3,0,0,0,.12-1.85,1.6,1.6,0,0,0-1-1.38,10.64,10.64,0,0,0-1.93-.56l-2.05-.49L429.36,192l-4.3-1.11-1.17-.32a2.34,2.34,0,0,1-.4-.14,2.07,2.07,0,0,1,.42.06l1.18.25,4.33,1,14.24,3.4,2.06.5a11.21,11.21,0,0,1,2,.58,2.19,2.19,0,0,1,.85.69,2.08,2.08,0,0,1,.35,1,8.62,8.62,0,0,1-.13,1.93c-.32,2.45-.61,4.66-.86,6.53s-.45,3.3-.61,4.4c-.07.48-.13.87-.18,1.19A2.1,2.1,0,0,1,447.06,212.35Z"/><path class="cls-6" d="M432.18,188.94a15.17,15.17,0,0,1-2.4.54c-1.49.29-3.56.65-5.85,1l.12-.32.06.08c1.47,1.83,2.79,3.51,3.72,4.73a16.76,16.76,0,0,1,1.45,2,13.64,13.64,0,0,1-1.67-1.85c-1-1.18-2.34-2.83-3.81-4.66l-.06-.08-.22-.27.34-.06c2.29-.38,4.37-.7,5.87-.91A15.32,15.32,0,0,1,432.18,188.94Z"/><path class="cls-6" d="M341.56,204.69H296V174.5h45.59Zm-44.82-.77h44.05V175.26H296.74Z"/><path class="cls-6" d="M308.83,204.18c-.11,0-.2-6.48-.2-14.47s.09-14.48.2-14.48.2,6.48.2,14.48S308.94,204.18,308.83,204.18Z"/><path class="cls-6" d="M329.43,204.08c-.11,0-.2-6.45-.2-14.42s.09-14.43.2-14.43.2,6.46.2,14.43S329.54,204.08,329.43,204.08Z"/><path class="cls-4" d="M369.09,167.73s-2.49,36.51.61,42.42h38.18l-1.5-40.71Z"/><path class="cls-8" d="M369.09,167.73c.27,15.19,1.55,28.93,4.3,40.57l43,.33s-4.25-34.89-4.25-40.9Z"/><path class="cls-6" d="M407.35,181.49a3.24,3.24,0,0,1-.51.58,6.42,6.42,0,0,1-1.88,1.19,6.31,6.31,0,0,1-3.49.37,6.45,6.45,0,0,1-3.94-2.41,4.86,4.86,0,0,1-.68-1.18,2.23,2.23,0,0,1-.08-1.45,1.62,1.62,0,0,1,1.1-1.06,1.21,1.21,0,0,1,.83.11,1.23,1.23,0,0,1,.56.63,3.36,3.36,0,0,1-.55,3.11,7.9,7.9,0,0,1-9.42,3,4.23,4.23,0,0,1-2.55-2.83,3.21,3.21,0,0,1,.29-2,2.58,2.58,0,0,1,1.53-1.38,2.24,2.24,0,0,1,2,.41,3.06,3.06,0,0,1,1.11,1.69,3.11,3.11,0,0,1-.17,2,4.55,4.55,0,0,1-1.14,1.58,6.9,6.9,0,0,1-6.89,1.15,6.73,6.73,0,0,1-2.78-1.91,7.3,7.3,0,0,1-1.46-2.83,7.1,7.1,0,0,1-.14-3,5.32,5.32,0,0,1,.4-1.36,1.91,1.91,0,0,1,1-1,1.28,1.28,0,0,1,1.3.28,2.46,2.46,0,0,1,.65,1.07,4.41,4.41,0,0,1,0,2.22,6,6,0,0,1-1.74,3,5.43,5.43,0,0,1-1.89,1.17,3,3,0,0,1-.75.2s.26-.07.72-.27a5.8,5.8,0,0,0,1.81-1.21,5.93,5.93,0,0,0,1.63-3,4.17,4.17,0,0,0-.05-2.1,2.21,2.21,0,0,0-.59-.94,1,1,0,0,0-1-.22,1.59,1.59,0,0,0-.81.86,4.85,4.85,0,0,0-.36,1.28,6.66,6.66,0,0,0,.15,2.83,6.87,6.87,0,0,0,1.41,2.68,6.36,6.36,0,0,0,2.64,1.79,6.51,6.51,0,0,0,6.5-1.09,3.89,3.89,0,0,0,1-1.44,2.65,2.65,0,0,0,.15-1.73,2.73,2.73,0,0,0-1-1.48,1.82,1.82,0,0,0-1.66-.33,2.59,2.59,0,0,0-1.55,2.91,3.89,3.89,0,0,0,2.32,2.56,7.58,7.58,0,0,0,9-2.85,3.73,3.73,0,0,0,.63-1.38,2.49,2.49,0,0,0-.08-1.41.9.9,0,0,0-1-.56,1.31,1.31,0,0,0-.88.85,2.81,2.81,0,0,0,.69,2.36,6.37,6.37,0,0,0,3.77,2.37,6.1,6.1,0,0,0,3.38-.31A6.94,6.94,0,0,0,407.35,181.49Z"/><path class="cls-6" d="M411.83,196a7.61,7.61,0,0,1-2.38,1.25,10.16,10.16,0,0,1-3.12.55,10,10,0,0,1-4.12-.79,5.33,5.33,0,0,1-2.07-1.36,1.79,1.79,0,0,1-.41-1.32,1.44,1.44,0,0,1,.87-1.16,1.15,1.15,0,0,1,1.35.62,1.69,1.69,0,0,1,0,1.53,3.62,3.62,0,0,1-.94,1.21,6.77,6.77,0,0,1-1.25.93,8.09,8.09,0,0,1-6.35.7,7.11,7.11,0,0,1-3-1.77,4.32,4.32,0,0,1-1-1.5,2.67,2.67,0,0,1-.07-1.85,2.25,2.25,0,0,1,1.26-1.39,1.86,1.86,0,0,1,1.82.34,2.5,2.5,0,0,1,.9,1.58,3.56,3.56,0,0,1-.24,1.75,6.82,6.82,0,0,1-10.55,2.57,4.37,4.37,0,0,1-1.57-2.17,2.87,2.87,0,0,1-.1-1.3,1.69,1.69,0,0,1,.65-1.08,1.85,1.85,0,0,1,2.21.13,2.16,2.16,0,0,1,.87,1.8,3.73,3.73,0,0,1-1.47,2.76,8.19,8.19,0,0,1-1.71,1l-.47.22c-.11.05-.16.07-.17.06l.6-.35a10.33,10.33,0,0,0,1.65-1.09,3.64,3.64,0,0,0,1.35-2.65,2,2,0,0,0-.8-1.6,1.59,1.59,0,0,0-1.89-.1,1.39,1.39,0,0,0-.53.9,2.58,2.58,0,0,0,.11,1.16,4,4,0,0,0,1.48,2,6.55,6.55,0,0,0,5.32,1.3,6.46,6.46,0,0,0,4.65-3.75,3.19,3.19,0,0,0,.22-1.55,2.11,2.11,0,0,0-.76-1.33,1.44,1.44,0,0,0-1.43-.27,1.84,1.84,0,0,0-1,1.14,2.27,2.27,0,0,0,.06,1.58,4.19,4.19,0,0,0,.92,1.36,6.66,6.66,0,0,0,2.8,1.67,7.71,7.71,0,0,0,6.05-.64,6,6,0,0,0,1.18-.87,3.44,3.44,0,0,0,.87-1.09,1.31,1.31,0,0,0,0-1.22.8.8,0,0,0-.94-.47,1.09,1.09,0,0,0-.66.89,1.41,1.41,0,0,0,.34,1.08,5.13,5.13,0,0,0,1.93,1.29,9.72,9.72,0,0,0,4,.82,10.16,10.16,0,0,0,3.07-.47A13.51,13.51,0,0,0,411.83,196Z"/><rect class="cls-2" x="136.47" y="94.51" width="95.63" height="95.64" transform="translate(-14.94 21.8) rotate(-6.51)"/><path class="cls-6" d="M237.21,184.42l-.06-.45-.16-1.32c-.14-1.16-.34-2.87-.6-5.1l-2.25-19.32c-1.92-16.62-4.65-40.35-7.94-68.81l.19.15-95,10.86h0l.17-.22,10.81,95-.19-.15L211,187.32l19.33-2.16,5.11-.56,1.31-.14.45,0-.43.05-1.29.16-5.07.6-19.28,2.24-68.93,7.95-.17,0,0-.17c-3.16-27.61-6.88-60.22-10.86-95l0-.2.2,0h0l95-10.81h.18l0,.17c3.21,28.52,5.89,52.29,7.77,68.94l2.16,19.29c.24,2.22.43,3.92.55,5.08l.14,1.29C237.2,184.27,237.21,184.42,237.21,184.42Z"/><rect class="cls-3" x="141.4" y="99.45" width="85.76" height="85.76" transform="translate(-14.94 21.8) rotate(-6.51)"/><path class="cls-6" d="M231.75,180.07s0-.14-.06-.41-.08-.66-.14-1.17c-.13-1.05-.31-2.58-.55-4.58-.46-4-1.15-9.87-2-17.32-1.72-14.91-4.18-36.19-7.13-61.71l.2.15-85.2,9.75h0l.18-.22c3.55,31.2,6.87,60.44,9.69,85.21l-.19-.15,61.73-7,17.33-1.93,4.58-.5,1.18-.13.41,0-.39.05-1.16.14-4.54.54-17.29,2L146.56,190l-.17,0,0-.17c-2.83-24.77-6.18-54-9.75-85.21l0-.19.2,0h0L222,94.69l.17,0,0,.17c2.88,25.58,5.28,46.9,7,61.84.83,7.44,1.48,13.29,1.93,17.29.22,2,.38,3.51.5,4.55,0,.51.09.89.12,1.16S231.75,180.07,231.75,180.07Z"/><path class="cls-17" d="M195.48,156.85s3.23,18,3.23,18l-3.23.37-5.56-17.42Z"/><path class="cls-17" d="M214.3,154.38s3.23,18,3.23,18l-3.22.37-5.57-17.41Z"/><polygon class="cls-17" points="159.78 160.28 159.79 179.26 162.99 178.89 165.22 160.3 159.78 160.28"/><path class="cls-8" d="M217.44,116.71c.61,6.57,2.93,27.49-1.94,37.85l-22.05,2.81-35.67,4.07s-9.43-13.26-10-26.48l17.66-7.54s2.58-7.65,5.63-7.87c2.16-.16,34.4-4,43.76-5A2.4,2.4,0,0,1,217.44,116.71Z"/><path class="cls-6" d="M212,114.85s0,.05,0,.14-.08.21-.16.38-.37.8-.69,1.4c-.64,1.2-1.62,2.9-2.87,5a9,9,0,0,1-1.1,1.58,5.28,5.28,0,0,1-1.72,1.23c-1.33.55-2.72,1.12-4.19,1.77s-3,1.32-4.56,2.1c-.78.38-1.56.8-2.33,1.26a13.26,13.26,0,0,0-1.11.73,2,2,0,0,0-.78,1,19.27,19.27,0,0,0-.69,2.61c-.19.88-.37,1.75-.52,2.6q-.48,2.58-.87,4.95c-.51,3.16-1,6-1.35,8.41s-.66,4.29-.87,5.68c-.11.63-.19,1.14-.25,1.54a2.64,2.64,0,0,1-.12.53,3.11,3.11,0,0,1,0-.54c0-.4.1-.91.17-1.56.17-1.34.42-3.29.76-5.69s.75-5.26,1.25-8.43c.26-1.58.54-3.24.85-5,.16-.86.34-1.73.52-2.61a19.83,19.83,0,0,1,.71-2.69,2.36,2.36,0,0,1,.91-1.13c.37-.28.76-.53,1.15-.77.78-.45,1.57-.88,2.36-1.26,1.56-.78,3.11-1.46,4.58-2.09s2.89-1.21,4.21-1.73a5.31,5.31,0,0,0,1.63-1.14A8.77,8.77,0,0,0,208,121.6c1.28-2.06,2.29-3.74,3-4.91.34-.58.59-1,.76-1.36S212,114.85,212,114.85Z"/><path class="cls-6" d="M193.45,157.37a3.63,3.63,0,0,1,0-.54c.05-.39.11-.89.18-1.53.18-1.36.43-3.27.74-5.6s.72-5.17,1.19-8.29c.24-1.56.49-3.2.78-4.89.14-.85.29-1.71.46-2.58.09-.44.17-.87.3-1.33l.11-.34a.87.87,0,0,1,.22-.33,4,4,0,0,1,.56-.47,37,37,0,0,1,4.73-2.47c1.57-.72,3.09-1.37,4.53-2s2.83-1.21,4.09-1.81a5.19,5.19,0,0,0,2.53-2.72,45.77,45.77,0,0,0,2.24-5.16c.22-.59.4-1.07.53-1.44a3.63,3.63,0,0,1,.2-.5,2.91,2.91,0,0,1-.12.52c-.1.34-.25.84-.46,1.47a39,39,0,0,1-2.14,5.24,11.75,11.75,0,0,1-1,1.62,3.6,3.6,0,0,1-.72.74,4.75,4.75,0,0,1-.92.53c-1.27.62-2.65,1.21-4.09,1.85s-3,1.3-4.51,2a36.56,36.56,0,0,0-4.67,2.45,3.42,3.42,0,0,0-.5.41.66.66,0,0,0-.15.22l-.09.3c-.11.41-.2.86-.29,1.28-.17.87-.32,1.73-.47,2.57-.28,1.69-.54,3.33-.8,4.88-.48,3.11-.91,5.91-1.27,8.28s-.66,4.22-.87,5.59c-.1.62-.18,1.13-.25,1.51A3.36,3.36,0,0,1,193.45,157.37Z"/><path class="cls-6" d="M164,160.72a2.22,2.22,0,0,1-.23-.43L163.2,159c-.52-1.11-1.25-2.72-2.14-4.73s-1.95-4.38-2.93-7.14a1.64,1.64,0,0,1,.08-1.21,2.29,2.29,0,0,1,.84-.88,5.14,5.14,0,0,1,2.27-.72l4.85-.56,17-1.88,5.16-.53,1.41-.12.49,0a1.59,1.59,0,0,1-.48.1l-1.4.2-5.15.65-17,2-4.86.55a4.72,4.72,0,0,0-2.11.66,1.89,1.89,0,0,0-.71.72,1.32,1.32,0,0,0-.06.94c1,2.7,2,5.11,2.84,7.13s1.53,3.6,2,4.78l.54,1.31A1.75,1.75,0,0,1,164,160.72Z"/><path class="cls-6" d="M161.3,154.61c0-.11,6.11-.9,13.67-1.76s13.71-1.48,13.72-1.37-6.11.9-13.67,1.76S161.31,154.72,161.3,154.61Z"/><path class="cls-6" d="M147.74,135a2,2,0,0,1,.65-.37,6.59,6.59,0,0,1,2-.47,5,5,0,0,1,3,.61,4,4,0,0,1,1.23,1.34,9.8,9.8,0,0,1,.84,1.72c.85,2.46,1.56,4.66,2.08,6.28a19,19,0,0,1,.75,2.64,18.87,18.87,0,0,1-1-2.54c-.58-1.58-1.35-3.82-2.18-6.24a10.62,10.62,0,0,0-.8-1.66,3.67,3.67,0,0,0-1.1-1.23,4.79,4.79,0,0,0-2.75-.63A9.8,9.8,0,0,0,147.74,135Z"/><path class="cls-6" d="M175,143.18a3.72,3.72,0,0,1-.28-.76c-.15-.51-.37-1.23-.62-2.14-.51-1.8-1.19-4.31-1.92-7.07a13.1,13.1,0,0,0-1.45-3.69,5.33,5.33,0,0,0-2.34-2.11,3.91,3.91,0,0,0-2.11-.35c-.51.06-.77.18-.79.15s.06,0,.18-.12a3.15,3.15,0,0,1,.59-.19,3.9,3.9,0,0,1,2.24.25,5.54,5.54,0,0,1,2.54,2.17,12.81,12.81,0,0,1,1.53,3.78c.73,2.77,1.36,5.29,1.8,7.11.22.91.39,1.65.5,2.17A3,3,0,0,1,175,143.18Z"/><path class="cls-6" d="M182,128.31a1.82,1.82,0,0,0-1.12.28.92.92,0,0,0-.42,1,1.17,1.17,0,0,0,.91,1,1,1,0,0,0,1.12-.65,1.12,1.12,0,0,0-.07-1.12,1.73,1.73,0,0,0-1-.57s.12-.07.35-.06a1.41,1.41,0,0,1,.86.45,1.43,1.43,0,0,1,.19,1.45,1.5,1.5,0,0,1-.56.7,1.47,1.47,0,0,1-1,.19,1.51,1.51,0,0,1-1.2-1.3,1.13,1.13,0,0,1,.13-.81,1.3,1.3,0,0,1,.5-.49,1.46,1.46,0,0,1,1-.19C181.94,128.2,182,128.29,182,128.31Z"/><path class="cls-6" d="M198.88,127.18c-.07,0-.24-.44-.77-.54h0a1.25,1.25,0,0,0-.84.07,1.05,1.05,0,0,0-.69.89v0c.06.4.14.64.1.67s-.25-.18-.39-.59v0a1.24,1.24,0,0,1,.82-1.27,1.4,1.4,0,0,1,1.13,0h0a1,1,0,0,1,.67.56C198.92,127.05,198.91,127.17,198.88,127.18Z"/><g class="cls-15"><path d="M190.35,141.18a31.58,31.58,0,0,1,1.92-10.13A7.91,7.91,0,0,0,190,134.6c-.58,1.3-1.34,2.68-2.68,3.18s-2.67,0-4,.07c-1.69,0-3.32.85-5,.7a6.06,6.06,0,0,1-3.83-2.1,18.1,18.1,0,0,1-2.41-3.74c.44,2.1.84,4.43-.24,6.28-1.24,2.11-3.92,2.8-6.32,3.25s-5.09,1-6.51,3a11.93,11.93,0,0,1,3.13-.77Z"/></g><rect class="cls-4" x="135.38" y="84.74" width="6.62" height="34.9" transform="translate(122.82 -69.35) rotate(48.33)"/><polygon class="cls-18" points="370.99 305.9 389.31 285.55 403.74 284.41 405.93 300.03 394.26 305.24 381.52 318.67 373.78 320.43 370.99 305.9"/><rect class="cls-2" x="400.42" y="207.96" width="138.62" height="161.82" transform="translate(89.82 688.57) rotate(-78.04)"/><path class="cls-6" d="M534.53,373.44c.29-1.38,11.37-54,28.56-135.65l.13.2L404.91,204.5h0l.23-.15c-10.42,49.2-20.25,95.58-28.74,135.61l-.13-.21,158.27,33.7L376.18,340.09l-.17,0,0-.17,28.69-135.62,0-.2.2,0h0l158.3,33.55.16,0,0,.16C546,319.48,534.83,372.06,534.53,373.44Z"/><rect class="cls-3" x="406.98" y="215.28" width="125.5" height="147.18" transform="translate(89.82 688.57) rotate(-78.04)"/><path class="cls-6" d="M528.73,365.5s.15-.77.46-2.26l1.37-6.56c1.2-5.74,3-14.16,5.22-24.89,4.52-21.45,11-52.13,18.78-89.1l.13.2-144-30.46h0l.24-.15c-9.44,44.53-18.34,86.51-26,122.77l-.14-.21L488.89,357l29.38,6.27,7.78,1.67,2,.43.68.15-.67-.13-2-.41-7.75-1.62L489,357.17l-104.25-22-.18,0,0-.17c7.67-36.27,16.56-78.25,26-122.79l0-.19.2,0h0l144,30.52.17,0,0,.16c-7.87,37-14.4,67.7-19,89.16-2.29,10.71-4.08,19.11-5.3,24.84-.62,2.86-1.09,5-1.4,6.52S528.73,365.5,528.73,365.5Z"/><polygon class="cls-6" points="456 324.84 452.23 337.33 453.31 337.56 459.9 325.67 456 324.84"/><polygon class="cls-6" points="502.96 334.79 501.34 347.73 500.27 347.51 499.06 333.96 502.96 334.79"/><rect class="cls-6" x="449.97" y="310.49" width="61.4" height="19.36" transform="translate(76.76 -92.64) rotate(11.96)"/><path class="cls-17" d="M480.28,319.76a.82.82,0,0,1,0-.16l.08-.44c.08-.41.19-1,.32-1.68.3-1.47.72-3.57,1.25-6.2l.09.15-28.56-6c.1-.07-.24.15.23-.16h0v0l0,.07,0,.13,0,.28-.12.54c-.08.36-.15.72-.23,1.08-.15.72-.3,1.44-.45,2.14-.3,1.41-.6,2.79-.88,4.14l-.15-.23,20.33,4.4,6,1.32,1.62.37.42.1.15.05-.54-.09-1.58-.31-6-1.21-20.5-4.25-.19,0,0-.19q.42-2,.87-4.14l.45-2.14c.08-.36.15-.72.23-1.08l.11-.55.06-.27,0-.14,0-.07v0h0l.24-.16,28.54,6.12.12,0,0,.12-1.39,6.25c-.16.69-.29,1.23-.38,1.63A4.89,4.89,0,0,1,480.28,319.76Z"/><path class="cls-17" d="M478.4,328.65s0,0,0-.15l.08-.44c.08-.42.18-1,.32-1.68.29-1.47.71-3.57,1.24-6.2l.1.15-28.57-6,.24-.15h0v.12l0,.14-.06.27-.11.55c-.08.36-.16.72-.23,1.08-.16.72-.31,1.43-.46,2.14-.3,1.41-.59,2.79-.88,4.14l-.15-.23,20.34,4.4,6,1.32,1.62.37.43.1.15,0a4.5,4.5,0,0,1-.54-.08l-1.59-.31-6-1.21L449.8,322.8l-.19,0,0-.19q.44-2,.87-4.14c.15-.71.3-1.42.46-2.14.07-.36.15-.72.23-1.08l.11-.55.06-.27,0-.14v-.12h0c.47-.31.13-.09.23-.16l28.54,6.12.13,0,0,.12-1.39,6.25c-.16.69-.29,1.23-.38,1.63S478.4,328.66,478.4,328.65Z"/><path class="cls-17" d="M509.78,326s0-.05,0-.16.05-.26.08-.44l.33-1.67c.29-1.47.71-3.57,1.24-6.2l.1.15-28.57-6,.23-.15h0v.06l0,.06,0,.14,0,.27-.12.55c-.08.36-.15.72-.23,1.08l-.45,2.14c-.3,1.41-.6,2.79-.88,4.14l-.15-.23,20.33,4.39,6,1.33,1.62.37.42.1.15,0-.53-.08-1.59-.31-6-1.21-20.5-4.25-.19,0,0-.19q.42-2,.87-4.14l.45-2.14c.08-.36.15-.72.23-1.08l.12-.55.05-.27,0-.14,0-.07v0h0l.24-.16,28.54,6.12.12,0,0,.12-1.39,6.25c-.16.69-.28,1.23-.38,1.63A2.76,2.76,0,0,1,509.78,326Z"/><path class="cls-17" d="M507.9,334.9s0-.06,0-.16l.08-.44c.08-.41.18-1,.32-1.67.3-1.48.72-3.57,1.24-6.2l.1.15-28.57-6,.24-.15h0v.12l0,.14-.06.27-.11.55c-.08.36-.16.72-.23,1.08-.16.72-.31,1.43-.46,2.14-.3,1.41-.59,2.79-.88,4.14l-.15-.23,20.34,4.39,6,1.33c.68.15,1.22.27,1.61.37l.43.1.15,0a3.78,3.78,0,0,1-.54-.09l-1.59-.31-6-1.2-20.51-4.25-.19,0,0-.2c.29-1.34.58-2.72.88-4.14.14-.7.3-1.41.45-2.13.07-.36.15-.72.23-1.09l.11-.54.06-.27,0-.14v-.12h0l.24-.15,28.53,6.12.13,0,0,.12-1.39,6.24c-.16.7-.29,1.24-.38,1.64S507.9,334.91,507.9,334.9Z"/><path class="cls-17" d="M453.51,305.26c-.08.07-.34-.07-.58-.32s-.37-.52-.29-.6.34.07.58.32S453.59,305.18,453.51,305.26Z"/><path class="cls-17" d="M449.75,322.57c.06.09-.16.33-.48.54s-.64.29-.7.19.16-.33.48-.53S449.69,322.48,449.75,322.57Z"/><path class="cls-17" d="M508.7,336c0,.11-13.51-2.65-30.12-6.17s-30.06-6.46-30-6.57,13.51,2.66,30.12,6.18S508.72,335.9,508.7,336Z"/><path class="cls-17" d="M465.87,321.59c-.06,0,0-.35-.3-.67a.75.75,0,0,0-.65-.2.7.7,0,0,0-.27,1.28.73.73,0,0,0,.68.07c.41-.16.49-.51.54-.48s.05.09,0,.24a.85.85,0,0,1-.42.5,1,1,0,0,1-1,0,1,1,0,0,1-.49-1.13,1.06,1.06,0,0,1,.91-.83,1,1,0,0,1,.92.39.9.9,0,0,1,.18.63C466,321.52,465.9,321.59,465.87,321.59Z"/><path class="cls-17" d="M467.76,312.69c-.06,0,0-.35-.3-.66a.75.75,0,0,0-.66-.21.7.7,0,0,0-.57.55.72.72,0,0,0,.3.73.76.76,0,0,0,.68.08c.41-.17.49-.51.55-.49s0,.09,0,.24a.92.92,0,0,1-.43.5,1,1,0,0,1-1,0,1.07,1.07,0,0,1-.5-1.13,1.08,1.08,0,0,1,.91-.83,1,1,0,0,1,.92.39.86.86,0,0,1,.18.63C467.83,312.63,467.78,312.7,467.76,312.69Z"/><path class="cls-17" d="M495.73,327.91c-.06,0,0-.35-.3-.66a.75.75,0,0,0-.66-.21.7.7,0,0,0-.27,1.28.78.78,0,0,0,.69.08c.4-.17.48-.51.54-.49s0,.09,0,.24a.86.86,0,0,1-.42.5,1,1,0,0,1-1,0,1,1,0,0,1,.41-1.95,1,1,0,0,1,.92.38.88.88,0,0,1,.19.63C495.81,327.85,495.75,327.92,495.73,327.91Z"/><path class="cls-17" d="M497.62,319c-.07,0,0-.35-.31-.66a.73.73,0,0,0-.65-.21.72.72,0,0,0-.57.55.7.7,0,0,0,.3.73.76.76,0,0,0,.68.08c.41-.16.49-.51.55-.49s0,.09,0,.24a.83.83,0,0,1-.42.5,1,1,0,0,1-1,0,1.05,1.05,0,0,1,.42-2,1,1,0,0,1,.92.38.91.91,0,0,1,.18.63C497.69,319,497.64,319,497.62,319Z"/><path class="cls-17" d="M512.73,317c0,.11-.23.26-.54.4s-.59.22-.66.13.15-.34.5-.5S512.7,316.92,512.73,317Z"/><path class="cls-17" d="M508.85,336c-.09.07-.37-.14-.62-.47s-.38-.64-.29-.71.36.14.61.47S508.93,336,508.85,336Z"/><rect class="cls-4" x="452.06" y="270.77" width="12.03" height="146.81" transform="translate(26.47 721.01) rotate(-78.04)"/><path class="cls-17" d="M430.08,282.7a49.57,49.57,0,0,0-5.67-26.7C417.15,242.28,408.14,241,408.14,241s10.8-1.73,18.72,13A39.24,39.24,0,0,1,430.08,282.7Z"/><path class="cls-17" d="M437.14,236.49C437,236.09,432,265,432,265l-2,21.1s4.85-14.91,6.09-22.81S438.39,240.05,437.14,236.49Z"/><path class="cls-17" d="M447.84,238.75s-4.92,1.82-10.66,22.6c-4.41,15.92-6.4,22-7.05,23.93a2.94,2.94,0,0,0-.18.86s8.36-13.88,11.58-21.65S445,244.6,447.84,238.75Z"/><path class="cls-17" d="M430,290.68c-.13.53,3.18-6.55,14.3-13.75,10.35-6.7,14.26-6.22,14.26-6.22s-9.14-.64-16.41,4.49C435.74,279.73,431.37,285.39,430,290.68Z"/><path class="cls-17" d="M427.27,298.82c-.24-3.87-.58-7.8-2-11.4s-4.17-6.86-7.85-8.07a38.33,38.33,0,0,1,9.87,19.47"/><path class="cls-17" d="M430.33,284.36s1.31-14.61-8-21.21c-5.18-3.68-14-3.89-14-3.89s10.36,3.59,13.79,6.92S430.33,284.36,430.33,284.36Z"/><path class="cls-6" d="M421.47,325.94a1.23,1.23,0,0,1,0-.18l.09-.53c.1-.49.23-1.17.39-2,.37-1.79.88-4.32,1.51-7.43l5.13-24.49.75-3.54c.12-.58.24-1.16.37-1.73a7.38,7.38,0,0,1,.2-.88c.13-.3.25-.53.36-.8.45-1,.82-2.12,1.26-3.15l1.29-3c.83-1.95,1.67-3.78,2.36-5.53s1.37-3.36,2-4.85,1.07-2.85,1.51-4l1.11-3.06.71-1.94.18-.5a1,1,0,0,1,.07-.17s0,.06,0,.18l-.14.51c-.13.46-.36,1.11-.64,2l-1.05,3.09c-.42,1.2-.85,2.58-1.46,4.07l-1.92,4.87c-.68,1.76-1.51,3.59-2.33,5.54l-1.28,3c-.43,1-.79,2.08-1.25,3.15-.1.27-.25.55-.35.79s-.12.55-.19.82l-.36,1.73-.75,3.54c-2.05,9.54-3.9,18.17-5.24,24.47-.69,3.1-1.24,5.62-1.64,7.4-.19.85-.35,1.52-.46,2l-.13.52C421.5,325.89,421.48,326,421.47,325.94Z"/><path class="cls-6" d="M432.09,286.6a10.79,10.79,0,0,1-.78,1.76c-.51,1.08-1.18,2.57-1.84,4.26s-1.18,3.25-1.55,4.38a12,12,0,0,1-.65,1.82,8.29,8.29,0,0,1,.38-1.9,43.65,43.65,0,0,1,1.45-4.44,35.5,35.5,0,0,1,2-4.25A7.57,7.57,0,0,1,432.09,286.6Z"/><path class="cls-8" d="M426.65,331.88c2.6-1.51,3.65-4.82,3.46-7.82s-1.35-5.83-2.22-8.71l-8-1.68c-2,2.27-4.18,4.39-5.56,7.05s-1.77,6.12,0,8.56Z"/><path class="cls-6" d="M436.46,248.66a1.49,1.49,0,0,1,0,.37c0,.29-.06.64-.1,1.06-.1.91-.25,2.23-.47,3.86-.44,3.26-1.13,7.75-2,12.7s-1.74,9.4-2.46,12.61c-.35,1.6-.67,2.9-.91,3.79-.11.4-.21.74-.28,1a1.12,1.12,0,0,1-.13.34,1.22,1.22,0,0,1,.05-.36c.06-.29.13-.63.21-1,.2-1,.46-2.25.79-3.81.65-3.22,1.47-7.68,2.33-12.62s1.59-9.42,2.1-12.67c.24-1.57.45-2.87.6-3.84l.17-1C436.41,248.79,436.44,248.66,436.46,248.66Z"/><path class="cls-6" d="M427.56,259.43a3.07,3.07,0,0,1,.35.76c.2.5.46,1.23.76,2.14a53.35,53.35,0,0,1,1.77,7.28,52.56,52.56,0,0,1,.72,7.47c0,1,0,1.73,0,2.27a3.3,3.3,0,0,1-.07.83c-.07,0-.08-1.18-.2-3.09a68.16,68.16,0,0,0-.84-7.41,69,69,0,0,0-1.64-7.27C427.88,260.57,427.5,259.45,427.56,259.43Z"/><path class="cls-6" d="M422,264.15a2.81,2.81,0,0,1,.69.51,16.06,16.06,0,0,1,1.63,1.69,26.57,26.57,0,0,1,2.06,2.8,18,18,0,0,1,1.8,3.87,58.51,58.51,0,0,1,2,7.45c.2,1,.33,1.75.41,2.3a3.19,3.19,0,0,1,.08.85,4.65,4.65,0,0,1-.23-.82c-.15-.62-.33-1.38-.54-2.27a76.11,76.11,0,0,0-2.07-7.38,18.26,18.26,0,0,0-1.73-3.8,30.42,30.42,0,0,0-2-2.82c-.6-.77-1.14-1.36-1.52-1.76A4.84,4.84,0,0,1,422,264.15Z"/><rect class="cls-6" x="524.99" y="250.46" width="3" height="50.07" transform="translate(68.5 -103.1) rotate(11.96)"/><rect class="cls-2" x="465.08" y="244.35" width="60.59" height="49.2" transform="translate(66.47 -96.79) rotate(11.96)"/><path class="cls-17" d="M520.8,300.65l-61.52-13L470,237.25l61.52,13ZM462,285.85l57,12.08,9.71-45.88-57-12.08Z"/><rect class="cls-4" x="472.8" y="250.9" width="44.74" height="34.83" transform="translate(66.33 -96.77) rotate(11.96)"/><path class="cls-18" d="M318.2,305.32l10.39,33.28L363.17,308l13.05,11.12s-29.35,46.66-43.59,55.45c-15.8,9.74-34.59-3.07-37-12.48s-14.91-51.59-14.91-51.59Z"/><path class="cls-19" d="M329.4,338c0,.07-.91.6-2.25,1.7a20.34,20.34,0,0,0-2.17,2.13,20.73,20.73,0,0,0-2.17,3,21.33,21.33,0,0,0-1.55,3.38,19.68,19.68,0,0,0-.78,2.94c-.3,1.71-.29,2.79-.37,2.79a2.87,2.87,0,0,1-.05-.76,6.92,6.92,0,0,1,0-.89c0-.35.05-.75.12-1.19a17.81,17.81,0,0,1,.71-3,19.32,19.32,0,0,1,1.56-3.46,19.64,19.64,0,0,1,2.23-3.06A17.08,17.08,0,0,1,327,339.5a10.33,10.33,0,0,1,1-.68,8.47,8.47,0,0,1,.77-.47A3.41,3.41,0,0,1,329.4,338Z"/><path class="cls-8" d="M292.2,338.35l36.39-9.82s-7.81-23.08-13.88-39.76c-5.35-14.7-14.35-20.83-19-24.15a14.29,14.29,0,0,0-6.39-2.53c-8.61-1.15-32.15-4.24-43.83-5.22-14.46-1.2-44.62,6.75-44.62,6.75s-26.47,14.68-35.39,20.6a12.42,12.42,0,0,0-4.78,6c-1.65,4.44-3.74,12.06-6.26,21.93l-6.89,27,31-.95c6.25,19,12.05,36,12.05,36l-2.52,45.5,115.09,0s-10.6-70.37-10.6-72C292.58,347.18,292.41,343.15,292.2,338.35Z"/><g class="cls-15"><path d="M256.4,301.41c-2.27-2.9-6.25-4.09-9.92-3.72a22.43,22.43,0,0,0-10.11,4.17c-9.41,6.39-16.09,16-22,25.72A310.71,310.71,0,0,0,188.52,381l.25,4.75c7.71-1,12.74-7.48,16.09-14.49s4.79-14.8,7.74-22a56.72,56.72,0,0,1,30.54-30.54c4.6.47,9.54-1,12.55-4.51S259.26,305,256.4,301.41Z"/></g><path class="cls-6" d="M292.54,344.38c-.17,0-1.2-10.07-2.3-22.51s-1.85-22.55-1.68-22.56,1.2,10.06,2.3,22.5S292.72,344.36,292.54,344.38Z"/><path class="cls-6" d="M170.3,299.31a8.06,8.06,0,0,1,.45,1.56l1,4.31c.84,3.65,1.95,8.7,3.14,14.28s2.24,10.65,3,14.32c.33,1.75.61,3.21.83,4.36a8.5,8.5,0,0,1,.22,1.61,8.78,8.78,0,0,1-.46-1.56l-1-4.31c-.83-3.65-1.95-8.7-3.14-14.29s-2.23-10.64-3-14.32c-.33-1.74-.61-3.2-.82-4.35A6.87,6.87,0,0,1,170.3,299.31Z"/><path class="cls-6" d="M287,262.53c.18,0-.87,4.08-1.59,9.16s-.87,9.24-1.06,9.24a10.8,10.8,0,0,1-.12-2.74,58.45,58.45,0,0,1,1.88-13.07A10.42,10.42,0,0,1,287,262.53Z"/><path class="cls-18" d="M237.35,283.64l10.47-21.12-3.24-9.23s15.7-8.15,10.34-24.79c-2.6-8-9.28-24.15-15.5-38.66a32.58,32.58,0,0,0-40.33-18.05l-1.6.54c-16.9,6.8-20.56,25-13.29,41.67l21.25,62.09Z"/><path class="cls-19" d="M244.59,253.27a40.68,40.68,0,0,1-23.66,1.13s9.11,10.2,25.14,3.15Z"/><path class="cls-6" d="M240.32,206.26a2.49,2.49,0,0,1-1.48,3.15,2.38,2.38,0,0,1-3.15-1.31,2.49,2.49,0,0,1,1.47-3.16A2.39,2.39,0,0,1,240.32,206.26Z"/><path class="cls-6" d="M238.54,198.19c-.19.4-2.43-.32-5,.54s-4,2.77-4.37,2.55c-.18-.09-.07-.75.55-1.62a6.83,6.83,0,0,1,3.36-2.42,6.62,6.62,0,0,1,4.09-.05C238.18,197.53,238.64,198,238.54,198.19Z"/><path class="cls-6" d="M218.2,212.88a2.51,2.51,0,0,1-1.48,3.16,2.39,2.39,0,0,1-3.16-1.32,2.5,2.5,0,0,1,1.48-3.15A2.39,2.39,0,0,1,218.2,212.88Z"/><path class="cls-6" d="M213.8,205.73c-.14.43-2.45,0-4.88,1.08s-3.66,3.18-4.06,3c-.19-.08-.16-.74.36-1.67a6.9,6.9,0,0,1,3.08-2.77,6.63,6.63,0,0,1,4.06-.49C213.38,205.12,213.88,205.54,213.8,205.73Z"/><path class="cls-6" d="M229.31,223.81c-.07-.14,1.43-.95,3.88-2.14.63-.28,1.2-.62,1.16-1.1s-.51-1.13-1.08-1.78l-3.59-4.31c-5-6.15-8.92-11.29-8.67-11.5s4.53,4.63,9.57,10.78l3.52,4.36a4,4,0,0,1,1.2,2.44,1.72,1.72,0,0,1-.75,1.31,4.42,4.42,0,0,1-1.05.52C231,223.4,229.36,224,229.31,223.81Z"/><path class="cls-6" d="M210.34,196.85c0,.78-2.67,1.31-5.53,2.67s-5,3-5.62,2.51c-.27-.24-.07-1,.68-2a10.68,10.68,0,0,1,8.49-3.94C209.61,196.13,210.34,196.49,210.34,196.85Z"/><path class="cls-6" d="M235.51,191.34c-.26.73-2.21.72-4.33,1.4s-3.77,1.7-4.38,1.23c-.28-.23-.2-.91.4-1.72a6.62,6.62,0,0,1,7-2.12C235.16,190.48,235.61,191,235.51,191.34Z"/><path class="cls-18" d="M189.68,225.81c-.32,0-12.52.46-8.35,11.67s14.56,4.71,14.46,4.38S189.68,225.81,189.68,225.81Z"/><path class="cls-19" d="M190.79,238.89c-.06,0-.14.21-.42.48a2.06,2.06,0,0,1-1.45.57c-1.34,0-3-1.5-3.84-3.5a6.9,6.9,0,0,1-.5-3,2.41,2.41,0,0,1,.91-2,1.06,1.06,0,0,1,1.35.1c.27.26.28.51.35.51s.17-.28-.09-.71a1.38,1.38,0,0,0-.7-.54,1.57,1.57,0,0,0-1.19.12,2.94,2.94,0,0,0-1.39,2.5,7,7,0,0,0,.48,3.37c.91,2.23,2.86,3.92,4.65,3.78a2.24,2.24,0,0,0,1.68-1C190.87,239.16,190.84,238.89,190.79,238.89Z"/><path class="cls-6" d="M222.4,228.09c.41-.16,1.34,2.6,4.37,3.77s5.86-.13,6,.25c.09.16-.48.76-1.71,1.21a7.24,7.24,0,0,1-5-.06,6.32,6.32,0,0,1-3.49-3.21C222.13,228.93,222.21,228.14,222.4,228.09Z"/><path class="cls-6" d="M243.48,165.34a6.93,6.93,0,0,0-5.4-3.78,10,10,0,0,0-.83-1.81c-2.06-3.47-6.69-5.35-10.44-3.86a8.61,8.61,0,0,0-15.21.75,10.27,10.27,0,0,0-10.93,2.1,2.61,2.61,0,0,0-.8,1.23,1.22,1.22,0,0,0,.19.93,6.45,6.45,0,0,0-5.87-1.23,6.14,6.14,0,0,0-1.89,1,7.25,7.25,0,0,0-3.84,3.93,10.37,10.37,0,0,0-10.17,9.29,9.85,9.85,0,0,0-6.07,9.19,7.21,7.21,0,0,0-1.47,12.39s-7.33,4.47-2.89,10.86c2.27,3.26,6.92,1,6.92,1l13.77,20.85c-.06.14,2.37,2.31,3.54,1.27s1.48-2.7,1.84-4.22a16.84,16.84,0,0,0,.87-5.28c-.14-1.78-1.28-3.66-3.05-3.93a6.22,6.22,0,0,0,2-5.88,18.42,18.42,0,0,0-2.41-6l-4.62-8.44a12,12,0,0,0,7.62-9.71,6.84,6.84,0,0,0,8.63-5.46,8.91,8.91,0,0,0,12,1.77c.34,2.49,5.28,3.26,7.79,3.1s4.86-2.76,4.86-2.76a14.13,14.13,0,0,0,5.14.11h0l.25-.06c3.3-.77,5.45-4.72,6.06-8a6.44,6.44,0,0,0,2.36-1.09A6.89,6.89,0,0,0,243.48,165.34Z"/><path class="cls-17" d="M225.51,159.23a3.74,3.74,0,0,1,.45.37,5.45,5.45,0,0,1,1,1.33,7.09,7.09,0,0,1,.37,6,6,6,0,0,1-2.87,3.1,7.27,7.27,0,0,1-4.82.6,6.29,6.29,0,0,1-2.43-1.11,3.92,3.92,0,0,1-1-1,2.51,2.51,0,0,1-.5-1.37,1.81,1.81,0,0,1,.58-1.41,2.74,2.74,0,0,1,1.36-.65,3.7,3.7,0,0,1,1.52,0,4.22,4.22,0,0,1,1.4.59,5.55,5.55,0,0,1,2.55,5.06,6.87,6.87,0,0,1-2.58,4.68,8.68,8.68,0,0,1-4.49,1.88,13,13,0,0,1-4.23-.18,24.51,24.51,0,0,1-5.75-2.08c-.65-.31-1.15-.57-1.48-.74a2.92,2.92,0,0,1-.5-.29,2.49,2.49,0,0,1,.53.21l1.51.68a26.31,26.31,0,0,0,5.74,1.95A13.45,13.45,0,0,0,216,177a8.5,8.5,0,0,0,4.3-1.84,6.67,6.67,0,0,0,2.43-4.43,5.19,5.19,0,0,0-2.38-4.69,3.8,3.8,0,0,0-1.28-.54,3.24,3.24,0,0,0-1.35,0,2.32,2.32,0,0,0-1.17.55,1.42,1.42,0,0,0-.46,1.1,3,3,0,0,0,1.33,2.09,6,6,0,0,0,2.28,1,7,7,0,0,0,4.59-.53,5.81,5.81,0,0,0,2.76-2.92,6.85,6.85,0,0,0,.48-3.34,7,7,0,0,0-.72-2.46A7.53,7.53,0,0,0,225.51,159.23Z"/><path class="cls-18" d="M151.29,339.07s-7.27,26.3-8.87,32.73-1.59,21.34,2,25.76,15.66,7.22,15.66,7.22,23.58-11.52,31.61-25.57,30-52.27,30-52.27l-7-19.08-36.56,34.91.38-4.54Z"/><path class="cls-17" d="M227.66,247.67h0a2.55,2.55,0,0,1,3.45,1.14l21,41.9-5.4,2.4-20.24-42A2.55,2.55,0,0,1,227.66,247.67Z"/><path class="cls-18" d="M213.58,309.06l19.67-20.29H252.1l12.08,15.94s-5.72,1.07-7.77-2l-2.67-3.79s2.67,5.84,1.23,8.71c0,0-2.82,6.66-3.28,7.38-.85,1.34-1.51,2.2-4,1.79s-6.27-2.41-5.86-3.84a2.35,2.35,0,0,1,1.84-1.64L238,310.5s-5.78,10.47-9.26,12.92a27.17,27.17,0,0,1-7,3.52Z"/><path class="cls-19" d="M178.92,342.16c0,.1-1.59.85-4.09,2.32a56.82,56.82,0,0,0-9.14,6.63,57.69,57.69,0,0,0-7.63,8.32c-1.74,2.32-2.67,3.86-2.77,3.8a5.83,5.83,0,0,1,.57-1.14,34,34,0,0,1,1.85-2.92,49.08,49.08,0,0,1,16.9-15.08,33.39,33.39,0,0,1,3.11-1.5A4.69,4.69,0,0,1,178.92,342.16Z"/><path class="cls-19" d="M237.57,294.67a12.32,12.32,0,0,1,2.77-.47c1.71-.21,4.08-.45,6.71-.69a8.28,8.28,0,0,1,2,0,4.25,4.25,0,0,1,1.76.71,6.11,6.11,0,0,1,2,2.41,7.79,7.79,0,0,1,.88,2.68c-.1,0-.45-1-1.27-2.48a6.15,6.15,0,0,0-1.92-2.13,3.7,3.7,0,0,0-1.54-.59,8.21,8.21,0,0,0-1.85,0c-2.62.23-5,.41-6.72.51A12.89,12.89,0,0,1,237.57,294.67Z"/><path class="cls-19" d="M252.59,314c-.1,0,.08-1.43,0-3.71a25,25,0,0,0-.55-4c-.32-1.44-.78-3.15-2.22-4a8.11,8.11,0,0,0-2.32-.82l-2.32-.53a30.37,30.37,0,0,0-4-.61,29.76,29.76,0,0,0-3.69.1,2.42,2.42,0,0,1,1-.31,12.27,12.27,0,0,1,2.74-.22,24.34,24.34,0,0,1,4.06.48c.75.15,1.53.32,2.34.5a8.6,8.6,0,0,1,2.5.88,4.38,4.38,0,0,1,1.77,2,11.09,11.09,0,0,1,.69,2.35,21.2,21.2,0,0,1,.43,4.06,18.84,18.84,0,0,1-.17,2.75A2.91,2.91,0,0,1,252.59,314Z"/><path class="cls-19" d="M245.77,307.17a13.09,13.09,0,0,1,.29,3.78v.37l-.38-.07a3.21,3.21,0,0,0-.63-.06,3.73,3.73,0,0,0-2.6,1.15c-.53.55-.71,1-.8,1s0-.57.46-1.28a3.74,3.74,0,0,1,2.94-1.49,3.16,3.16,0,0,1,.76.08l-.37.3A12.83,12.83,0,0,1,245.77,307.17Z"/><path class="cls-19" d="M245.79,307.8c0,.18-1.74-.08-3.83-.18s-3.8-.05-3.82-.23A8.49,8.49,0,0,1,242,307C244.15,307.11,245.83,307.64,245.79,307.8Z"/><path class="cls-19" d="M238.45,306.82c.16,0,0,1.86-.85,3.94s-2.09,3.48-2.22,3.38.81-1.61,1.65-3.62S238.27,306.79,238.45,306.82Z"/><path class="cls-18" d="M362,309.05s13-16.9,14.38-17.61,19.48-3.37,19.48-3.37-.76,5.7-6,7.38c-3.7,1.19-8,2.12-8,2.12s1.44,11.05-1.22,15.48a69.34,69.34,0,0,1-7.44,9.52Z"/><path class="cls-19" d="M378.15,315.59a15.52,15.52,0,0,0,2.7-4.62,20.67,20.67,0,0,0,1.07-5.73,33.26,33.26,0,0,0,0-3.46,13.1,13.1,0,0,0-.26-1.79,4.79,4.79,0,0,1-.06-2,1.46,1.46,0,0,1,.77-.76,5.38,5.38,0,0,1,.92-.34,17.39,17.39,0,0,1,1.81-.41,25.06,25.06,0,0,0,3.36-.79,11.09,11.09,0,0,0,5-2.9,9.65,9.65,0,0,0,2-3.36c.31-.88.41-1.4.45-1.39a1.34,1.34,0,0,1-.05.38,7.46,7.46,0,0,1-.25,1.05,9.23,9.23,0,0,1-1.9,3.51,11.12,11.12,0,0,1-5.05,3.06,24.5,24.5,0,0,1-3.4.82,15.63,15.63,0,0,0-1.77.41,4.36,4.36,0,0,0-.85.32,1.05,1.05,0,0,0-.57.52,4.69,4.69,0,0,0,.07,1.78,14.2,14.2,0,0,1,.26,1.85,31,31,0,0,1,0,3.49,19.84,19.84,0,0,1-1.16,5.8,13.12,13.12,0,0,1-2,3.48,7.14,7.14,0,0,1-.73.8C378.25,315.52,378.16,315.6,378.15,315.59Z"/><path class="cls-6" d="M279.19,420h87.67a4.28,4.28,0,0,0,4.21-3.51l10.85-59.93a4.28,4.28,0,0,0-4.21-5H290.05a4.28,4.28,0,0,0-4.21,3.52L275,414.93A4.27,4.27,0,0,0,279.19,420Z"/><path class="cls-6" d="M227.38,414.24h56.3a0,0,0,0,1,0,0v.58a5.14,5.14,0,0,1-5.14,5.14H227.38a0,0,0,0,1,0,0v-5.73A0,0,0,0,1,227.38,414.24Z" transform="translate(511.05 834.2) rotate(180)"/><path class="cls-17" d="M291,351.48c-.08,0-3.2,15.3-7,34.2s-6.74,34.25-6.66,34.26,3.2-15.29,6.95-34.2S291.05,351.5,291,351.48Z"/><path class="cls-17" d="M331.36,386.69a3.09,3.09,0,0,1,2.62-2.24h-.26a3,3,0,1,1-2.36,2.24Z"/></g></svg>