<svg xmlns="http://www.w3.org/2000/svg" viewBox="0 0 750 500"><defs><style>.cls-1{fill:#fff6d9;}.cls-2{fill:#e0e0e0;}.cls-3{fill:#fff;}.cls-4{fill:#1f1d36;}.cls-5{fill:#ffbe9d;}.cls-6{fill:#efe4c5;}.cls-7{fill:#272642;}.cls-8{fill:#eb996e;}.cls-9{fill:#ffab4c;}.cls-10{opacity:0.3;}.cls-11{fill:#ebebeb;}.cls-12{fill:#f5f5f5;}.cls-13{opacity:0.4;}.cls-14{opacity:0.2;}.cls-15{fill:#fafafa;}.cls-16{opacity:0.8;}.cls-17{opacity:0.5;}.cls-18{opacity:0.6;}.cls-19{opacity:0.7;}</style></defs><title>Illustrasi</title><g id="Day_Graphic" data-name="Day Graphic"><path class="cls-1" d="M671.43,149.78c-8-14.73-71.52-128.82-159.34-127.15-68.67,1.31-73.94,71.9-172.94,112.67-102.16,42.08-151.21-10.59-204,35.15-67.8,58.71-71.88,219-8.74,273.93,45.35,39.48,87.5-8.32,230.27,1,139.8,9.17,176.47,60.06,244.84,25.85,77.82-38.95,99.16-139.36,101-148.86C719.24,238.11,684,172.91,671.43,149.78Z"/><polygon class="cls-2" points="108.2 275.84 210.5 275.84 210.5 424.16 108.9 424.16 108.2 275.84"/><rect class="cls-3" x="100.53" y="276.54" width="101.36" height="146.92" transform="translate(302.42 700) rotate(180)"/><path class="cls-2" d="M202.59,275.84V424.16H99.83V275.84ZM201.2,422.76V277.24h-100V422.76Z"/><rect class="cls-3" x="113.12" y="292.45" width="76.18" height="115.1"/><path class="cls-2" d="M113.12,292.45s0,.2,0,.57,0,.93,0,1.64c0,1.45,0,3.57,0,6.32,0,5.53,0,13.56.09,23.72,0,20.29.1,49,.17,82.85l-.34-.33,76.17,0h0l-.36.36c0-43.42.05-83.45.07-115.1l.29.29-55.43-.15-15.32-.08-4,0-1.4,0,1.34,0,4,0,15.26-.08,55.61-.15h.29v.29c0,31.65,0,71.68.07,115.1v.36h-.37l-76.17,0h-.33v-.33c.07-33.92.12-62.72.16-83.07,0-10.12.07-18.14.09-23.65,0-2.71,0-4.81,0-6.25,0-.69,0-1.22,0-1.6S113.12,292.45,113.12,292.45Z"/><path class="cls-2" d="M100.24,423.46a13.63,13.63,0,0,1,1.64-2.53c1.09-1.5,2.63-3.54,4.39-5.75s3.45-4.16,4.7-5.53a11.58,11.58,0,0,1,2.15-2.1c.16.14-2.76,3.67-6.28,8.08S100.41,423.59,100.24,423.46Z"/><path class="cls-2" d="M100.53,276.54c.16-.13,3.1,3.34,6.58,7.73s6.17,8.06,6,8.18-3.1-3.34-6.58-7.73S100.37,276.66,100.53,276.54Z"/><path class="cls-3" d="M201.91,276.65,188.63,293"/><path class="cls-2" d="M188.63,293c-.16-.13,2.69-3.9,6.36-8.42s6.76-8.09,6.92-8-2.69,3.89-6.36,8.41S188.79,293.16,188.63,293Z"/><path class="cls-2" d="M201.89,423.46c-.15.13-3.07-3.3-6.51-7.65s-6.1-8-5.94-8.1,3.07,3.3,6.51,7.65S202.05,423.34,201.89,423.46Z"/><path class="cls-2" d="M156.12,351.68h-13.4l-1.6,3.69a8.25,8.25,0,0,0-.78,3.05,2.52,2.52,0,0,0,1.29,2.35,10.69,10.69,0,0,0,3.72.68v1H132.73v-1a5.61,5.61,0,0,0,3.35-1.7,22.4,22.4,0,0,0,3.25-5.72l13.57-30.28h.54l13.68,31.12c1.31,2.95,2.38,4.8,3.22,5.57a4.42,4.42,0,0,0,2.69,1v1H154.67v-1h.75a5.75,5.75,0,0,0,3.11-.62,1.5,1.5,0,0,0,.61-1.29,3.45,3.45,0,0,0-.16-1q-.06-.25-.84-2.1Zm-1-2.07-5.65-13.07-5.82,13.07Z"/><rect class="cls-3" x="581.79" y="223.75" width="41.69" height="71.5"/><rect class="cls-2" x="581.79" y="223.75" width="41.69" height="6.02"/><polygon class="cls-2" points="591.81 237.3 592.31 243.97 594.18 241.54 597.3 241.41 591.81 237.3"/><path class="cls-2" d="M609.83,237.3l.09.06.3.22,1.14.83,4,2.94.17.13h-.21l-3,.13h-.11l.06,0L610.39,244l-.12.16,0-.2c-.12-1.93-.23-3.59-.32-4.84,0-.55-.06-1-.08-1.37,0-.13,0-.25,0-.36s0-.12,0-.11,0,0,0,.14l0,.38c0,.36.07.83.12,1.39.1,1.22.24,2.86.41,4.76l-.14,0,1.86-2.44,0,0h.15l3-.12,0,.14-3.89-3-1.14-.87-.3-.24Z"/><path class="cls-2" d="M590.6,266.34s2-2.23,4.66-4.91,4.75-4.83,4.78-4.8-2.06,2.23-4.66,4.91S590.63,266.38,590.6,266.34Z"/><path class="cls-2" d="M619.54,261.42a9.66,9.66,0,0,0-.22-1.49,6.15,6.15,0,0,0-2.17-3.38,6,6,0,0,0-2.53-1.17,5.84,5.84,0,0,0-3.18.28,5.52,5.52,0,0,0-1.51.85,5.77,5.77,0,0,0-1.25,1.31,6.26,6.26,0,0,0,0,7.19,5.82,5.82,0,0,0,1.26,1.31,5.55,5.55,0,0,0,1.51.86,5.81,5.81,0,0,0,5.71-.89,6.15,6.15,0,0,0,2.17-3.38,9.83,9.83,0,0,0,.22-1.49v.39a4.7,4.7,0,0,1,0,.47,4.42,4.42,0,0,1-.12.64,6.18,6.18,0,0,1-2.16,3.46,5.93,5.93,0,0,1-5.83.94,5.86,5.86,0,0,1-1.56-.87,5.68,5.68,0,0,1-1.28-1.35,6.39,6.39,0,0,1,0-7.37,6,6,0,0,1,1.28-1.34,5.59,5.59,0,0,1,1.56-.87,5.93,5.93,0,0,1,5.83.94,6.24,6.24,0,0,1,2.16,3.45,5,5,0,0,1,.12.64c0,.19,0,.35,0,.48Z"/><path class="cls-2" d="M614.14,277.3l.15.12c.11.1.25.22.43.36l1.63,1.42,0,0,0,0-7,8,0,0h0l-.84.13-1.52.23h-.11l0-.11q.28-1.44.54-2.76v0h0c1.9-2.24,3.55-4.14,4.74-5.47a14.15,14.15,0,0,1,2-2l-.15.13c-.08.09-.22.22-.38.4-.34.36-.8.89-1.39,1.56-1.18,1.35-2.81,3.27-4.7,5.51v0c-.17.88-.35,1.8-.53,2.76l-.09-.09,1.51-.23.85-.13,0,0,7.06-8v.07l-1.58-1.44-.42-.39Z"/><path class="cls-2" d="M598.89,287.05a1.31,1.31,0,0,1,0-.19v-.54c0-.5,0-1.19,0-2.06,0-1.78,0-4.28,0-7.26l.07.07h-9.77l.08-.08h0v2.69c0,.89,0,1.76,0,2.61,0,1.68,0,3.27,0,4.73l-.06-.06,7.06,0,2,0h0l-2,0-7.11,0h-.07v-.07c0-1.46,0-3.05,0-4.73V277h0c-.07.07.1-.1.09-.08H599V277c0,3,0,5.51,0,7.31,0,.85,0,1.54,0,2,0,.21,0,.39,0,.53S598.89,287.06,598.89,287.05Z"/><path class="cls-2" d="M590.6,277a28.13,28.13,0,0,1-4.24,0,28.13,28.13,0,0,1,4.24,0Z"/><path class="cls-2" d="M589.12,278.93a31.65,31.65,0,0,1,0-4.77,35.59,35.59,0,0,1,0,4.77Z"/><path class="cls-2" d="M623.48,295.26s0-.12,0-.35,0-.58,0-1c0-.9,0-2.22,0-3.94,0-3.43,0-8.44,0-14.76,0-12.63,0-30.49-.06-51.44l.13.13H581.79l.13-.14c0,27.28,0,52.3,0,71.51l-.1-.11,30.41.06,8.34,0,2.19,0h-2.15l-8.32,0-30.47.05h-.1v-.1c0-19.21,0-44.23,0-71.51v-.13H623.6v.12c0,21,0,38.87-.06,51.52,0,6.31,0,11.31,0,14.74,0,1.7,0,3,0,3.91v1C623.48,295.15,623.48,295.26,623.48,295.26Z"/><path class="cls-4" d="M662.69,442.49c.13,0-84.09.25-258.19.25s-315.32-.11-315.32-.25,141.14-.25,315.32-.25S611.3,442.49,662.69,442.49Z"/><path class="cls-5" d="M321.72,293.19c0,.6-3.15,4.41-1.89,8.57.36,1.19,3.44,3.58,3.44,3.58l-3.22,5.77,19.25,8.24L349,300.46,329.61,295Z"/><path class="cls-6" d="M333.08,271.19a8.48,8.48,0,0,1-1.88-12.12c2.1-2.48,5.61-3.64,7.19-6.48,1.16-2.1,1-4.67.53-7s-1.23-4.68-1.14-7.08,1.26-5,3.5-5.81c3.12-1.17,6.4,1.47,8.14,4.31a21.44,21.44,0,0,1,1,20.1c-1.31,2.74-3.19,5.16-4.61,7.83s-2.39,5.8-1.64,8.74"/><path class="cls-4" d="M342,241.38a14.67,14.67,0,0,1,1.33,4,11.52,11.52,0,0,1-.25,4.49,12,12,0,0,1-1,2.46,10.56,10.56,0,0,1-1.72,2.26c-1.41,1.35-3.11,2.39-4.17,3.87a8.47,8.47,0,0,0-1.62,4.4,8,8,0,0,0,.36,3.14,3,3,0,0,0,.49,1,10.79,10.79,0,0,1-.45-4.14,8.4,8.4,0,0,1,1.63-4.13c1-1.36,2.67-2.36,4.15-3.78a10.81,10.81,0,0,0,1.82-2.39,12.49,12.49,0,0,0,1-2.61,11.36,11.36,0,0,0,.14-4.68,9.57,9.57,0,0,0-1.06-3A3.08,3.08,0,0,0,342,241.38Z"/><path class="cls-4" d="M347.12,241.77a14.5,14.5,0,0,1,1.33,4,11.51,11.51,0,0,1-.25,4.49,11.87,11.87,0,0,1-1,2.47,10.81,10.81,0,0,1-1.73,2.25c-1.41,1.36-3.1,2.4-4.17,3.88a8.45,8.45,0,0,0-1.61,4.4,8,8,0,0,0,.36,3.14,2.92,2.92,0,0,0,.49,1,10.83,10.83,0,0,1-.45-4.14,8.31,8.31,0,0,1,1.63-4.13c1-1.36,2.66-2.36,4.15-3.78A10.76,10.76,0,0,0,347.7,253a12.21,12.21,0,0,0,1-2.61,11.34,11.34,0,0,0,.13-4.68,9.35,9.35,0,0,0-1-3A3.3,3.3,0,0,0,347.12,241.77Z"/><path class="cls-6" d="M339,208.19a4.68,4.68,0,0,0-2.86,3.05,6.93,6.93,0,0,0,.15,4.27,6.75,6.75,0,0,0,1.92,3,4.45,4.45,0,0,0,3.31,1.11,5.27,5.27,0,0,0,3.68-2.64,6.87,6.87,0,0,0,.23-7.16c-1.36-2.12-4.5-3.05-6.58-1.62"/><path class="cls-7" d="M322,267.58l-3.45,30.9a4.56,4.56,0,0,0,3.77,5l18.84,3.12a4.53,4.53,0,0,0,5.21-3.65l5.52-29.83Z"/><path class="cls-5" d="M321.69,270.53s9.81,10.63,8.16,14c-1,2-3.58,1.8-5.08-.08s-3.44-4.14-4.77-5.74C318.24,276.63,318.5,270.28,321.69,270.53Z"/><path class="cls-5" d="M319.77,278s8.93,8.69,7.47,11.6-4.09,1.17-5.39-.45-2.17-3-3.32-4.39C317,282.91,316.7,276.91,319.77,278Z"/><path class="cls-5" d="M319.09,285s6.35,6.91,5.25,9.13-2.47,1.72-3.45.49-2.26-2.72-3.13-3.77C316.61,289.42,317,284.43,319.09,285Z"/><path class="cls-5" d="M349,300.14l5.09-11.91-11.88-13.47s-3,1.88-1.21,5.85,6.26,7.62,6.26,7.62l-.32,11.91Z"/><path class="cls-7" d="M344.86,277.24c0,.3,2.36-.22,5.62,1.16a11.33,11.33,0,0,1,4.68,3.7,10.79,10.79,0,0,1-1,13.45,11.58,11.58,0,0,1-5.18,3c-3.42.88-5.67,0-5.73.32,0,.1.47.43,1.49.71a10.34,10.34,0,0,0,4.5.14,11.74,11.74,0,0,0,6-3,11.9,11.9,0,0,0,1.14-15.5,11.75,11.75,0,0,0-5.52-3.89,10.54,10.54,0,0,0-4.47-.52C345.38,276.88,344.84,277.14,344.86,277.24Z"/><path class="cls-8" d="M319.39,277.51a58.35,58.35,0,0,0,7.34,8.86,30.13,30.13,0,0,0-3.45-4.61A29.43,29.43,0,0,0,319.39,277.51Z"/><path class="cls-8" d="M318.39,284.61a24.9,24.9,0,0,0,5.63,7,22.61,22.61,0,0,0-2.69-3.6A23.38,23.38,0,0,0,318.39,284.61Z"/><path class="cls-8" d="M324.6,306.35a22.52,22.52,0,0,0,4.67,2.06,22.85,22.85,0,0,0,4.87,1.53,23.16,23.16,0,0,0-4.67-2.06A24,24,0,0,0,324.6,306.35Z"/><path class="cls-9" d="M339.92,382.9s-3.29-38.7-1.49-43.63,7.06-23.43,7.06-23.43l-28.43-8.48s-14.52,38.28-19.51,71.87Z"/><path class="cls-9" d="M348.29,408.64l35.07-39.26.35,47.72-9.78,25.39H479.31l3.19-59.34,7.55-63.57a17.24,17.24,0,0,0-10.81-18.09l-28.87-11.37-40.66,7.46-16.35,6.21a44.88,44.88,0,0,0-17.83,12.4l-49.23,56.3"/><path class="cls-7" d="M383.43,415.07c-.25,0-.62-16.53-.82-36.92s-.18-36.92.07-36.92.61,16.52.81,36.92S383.67,415.07,383.43,415.07Z"/><path class="cls-9" d="M386.59,427.2,450,401.69a14.5,14.5,0,0,0,9-12.33l4.63-60.77s-.54-25.85,15.6-27.1l9.18,3.61c11.87,6.31,14.81,23.59,13.2,36.93-2.3,19-3.26,45.78-5.83,62.24-2.1,13.46-9.81,25.3-23,28.76l-77.15,9.86Z"/><path class="cls-7" d="M462.74,337.86a8.34,8.34,0,0,0-.2,1.39c-.11,1-.24,2.32-.41,4-.33,3.57-.78,8.58-1.34,14.74s-1.18,13.65-1.88,21.86q-.26,3.09-.53,6.33a47.9,47.9,0,0,1-.81,6.5,10.83,10.83,0,0,1-3.15,5.69,21.29,21.29,0,0,1-5.85,3.64c-17.48,7.56-33.58,13.81-45.28,18.19l-13.88,5.11-3.77,1.39a8.88,8.88,0,0,0-1.3.54,7.94,7.94,0,0,0,1.35-.38l3.83-1.24c3.32-1.1,8.1-2.74,14-4.86,11.76-4.24,27.89-10.39,45.42-18A22.05,22.05,0,0,0,455,399a11.61,11.61,0,0,0,3.38-6.11,48.72,48.72,0,0,0,.8-6.62c.18-2.16.34-4.27.51-6.33.64-8.22,1.21-15.63,1.7-21.88s.81-11.19,1.07-14.76c.1-1.69.18-3,.25-4A12.29,12.29,0,0,0,462.74,337.86Z"/><path class="cls-4" d="M472,413.42a9.56,9.56,0,0,0-1.16-3.38,21.76,21.76,0,0,0-12.86-11,9.55,9.55,0,0,0-3.51-.62,32.08,32.08,0,0,0,3.32,1.18,24.61,24.61,0,0,1,12.52,10.7C471.34,412.19,471.81,413.46,472,413.42Z"/><g class="cls-10"><path d="M404.81,420c6.77-3.83,13.4-6.77,20.49-10s14-7.35,18.67-13.6c8.74-11.79,7.75-28.81,16.7-40.44q-.87,11.73-1.75,23.47c-.54,7.17.56,14.26-4.06,19.13-3.89,4.1-11.48,7.25-16.85,9-10.79,3.56-22.41,8.85-33.2,12.41"/></g><path class="cls-7" d="M430.4,442.49a5.71,5.71,0,0,0,.94-.17l2.67-.57,9.85-1.94c4.16-.8,9.12-1.75,14.61-2.9,2.75-.57,5.62-1.19,8.59-1.91a55.82,55.82,0,0,0,9.08-2.74,30.42,30.42,0,0,0,13.93-11.59,46.24,46.24,0,0,0,5.46-13.87,67.44,67.44,0,0,0,1.52-9.94c.08-1.19.13-2.11.14-2.73a6.46,6.46,0,0,0,0-1,5.62,5.62,0,0,0-.11.95c0,.62-.13,1.54-.24,2.72a73.84,73.84,0,0,1-1.69,9.86,47.26,47.26,0,0,1-5.51,13.69,30.15,30.15,0,0,1-13.72,11.35,56.24,56.24,0,0,1-9,2.72c-3,.72-5.83,1.36-8.57,1.94l-14.58,3c-4.15.85-7.51,1.57-9.82,2.11-1.15.28-2,.5-2.65.67A5.94,5.94,0,0,0,430.4,442.49Z"/><path class="cls-5" d="M384.67,429.7,380.89,428l-5.84-6.91a9,9,0,0,0-8.55-3l-13.58,2.58,3.66,17.91h29.3Z"/><path class="cls-4" d="M370.19,204.84c5.75-3.36,13.52.66,19.59-2.1,3.68-1.67,5.87-5.44,8.85-8.18,4.46-4.08,11.62-6.26,17.5-4.84s9.94,3.47,12,9.14c4.13-3.87,13.52.26,17.61,5.42s4.83,11.32,4.76,17.9a86.81,86.81,0,0,1-6.95,33.06c-.39.93-1.11,2-2.09,1.81-.68-.14-1.06-.85-1.33-1.5-2.25-5.47-2.91-11.44-3.77-17.3s-2-11.82-5.13-16.86-8.56-9-14.48-8.79c-4.36.16-8.38,2.54-11.6,5.5s-5.81,6.52-8.79,9.73-6.46,6.14-10.67,7.33-9.24.26-12-3.16-2-9.37,2-11.24a8.59,8.59,0,0,1-5.54-15.92Z"/><path class="cls-5" d="M442,226.05l9,65.74a19.74,19.74,0,0,1-17.83,22.36h0a19.76,19.76,0,0,1-21.29-17c-.67-4.95-1.25-9.07-1.35-9.58,0,0-16.95.73-20.44-15.67-1.69-7.92-3.83-24.53-5.59-39.57a31.22,31.22,0,0,1,24.91-34.25l1.58-.31C428.35,195.34,440.07,208.68,442,226.05Z"/><path class="cls-8" d="M410.51,287.33A39,39,0,0,0,430.72,277s-2.7,12.84-19.4,14.64Z"/><path class="cls-4" d="M391.54,242.37a2.39,2.39,0,0,0,2.73,1.92,2.3,2.3,0,0,0,2-2.6,2.39,2.39,0,0,0-2.73-1.92A2.28,2.28,0,0,0,391.54,242.37Z"/><path class="cls-4" d="M389.69,239.68c.35.25,1.87-1.43,4.4-1.92s4.63.39,4.84,0c.11-.17-.3-.66-1.22-1.09a6.65,6.65,0,0,0-4-.4,6.31,6.31,0,0,0-3.42,1.91C389.67,239,389.52,239.57,389.69,239.68Z"/><path class="cls-4" d="M416.49,238.28a2.38,2.38,0,0,0,2.73,1.91,2.29,2.29,0,0,0,2-2.6,2.4,2.4,0,0,0-2.74-1.91A2.28,2.28,0,0,0,416.49,238.28Z"/><path class="cls-4" d="M414.62,235.19c.35.25,1.87-1.43,4.39-1.92s4.64.39,4.85,0c.1-.17-.3-.66-1.23-1.09a6.62,6.62,0,0,0-3.95-.4,6.31,6.31,0,0,0-3.42,1.91C414.6,234.47,414.45,235.08,414.62,235.19Z"/><path class="cls-4" d="M409.19,255.76c0-.15-1.64-.11-4.25.07-.66.07-1.29.06-1.49-.36a3.42,3.42,0,0,1,.05-2q.44-2.52.93-5.29c1.25-7.52,2-13.66,1.71-13.7s-1.56,6-2.81,13.53q-.45,2.78-.84,5.31a3.76,3.76,0,0,0,.17,2.6,1.67,1.67,0,0,0,1.25.73,4.31,4.31,0,0,0,1.12-.07C407.62,256.21,409.21,255.9,409.19,255.76Z"/><path class="cls-4" d="M417,256c-.42.06.12,2.8-1.83,5.21s-4.94,2.7-4.89,3.09c0,.18.76.4,2,.19a7,7,0,0,0,4.11-2.42,6.09,6.09,0,0,0,1.36-4.34C417.6,256.58,417.16,256,417,256Z"/><path class="cls-4" d="M412,225.42c.38.64,2.84-.19,5.88-.43s5.59.09,5.86-.6c.12-.33-.43-.89-1.53-1.36a10.17,10.17,0,0,0-8.94.78C412.25,224.46,411.81,225.11,412,225.42Z"/><path class="cls-4" d="M389.16,232.18c.56.49,2.18-.46,4.27-.9s3.94-.39,4.23-1.07c.12-.33-.28-.85-1.16-1.24a6.13,6.13,0,0,0-3.67-.24,6.06,6.06,0,0,0-3.18,1.83C389,231.3,388.91,231.94,389.16,232.18Z"/><path class="cls-5" d="M443.1,238.49c.25-.18,10.62-5.6,12.51,5.71s-9.86,10.87-9.93,10.55S443.1,238.49,443.1,238.49Z"/><path class="cls-8" d="M448.42,249.89s.22.1.58.2a2,2,0,0,0,1.47-.22c1.13-.63,1.82-2.7,1.53-4.75a6.53,6.53,0,0,0-1-2.72,2.32,2.32,0,0,0-1.74-1.27,1,1,0,0,0-1.07.73c-.1.35,0,.56,0,.59s-.28-.15-.27-.63a1.32,1.32,0,0,1,.33-.79,1.58,1.58,0,0,1,1-.47,2.81,2.81,0,0,1,2.35,1.42,6.73,6.73,0,0,1,1.21,3c.31,2.3-.5,4.62-2.06,5.37a2.14,2.14,0,0,1-1.85,0C448.48,250.16,448.38,249.92,448.42,249.89Z"/><path class="cls-4" d="M380.38,229.6a24.23,24.23,0,0,0,20.15-9c3.32-4.19,5.43-9.68,10.13-12.22a13.67,13.67,0,0,1,10.49-.65,26.33,26.33,0,0,1,9.17,5.57c-1.51,9,2.49,17.89,6.38,26.13a4.56,4.56,0,0,0,1.83,2.33c1.53.76,3.36-.44,4.28-1.88,1.47-2.31,1.64-5.2,1.59-7.94a47.13,47.13,0,0,0-3.76-18.21,32.1,32.1,0,0,0-11.82-14.16,30.43,30.43,0,0,0-22.5-3.72,37.28,37.28,0,0,0-19.72,11.84,21.87,21.87,0,0,0-5.31,9.33"/><path class="cls-7" d="M366.26,209.74a2.41,2.41,0,0,0,.3,1,4.64,4.64,0,0,0,2,2,7.33,7.33,0,0,0,4.48.56,12,12,0,0,0,2.75-.73,6.09,6.09,0,0,0,2.6-1.9,4,4,0,0,0,.77-3.45,3.53,3.53,0,0,0-3-2.39,4.3,4.3,0,0,0-2.07.14,3.79,3.79,0,0,0-1.76,1.25,5.22,5.22,0,0,0-.88,4.27,6.07,6.07,0,0,0,2.59,3.77,9.24,9.24,0,0,0,4.54,1.49,15.07,15.07,0,0,0,9.39-3,43.38,43.38,0,0,0,7.31-6.66,53.91,53.91,0,0,1,6.58-6.32,17,17,0,0,1,7.35-3.43,16.17,16.17,0,0,1,7.06.39,20.35,20.35,0,0,1,8.82,5.28,27.86,27.86,0,0,1,1.9,2.11,8.35,8.35,0,0,0,.64.76s0-.08-.12-.22-.23-.35-.43-.61a20.58,20.58,0,0,0-1.84-2.19,20.05,20.05,0,0,0-8.86-5.52,16.5,16.5,0,0,0-7.25-.46,17.28,17.28,0,0,0-7.59,3.47,53.52,53.52,0,0,0-6.66,6.36,43.32,43.32,0,0,1-7.23,6.57,14.53,14.53,0,0,1-9,2.88,8.59,8.59,0,0,1-4.26-1.39,5.47,5.47,0,0,1-2.39-3.43,4.71,4.71,0,0,1,.77-3.85,3.44,3.44,0,0,1,3.36-1.24,3.11,3.11,0,0,1,2.61,2.05,3.61,3.61,0,0,1-.67,3.09,5.77,5.77,0,0,1-2.41,1.81A12.2,12.2,0,0,1,373,213a7.13,7.13,0,0,1-4.33-.45,4.72,4.72,0,0,1-2-1.86A7.38,7.38,0,0,1,366.26,209.74Z"/><path class="cls-7" d="M449.71,213.56a19.46,19.46,0,0,1-3.26,1.58,10,10,0,0,1-3.84.36,16.67,16.67,0,0,1-4.62-1.19,13.42,13.42,0,0,1-6.35-5.69,27.94,27.94,0,0,1-1.44-3.34,3.18,3.18,0,0,0,.14,1,11.35,11.35,0,0,0,1,2.54,13.12,13.12,0,0,0,6.48,6,16.27,16.27,0,0,0,4.8,1.18,9.79,9.79,0,0,0,4-.5,8.92,8.92,0,0,0,2.39-1.29A3.16,3.16,0,0,0,449.71,213.56Z"/><path class="cls-7" d="M450.84,221.79c0-.1-1.29.46-3.43.76a15.73,15.73,0,0,1-14.85-6.05c-1.32-1.72-1.83-3-1.92-2.94a2.61,2.61,0,0,0,.3.91,12.58,12.58,0,0,0,1.3,2.27A15.16,15.16,0,0,0,447.47,223a13.87,13.87,0,0,0,2.52-.72A2.78,2.78,0,0,0,450.84,221.79Z"/><path class="cls-8" d="M425.16,244.25a.31.31,0,1,0-.29-.31A.3.3,0,0,0,425.16,244.25Z"/><path class="cls-8" d="M420.11,244.12a.33.33,0,0,0,.29-.36.29.29,0,1,0-.57,0A.33.33,0,0,0,420.11,244.12Z"/><path class="cls-8" d="M416.85,244.69c.15,0,.26-.23.25-.48s-.16-.46-.32-.45-.27.23-.25.49S416.69,244.7,416.85,244.69Z"/><path class="cls-8" d="M423.39,247.76c.15,0,.26-.14.24-.24s-.16-.15-.31-.12-.26.13-.24.23S423.24,247.79,423.39,247.76Z"/><path class="cls-8" d="M418.76,247.61a.31.31,0,0,0,.25-.35.29.29,0,1,0-.57.06A.3.3,0,0,0,418.76,247.61Z"/><ellipse class="cls-8" cx="395.17" cy="249.14" rx="0.28" ry="0.32"/><path class="cls-8" d="M391.82,249.82a.32.32,0,0,0,.25-.38c0-.2-.16-.35-.32-.33a.32.32,0,0,0-.25.38C391.52,249.69,391.67,249.84,391.82,249.82Z"/><path class="cls-8" d="M398.09,249a.25.25,0,1,0,0-.5.25.25,0,1,0,0,.5Z"/><path class="cls-8" d="M396.31,252.74a.33.33,0,0,0,.14-.64.33.33,0,0,0-.14.64Z"/><path class="cls-8" d="M393.39,252.74a.26.26,0,0,0,.15-.34.26.26,0,0,0-.36-.08.26.26,0,0,0-.15.34A.27.27,0,0,0,393.39,252.74Z"/><polygon class="cls-7" points="252.42 371.62 284.38 442.49 423.56 442.49 422.99 438.89 374.76 438.08 350.44 371.93 252.42 371.62"/><path class="cls-11" d="M316.09,403.73a5.46,5.46,0,0,0-4.46-.36,5.57,5.57,0,0,0-3.43,3.76c-.82,3.38,2,6.19,5,6.35a5.06,5.06,0,0,0,5.1-3.37c.62-2.11-.06-5.27-2.24-6.38"/><rect class="cls-12" x="216.59" y="352.99" width="16.78" height="19.95"/><rect class="cls-9" x="141.35" y="351.69" width="75.82" height="22.5"/><path class="cls-9" d="M233.88,353.58H215.14v-1.89h18.74a1,1,0,0,1,1,.95h0A1,1,0,0,1,233.88,353.58Z"/><path class="cls-9" d="M233.88,374.19H215.14V372.3h18.74a1,1,0,0,1,1,.94h0A1,1,0,0,1,233.88,374.19Z"/><g class="cls-13"><rect x="202.25" y="351.69" width="8.96" height="22.5"/></g><g class="cls-13"><rect x="148.08" y="351.69" width="8.96" height="22.5"/></g><path class="cls-2" d="M233.37,356.29s-3.63.1-8.11.1-8.11-.05-8.11-.1,3.63-.1,8.11-.1S233.37,356.23,233.37,356.29Z"/><path class="cls-2" d="M233.37,359.28c0,.06-3.63.1-8.11.1s-8.11,0-8.11-.1,3.63-.1,8.11-.1S233.37,359.23,233.37,359.28Z"/><path class="cls-2" d="M233.37,363c0,.06-3.63.1-8.11.1s-8.11,0-8.11-.1,3.63-.1,8.11-.1S233.37,362.91,233.37,363Z"/><path class="cls-2" d="M233.37,366.65c0,.05-3.63.1-8.11.1s-8.11-.05-8.11-.1,3.63-.1,8.11-.1S233.37,366.59,233.37,366.65Z"/><path class="cls-2" d="M233.37,370.33c0,.05-3.63.1-8.11.1s-8.11-.05-8.11-.1,3.63-.1,8.11-.1S233.37,370.27,233.37,370.33Z"/><g class="cls-14"><rect x="163.33" y="360.94" width="34.11" height="4.05"/></g><rect class="cls-15" x="216.17" y="374.63" width="17.03" height="12.15"/><rect class="cls-7" x="143.86" y="374.19" width="72.5" height="13.04"/><path class="cls-7" d="M215.83,375.07h18.31a.44.44,0,0,0,.44-.44h0a.44.44,0,0,0-.44-.44H215.83Z"/><path class="cls-7" d="M215.83,386.34h18.35a.4.4,0,0,1,.4.4v.08a.4.4,0,0,1-.4.4H215.83a0,0,0,0,1,0,0v-.88A0,0,0,0,1,215.83,386.34Z"/><path class="cls-2" d="M233.2,376.94c0,.06-3.77.1-8.42.1s-8.42,0-8.42-.1,3.77-.1,8.42-.1S233.2,376.89,233.2,376.94Z"/><path class="cls-2" d="M233.2,379.24c0,.05-3.77.1-8.42.1s-8.42,0-8.42-.1,3.77-.1,8.42-.1S233.2,379.18,233.2,379.24Z"/><path class="cls-2" d="M233.2,381.54s-3.77.1-8.42.1-8.42-.05-8.42-.1,3.77-.1,8.42-.1S233.2,381.48,233.2,381.54Z"/><path class="cls-2" d="M233.2,383.84c0,.05-3.77.1-8.42.1s-8.42-.05-8.42-.1,3.77-.1,8.42-.1S233.2,383.78,233.2,383.84Z"/><rect class="cls-11" x="218.4" y="388.38" width="17.39" height="32.95"/><rect class="cls-9" x="136.78" y="387.23" width="81.62" height="35.72"/><path class="cls-9" d="M237.15,423h-21v-2.32h21a1.15,1.15,0,0,1,1.15,1.16h0A1.15,1.15,0,0,1,237.15,423Z"/><path class="cls-9" d="M216.17,387.23h21.09a1,1,0,0,1,1,1v.22a1,1,0,0,1-1,1H216.17a0,0,0,0,1,0,0v-2.32A0,0,0,0,1,216.17,387.23Z"/><path class="cls-2" d="M235.79,392.8c0,.06-3.9.1-8.7.1s-8.69,0-8.69-.1,3.89-.1,8.69-.1S235.79,392.75,235.79,392.8Z"/><path class="cls-2" d="M235.79,397c0,.05-3.9.1-8.7.1s-8.69-.05-8.69-.1,3.89-.1,8.69-.1S235.79,397,235.79,397Z"/><path class="cls-2" d="M235.79,401.25c0,.06-3.9.1-8.7.1s-8.69,0-8.69-.1,3.89-.1,8.69-.1S235.79,401.2,235.79,401.25Z"/><path class="cls-2" d="M235.79,405.48s-3.9.1-8.7.1-8.69-.05-8.69-.1,3.89-.1,8.69-.1S235.79,405.42,235.79,405.48Z"/><path class="cls-2" d="M235.79,409.7c0,.06-3.9.1-8.7.1s-8.69,0-8.69-.1,3.89-.1,8.69-.1S235.79,409.65,235.79,409.7Z"/><path class="cls-2" d="M235.79,413.93c0,.05-3.9.1-8.7.1s-8.69,0-8.69-.1,3.89-.1,8.69-.1S235.79,413.87,235.79,413.93Z"/><path class="cls-2" d="M235.79,418.15c0,.06-3.9.1-8.7.1s-8.69,0-8.69-.1,3.89-.1,8.69-.1S235.79,418.1,235.79,418.15Z"/><path class="cls-11" d="M164.71,407v2c0,2.39-1.2,3.76-3.51,3.76s-3.5-1.37-3.5-3.76v-7.78c0-2.39,1.2-3.76,3.5-3.76s3.51,1.37,3.51,3.76v1.45h-2.22v-1.6c0-1.07-.47-1.47-1.22-1.47s-1.22.4-1.22,1.47v8.08c0,1.07.47,1.45,1.22,1.45s1.22-.38,1.22-1.45V407Z"/><path class="cls-11" d="M166,401.25c0-2.39,1.26-3.76,3.57-3.76s3.57,1.37,3.57,3.76V409c0,2.39-1.27,3.76-3.57,3.76S166,411.42,166,409Zm2.35,7.93c0,1.07.47,1.47,1.22,1.47s1.21-.4,1.21-1.47V401.1c0-1.07-.47-1.47-1.21-1.47s-1.22.4-1.22,1.47Z"/><path class="cls-11" d="M174.6,397.66H177v12.82h3.87v2.14H174.6Z"/><path class="cls-11" d="M181.65,401.25c0-2.39,1.26-3.76,3.57-3.76s3.57,1.37,3.57,3.76V409c0,2.39-1.26,3.76-3.57,3.76s-3.57-1.37-3.57-3.76Zm2.35,7.93c0,1.07.47,1.47,1.22,1.47s1.22-.4,1.22-1.47V401.1c0-1.07-.47-1.47-1.22-1.47S184,400,184,401.1Z"/><path class="cls-11" d="M192.55,397.66V409.2c0,1.07.47,1.45,1.22,1.45s1.22-.38,1.22-1.45V397.66h2.22v11.39c0,2.39-1.2,3.76-3.51,3.76s-3.5-1.37-3.5-3.76V397.66Z"/><path class="cls-11" d="M203.73,412.62a4.51,4.51,0,0,1-.22-1.84v-2.35c0-1.39-.47-1.9-1.54-1.9h-.81v6.09h-2.35v-15h3.55c2.43,0,3.48,1.13,3.48,3.44v1.18c0,1.53-.49,2.54-1.54,3,1.18.49,1.56,1.62,1.56,3.18v2.31a4.34,4.34,0,0,0,.26,1.82Zm-2.57-12.82v4.59h.92c.88,0,1.41-.38,1.41-1.58v-1.47c0-1.07-.36-1.54-1.2-1.54Z"/><path class="cls-4" d="M164.2,379.32h-1.71l.09-.44h3.93l-.1.44h-1.7l-.88,4.42h-.51Z"/><path class="cls-4" d="M169.81,380.09l-2.66,4.12c-.45.69-.79.91-1.32.91a1.18,1.18,0,0,1-.87-.33l.27-.36a.83.83,0,0,0,.64.27c.31,0,.56-.15.84-.59l.26-.39-.91-3.63h.5l.75,3.11,2-3.11Z"/><path class="cls-4" d="M173.87,381.6a2.05,2.05,0,0,1-2.07,2.17,1.34,1.34,0,0,1-1.38-.8l-.42,2.12h-.49l1-5H171l-.12.58a1.86,1.86,0,0,1,1.43-.61A1.47,1.47,0,0,1,173.87,381.6Zm-.5,0a1.07,1.07,0,0,0-1.2-1.14,1.59,1.59,0,0,0-1.57,1.71,1.06,1.06,0,0,0,1.2,1.14A1.59,1.59,0,0,0,173.37,381.63Z"/><path class="cls-4" d="M174.45,382.23a2.07,2.07,0,0,1,2.11-2.17,1.49,1.49,0,0,1,1.65,1.54,2.07,2.07,0,0,1-2.11,2.17A1.5,1.5,0,0,1,174.45,382.23Zm3.27-.6a1.07,1.07,0,0,0-1.2-1.14,1.6,1.6,0,0,0-1.58,1.71,1.07,1.07,0,0,0,1.2,1.14A1.6,1.6,0,0,0,177.72,381.63Z"/><path class="cls-4" d="M182.94,380.09l-.64,3.2a1.94,1.94,0,0,1-2.12,1.83,2.31,2.31,0,0,1-1.63-.55l.29-.37a1.91,1.91,0,0,0,1.37.48,1.42,1.42,0,0,0,1.58-1.3l.09-.41a1.9,1.9,0,0,1-1.46.63,1.44,1.44,0,0,1-1.61-1.47,2,2,0,0,1,2.08-2.07,1.4,1.4,0,0,1,1.42.83l.16-.8Zm-.83,1.46c0-.66-.46-1.06-1.21-1.06a1.54,1.54,0,0,0-1.59,1.61c0,.67.44,1.06,1.21,1.06A1.56,1.56,0,0,0,182.11,381.55Z"/><path class="cls-4" d="M186.16,380.06l-.09.48h-.14a1.45,1.45,0,0,0-1.48,1.36l-.37,1.85h-.49l.72-3.65h.47l-.12.66A1.65,1.65,0,0,1,186.16,380.06Z"/><path class="cls-4" d="M190.34,380.09l-.73,3.65h-.47l.12-.58a1.9,1.9,0,0,1-1.43.61,1.47,1.47,0,0,1-1.59-1.54,2.06,2.06,0,0,1,2.07-2.17,1.36,1.36,0,0,1,1.38.79l.16-.76Zm-.82,1.54a1.07,1.07,0,0,0-1.2-1.14,1.6,1.6,0,0,0-1.58,1.71,1.06,1.06,0,0,0,1.2,1.14A1.6,1.6,0,0,0,189.52,381.63Z"/><path class="cls-4" d="M195.08,381.6a2.06,2.06,0,0,1-2.07,2.17,1.36,1.36,0,0,1-1.39-.8l-.42,2.12h-.49l1-5h.48l-.12.58a1.83,1.83,0,0,1,1.42-.61A1.48,1.48,0,0,1,195.08,381.6Zm-.5,0a1.07,1.07,0,0,0-1.2-1.14,1.6,1.6,0,0,0-1.58,1.71,1.07,1.07,0,0,0,1.2,1.14A1.6,1.6,0,0,0,194.58,381.63Z"/><path class="cls-4" d="M199.5,381.25a2,2,0,0,1-.05.41l-.41,2.08h-.5l.42-2.08a2.09,2.09,0,0,0,0-.34c0-.52-.32-.82-.95-.82a1.42,1.42,0,0,0-1.48,1.28l-.39,2h-.49l1-5.15h.5l-.41,2.05a1.75,1.75,0,0,1,1.39-.58A1.15,1.15,0,0,1,199.5,381.25Z"/><path class="cls-4" d="M204.11,380.09l-2.67,4.12c-.45.69-.79.91-1.32.91a1.16,1.16,0,0,1-.86-.33l.26-.36a.85.85,0,0,0,.65.27c.31,0,.55-.15.84-.59l.25-.39-.91-3.63h.5l.76,3.11,2-3.11Z"/><g class="cls-10"><polygon points="157.04 387.23 145.8 422.95 136.78 422.95 136.78 387.23 157.04 387.23"/></g><path class="cls-9" d="M181.9,334.69c-5.29-3.07-8.12-10.2-8.33-16s2.22-11.92,7-15.27a16.05,16.05,0,0,1,17.41-.14A18.11,18.11,0,0,1,206,319a20.85,20.85,0,0,1-8.54,15.67"/><path class="cls-3" d="M190.34,335.25a6.14,6.14,0,0,1-.1-1.33c0-1-.06-2.18-.1-3.64-.08-3.08-.2-7.32-.41-12s-.46-8.92-.65-12c-.09-1.46-.16-2.68-.22-3.64a8.09,8.09,0,0,1,0-1.34,6.57,6.57,0,0,1,.22,1.33c.1.85.23,2.09.37,3.62.28,3.07.59,7.31.8,12s.27,8.94.26,12c0,1.54,0,2.79-.06,3.65A7.84,7.84,0,0,1,190.34,335.25Z"/><path class="cls-4" d="M175.13,317.33c0,.14-.85.18-1.88.1s-1.85-.27-1.84-.4.85-.18,1.88-.1S175.14,317.2,175.13,317.33Z"/><path class="cls-4" d="M175.42,312.09c0,.13-.78-.07-1.62-.44s-1.48-.78-1.43-.91.79.08,1.63.45S175.48,312,175.42,312.09Z"/><path class="cls-4" d="M178.12,308.21c-.07.11-.89-.27-1.74-1s-1.39-1.44-1.29-1.53.78.47,1.6,1.15S178.19,308.09,178.12,308.21Z"/><path class="cls-4" d="M180.83,304.54c-.13,0-.52-.56-.88-1.37s-.55-1.51-.42-1.57.52.56.88,1.37S181,304.48,180.83,304.54Z"/><path class="cls-4" d="M185.08,301.94c-.12.05-.55-.6-.83-1.5s-.3-1.68-.17-1.7.38.68.65,1.55S185.21,301.88,185.08,301.94Z"/><path class="cls-4" d="M192.17,299c.13.05.05.61-.17,1.25s-.52,1.12-.65,1.08,0-.61.18-1.25S192.05,299,192.17,299Z"/><path class="cls-4" d="M197.44,301.26c.09.1-.25.57-.76,1s-1,.77-1.09.67.25-.57.76-1S197.34,301.16,197.44,301.26Z"/><path class="cls-4" d="M202.07,304.25c.08.12-.33.53-.92.93s-1.12.62-1.2.51.34-.53.92-.93S202,304.14,202.07,304.25Z"/><path class="cls-4" d="M205.36,308.71c0,.13-.6.53-1.45.89s-1.59.56-1.64.43.59-.52,1.45-.88S205.31,308.59,205.36,308.71Z"/><path class="cls-4" d="M206.65,313.58c0,.14-.64.33-1.47.43s-1.52.08-1.53-.06.64-.33,1.47-.43S206.64,313.44,206.65,313.58Z"/><path class="cls-4" d="M207.33,319.57c-.06.12-.76-.06-1.57-.41s-1.43-.75-1.37-.87.75.06,1.57.41S207.38,319.44,207.33,319.57Z"/><path class="cls-4" d="M206.74,324.71c-.05.12-.94-.09-1.87-.7s-1.48-1.34-1.38-1.43.77.44,1.66,1S206.79,324.58,206.74,324.71Z"/><path class="cls-4" d="M204.06,329.39c-.08.1-.79-.31-1.47-1.05s-1-1.46-.93-1.54.64.51,1.29,1.21S204.15,329.28,204.06,329.39Z"/><path class="cls-4" d="M178.65,329.94c.07.12-.68.63-1.66,1.14s-1.82.82-1.89.7.68-.63,1.66-1.14S178.59,329.81,178.65,329.94Z"/><path class="cls-4" d="M176.33,325.7c.06.13-.54.52-1.33.88s-1.48.55-1.54.42.54-.51,1.34-.87S176.27,325.58,176.33,325.7Z"/><path class="cls-4" d="M174.63,322c0,.13-.72.35-1.64.48s-1.69.13-1.71,0,.71-.35,1.64-.48S174.61,321.82,174.63,322Z"/><path class="cls-4" d="M180.22,319.89c0,.13-.67.46-1.63.57s-1.72-.06-1.71-.19.75-.2,1.66-.3S180.18,319.76,180.22,319.89Z"/><path class="cls-4" d="M184.87,315.26c0,.13-.53.42-1.3.49s-1.38-.09-1.37-.22.61-.2,1.32-.27S184.83,315.13,184.87,315.26Z"/><path class="cls-4" d="M185.76,311.56c0,.13-.66,0-1.38-.21s-1.26-.56-1.21-.69.66,0,1.37.22S185.8,311.43,185.76,311.56Z"/><path class="cls-4" d="M187.46,307.81c-.09.1-.52-.18-.82-.71s-.33-1-.2-1.06.36.35.63.81S187.56,307.72,187.46,307.81Z"/><path class="cls-4" d="M185.41,323.15c0,.14-.5.38-1.19.55a4.55,4.55,0,0,1-1,.15l-.09-.29c.17,0,.29,0,.31,0s-.05.14-.19.25l-.1-.29a4.75,4.75,0,0,1,1-.33C184.79,323.05,185.38,323,185.41,323.15Z"/><path class="cls-4" d="M186.37,329.72c0,.13-.64.52-1.52.87s-1.66.53-1.71.4.63-.52,1.52-.87S186.32,329.6,186.37,329.72Z"/><path class="cls-4" d="M181.11,326.8c0,.13-.41.41-1,.61s-1.13.27-1.17.14.41-.4,1-.61S181.07,326.67,181.11,326.8Z"/><path class="cls-4" d="M181.52,313.43c0,.13-.83.06-1.74-.27s-1.58-.76-1.52-.88.8.1,1.69.41S181.55,313.3,181.52,313.43Z"/><path class="cls-4" d="M194.22,312c.08.11-.37.54-1,.95s-1.19.65-1.27.54.37-.54,1-1S194.15,311.86,194.22,312Z"/><path class="cls-4" d="M194.91,318.58c0,.13-.44.34-1,.47s-1.12.11-1.15,0,.44-.34,1.05-.47S194.89,318.44,194.91,318.58Z"/><path class="cls-4" d="M195.72,326c-.06.13-.73-.06-1.51-.42s-1.35-.75-1.29-.87.73.06,1.5.42S195.77,325.87,195.72,326Z"/><path class="cls-4" d="M194,333.22c-.11.08-.55-.28-1-.8s-.7-1-.59-1.12.54.27,1,.8S194.12,333.13,194,333.22Z"/><path class="cls-4" d="M193.67,307.12c.08.11-.2.47-.7.72s-1,.26-1,.13.32-.35.77-.57S193.59,307,193.67,307.12Z"/><path class="cls-4" d="M199.9,313.78c0,.12-.53.44-1.32.55s-1.43,0-1.42-.17.62-.22,1.35-.32S199.85,313.64,199.9,313.78Z"/><path class="cls-4" d="M198.66,307.8c.06.12-.51.53-1.33.79s-1.51.26-1.53.13.61-.35,1.38-.6S198.6,307.68,198.66,307.8Z"/><path class="cls-4" d="M201.26,323a6,6,0,0,1-4.18-.76,6.8,6.8,0,0,1,2.11.27A6.68,6.68,0,0,1,201.26,323Z"/><path class="cls-4" d="M198.94,331.7c-.08.11-.8-.32-1.52-1s-1.14-1.44-1-1.53.69.48,1.38,1.18S199,331.59,198.94,331.7Z"/><path class="cls-3" d="M188.77,300.74a22.5,22.5,0,0,0-4.35,3.44A21.23,21.23,0,0,0,179,316.13a27.06,27.06,0,0,0,.33,7.33,57.14,57.14,0,0,0,1.37,5.88c.48,1.66.91,3,1.21,3.91a10.51,10.51,0,0,1,.42,1.44,7.44,7.44,0,0,1-.6-1.38c-.35-.9-.84-2.21-1.36-3.87a49.91,49.91,0,0,1-1.49-5.9,26.33,26.33,0,0,1-.37-7.46,20.91,20.91,0,0,1,5.65-12.15,16.07,16.07,0,0,1,3.24-2.53c.41-.26.77-.4,1-.52A1.87,1.87,0,0,1,188.77,300.74Z"/><path class="cls-3" d="M195.53,335a57.27,57.27,0,0,0,2.22-5.32A30,30,0,0,0,199.08,316a25.51,25.51,0,0,0-2.11-7.3,17.41,17.41,0,0,0-3.59-5,12.85,12.85,0,0,0-3.53-2.22c-.92-.39-1.47-.48-1.46-.52a1.41,1.41,0,0,1,.41,0,7.72,7.72,0,0,1,1.12.31,12.17,12.17,0,0,1,3.69,2.14,17.08,17.08,0,0,1,3.78,5.08,25.23,25.23,0,0,1,2.18,7.42,29,29,0,0,1-1.49,13.87c-.28.86-.64,1.59-.91,2.25s-.58,1.19-.82,1.63A11.77,11.77,0,0,1,195.53,335Z"/><polygon class="cls-4" points="176.33 333.83 203.65 333.83 203.81 339.3 176.33 339.3 176.33 333.83"/><polygon class="cls-4" points="178.65 336.57 180.22 353.26 200.19 353.26 201.79 336.75 178.65 336.57"/><path class="cls-7" d="M203.81,339.37c0,.13-6.15.25-13.73.25s-13.74-.12-13.74-.25,6.15-.25,13.74-.25S203.81,339.23,203.81,339.37Z"/><path class="cls-7" d="M201,344.45a4.33,4.33,0,0,1-.59,1,15.36,15.36,0,0,1-2.12,2.51l-.12.12-.13-.13a38.7,38.7,0,0,0-5.35-4.69h.3l-2.37,2.08-2.81,2.44-.15.14-.16-.13L183,344l.27,0-2.36,2.88a6.77,6.77,0,0,1-.93,1,6.77,6.77,0,0,1,.77-1.15c.59-.79,1.33-1.79,2.23-3l.11-.15.15.12,4.63,3.76h-.31l2.79-2.45,2.38-2.08.15-.13.16.12a34.48,34.48,0,0,1,5.32,4.84h-.25A28,28,0,0,0,201,344.45Z"/><rect class="cls-3" x="537.23" y="328.29" width="130.86" height="95.56"/><rect class="cls-9" x="537.23" y="328.29" width="130.86" height="11.94"/><path class="cls-3" d="M544.34,334.61a1.37,1.37,0,1,1-1.37-1.5A1.44,1.44,0,0,1,544.34,334.61Z"/><path class="cls-3" d="M549.87,334.61a1.37,1.37,0,1,1-1.36-1.5A1.43,1.43,0,0,1,549.87,334.61Z"/><path class="cls-3" d="M555.41,334.61a1.37,1.37,0,1,1-1.36-1.5A1.43,1.43,0,0,1,555.41,334.61Z"/><rect class="cls-9" x="549.67" y="351.94" width="18.65" height="46.92"/><rect class="cls-11" x="578.43" y="351.94" width="18.65" height="46.92"/><rect class="cls-15" x="607.19" y="351.94" width="18.65" height="46.92"/><rect class="cls-2" x="635.95" y="352.31" width="18.65" height="46.92"/><rect class="cls-9" x="547.51" y="404.04" width="113.04" height="10.72"/><polygon class="cls-4" points="651.95 412.56 654.38 425.47 656.38 421.87 660.68 428.3 662.83 426.85 658.53 420.42 662.48 419.81 651.95 412.56"/><path class="cls-4" d="M668.09,423.86s0-.61,0-1.76,0-2.86,0-5.07c0-4.46,0-11-.06-19.3,0-16.64-.08-40.5-.13-69.44l.24.25-130.85,0h0l.3-.3c0,34.29,0,66.79,0,95.57l-.27-.27,94.39.13,26.86.07,7.14,0,1.84,0,.63,0h-.6l-1.81,0-7.08,0-26.8.07-94.57.14H537v-.27c0-28.78,0-61.28,0-95.57V328h.31l130.85.05h.25v.24c-.06,29-.1,52.91-.13,69.59,0,8.31-.05,14.8-.06,19.24,0,2.2,0,3.88,0,5S668.09,423.86,668.09,423.86Z"/><rect class="cls-4" x="530.09" y="121.02" width="4.15" height="6.47" transform="translate(47.66 377.04) rotate(-40.7)"/><path class="cls-7" d="M534.57,120.47,528.1,126l-4.55-5.29a16.2,16.2,0,0,1,6.47-5.57Z"/><path class="cls-4" d="M529.18,125.11a13.6,13.6,0,0,1-2.57-2.58,13.31,13.31,0,0,1-2.2-2.91A13.94,13.94,0,0,1,527,122.2,13.71,13.71,0,0,1,529.18,125.11Z"/><path class="cls-4" d="M530.41,124.05a15,15,0,0,1-2.54-2.73,19.62,19.62,0,0,1-2.22-3c.13-.13,1.3,1.09,2.6,2.68A13.17,13.17,0,0,1,530.41,124.05Z"/><path class="cls-4" d="M532.06,122.63a14.28,14.28,0,0,1-2.56-2.76,17.61,17.61,0,0,1-2.21-3.06,12.81,12.81,0,0,1,2.59,2.74A14.86,14.86,0,0,1,532.06,122.63Z"/><path class="cls-4" d="M533.56,121.31a13.32,13.32,0,0,1-2.56-2.62,13.68,13.68,0,0,1-2.18-2.93,13.42,13.42,0,0,1,2.56,2.61A13.6,13.6,0,0,1,533.56,121.31Z"/><rect class="cls-4" x="581.52" y="121.7" width="4.15" height="6.47" transform="translate(270.74 -383.3) rotate(46.3)"/><path class="cls-7" d="M587.5,127.15,581.6,121l5-4.82a16.38,16.38,0,0,1,5.91,6.18Z"/><path class="cls-4" d="M582.59,122A13.49,13.49,0,0,1,585,119.3a13.85,13.85,0,0,1,2.79-2.35,13.75,13.75,0,0,1-2.45,2.71A13.86,13.86,0,0,1,582.59,122Z"/><path class="cls-4" d="M583.71,123.19a14.29,14.29,0,0,1,2.59-2.69,18.75,18.75,0,0,1,2.88-2.37c.12.12-1,1.35-2.54,2.74A14.29,14.29,0,0,1,583.71,123.19Z"/><path class="cls-4" d="M585.21,124.75a14.79,14.79,0,0,1,2.63-2.7,17.19,17.19,0,0,1,2.93-2.36,12.7,12.7,0,0,1-2.6,2.73A14.43,14.43,0,0,1,585.21,124.75Z"/><path class="cls-4" d="M586.61,126.18a14.07,14.07,0,0,1,2.48-2.69,13.22,13.22,0,0,1,2.82-2.33,14.07,14.07,0,0,1-2.48,2.69A13.22,13.22,0,0,1,586.61,126.18Z"/><rect class="cls-4" x="556" y="109.88" width="4.91" height="7.66"/><path class="cls-9" d="M563.55,112.17H553.43v-8.26a19.39,19.39,0,0,1,10.12,0Z"/><path class="cls-4" d="M563.67,104a11,11,0,0,1-10.29,0,25.54,25.54,0,0,0,5.15.76A25.85,25.85,0,0,0,563.67,104Z"/><path class="cls-4" d="M556.77,112.15a13.36,13.36,0,0,1-.24-3.54,13.36,13.36,0,0,1,.24-3.54,12.63,12.63,0,0,1,.25,3.54A12.63,12.63,0,0,1,556.77,112.15Z"/><path class="cls-4" d="M558.7,112.2a12.78,12.78,0,0,1-.25-3.56,12.84,12.84,0,0,1,.25-3.56,12.84,12.84,0,0,1,.25,3.56A12.78,12.78,0,0,1,558.7,112.2Z"/><path class="cls-4" d="M560.62,112.17a13.58,13.58,0,0,1-.24-3.56,13.52,13.52,0,0,1,.24-3.56,12.78,12.78,0,0,1,.25,3.56A12.84,12.84,0,0,1,560.62,112.17Z"/><path class="cls-4" d="M562.23,112.17a14.91,14.91,0,0,1-.25-3.85,14.87,14.87,0,0,1,.25-3.84,15.72,15.72,0,0,1,.24,3.84A15.77,15.77,0,0,1,562.23,112.17Z"/><path class="cls-4" d="M555,112.12a14.91,14.91,0,0,1-.25-3.85,14.87,14.87,0,0,1,.25-3.84,15.72,15.72,0,0,1,.24,3.84A15.77,15.77,0,0,1,555,112.12Z"/><circle class="cls-9" cx="557.87" cy="150.9" r="35.73"/><circle class="cls-15" cx="557.87" cy="150.62" r="30.01" transform="translate(56.89 438.59) rotate(-45)"/><path class="cls-4" d="M587.87,150.62s0-.16,0-.49-.05-.81-.1-1.42c0-.31,0-.66-.06-1.05s-.12-.8-.19-1.25a22.33,22.33,0,0,0-.63-3.09,28.6,28.6,0,0,0-3.33-7.95,30,30,0,0,0-20.14-14,27.53,27.53,0,0,0-3.77-.44c-.64,0-1.29-.08-1.94-.07l-2,.1c-.33,0-.66,0-1,.07l-1,.15c-.67.11-1.34.19-2,.33a32.51,32.51,0,0,0-4,1.16,31.58,31.58,0,0,0-3.88,1.71c-.63.34-1.23.74-1.85,1.11a13.7,13.7,0,0,0-1.8,1.24,33.76,33.76,0,0,0-3.38,2.87A33.37,33.37,0,0,0,533.9,133a28.93,28.93,0,0,0-4.26,8.2,29.58,29.58,0,0,0,0,18.78,28.68,28.68,0,0,0,4.26,8.2,33.37,33.37,0,0,0,2.91,3.45,33.76,33.76,0,0,0,3.38,2.87,13.7,13.7,0,0,0,1.8,1.24c.62.37,1.22.77,1.85,1.11a31.58,31.58,0,0,0,3.88,1.71,30.83,30.83,0,0,0,4,1.16c.67.14,1.34.22,2,.33l1,.15c.33.05.67,0,1,.07l2,.1c.65,0,1.3-.05,1.94-.07a27.53,27.53,0,0,0,3.77-.44,29.92,29.92,0,0,0,20.14-14,28.6,28.6,0,0,0,3.33-8,22.33,22.33,0,0,0,.63-3.09c.07-.45.15-.87.19-1.25s.05-.74.06-1.05c0-.61.08-1.08.1-1.42s0-.49,0-.49,0,.16,0,.49,0,.81,0,1.43c0,.31,0,.66,0,1.05s-.11.8-.17,1.26A21.91,21.91,0,0,1,587,158a28.67,28.67,0,0,1-3.28,8,30.17,30.17,0,0,1-20.31,14.29,28.08,28.08,0,0,1-3.82.45c-.65,0-1.3.09-2,.08l-2-.1c-.33,0-.67,0-1-.06l-1-.15c-.68-.11-1.36-.19-2-.33a32.93,32.93,0,0,1-4-1.17,32,32,0,0,1-4-1.73c-.64-.35-1.25-.75-1.89-1.12a16,16,0,0,1-1.82-1.26,33.54,33.54,0,0,1-3.44-2.91,34.5,34.5,0,0,1-3-3.5,29.52,29.52,0,0,1-4.33-8.34,29.89,29.89,0,0,1,0-19.09,29.08,29.08,0,0,1,4.33-8.33,27.3,27.3,0,0,1,6.4-6.41,15.23,15.23,0,0,1,1.83-1.26c.63-.37,1.24-.77,1.88-1.12a32,32,0,0,1,4-1.73,32.93,32.93,0,0,1,4-1.17c.68-.14,1.36-.22,2-.33l1-.15c.34,0,.68,0,1-.06l2-.1c.66,0,1.32.06,2,.08a28.08,28.08,0,0,1,3.82.45,30.17,30.17,0,0,1,20.31,14.29,28.67,28.67,0,0,1,3.28,8,21.91,21.91,0,0,1,.58,3.12c.06.46.14.87.17,1.26s0,.74,0,1c0,.62,0,1.09,0,1.43S587.87,150.62,587.87,150.62Z"/><path class="cls-4" d="M583.49,150.15c-2.74,0-5-.09-5-.29s2.2-.5,4.93-.66,5,0,5,.29S586.22,150.11,583.49,150.15Z"/><path class="cls-4" d="M576.41,168.3c-2-1.89-3.46-3.55-3.32-3.7s1.91,1.2,4,3,3.54,3.47,3.32,3.71S578.39,170.2,576.41,168.3Z"/><path class="cls-4" d="M558.62,176.24c-.08-2.74,0-5,.23-5s.53,2.19.72,4.92.08,5-.24,5S558.69,179,558.62,176.24Z"/><path class="cls-4" d="M540.39,169.36c1.87-2,3.51-3.5,3.66-3.37s-1.17,1.93-3,4-3.42,3.58-3.66,3.37S538.51,171.36,540.39,169.36Z"/><path class="cls-4" d="M532.26,151.65c2.74-.1,5,0,5,.19s-2.19.54-4.92.76-4.95.14-5-.18S529.53,151.76,532.26,151.65Z"/><path class="cls-4" d="M538.93,133.35c2,1.85,3.54,3.48,3.41,3.63s-1.94-1.15-4-2.92-3.62-3.38-3.4-3.62S536.92,131.5,538.93,133.35Z"/><path class="cls-4" d="M556.55,125c.13,2.73.07,5-.13,5s-.57-2.18-.82-4.91-.19-5,.13-5S556.42,122.29,556.55,125Z"/><path class="cls-4" d="M574.93,131.5c-1.83,2-3.44,3.58-3.59,3.45s1.13-2,2.87-4.07,3.34-3.66,3.59-3.45S576.76,129.46,574.93,131.5Z"/><path class="cls-4" d="M583.44,149c-2.73.16-5,.13-5-.07s2.18-.6,4.91-.87,5-.25,5,.07S586.17,148.86,583.44,149Z"/><path class="cls-3" d="M546.21,118.16a13.4,13.4,0,0,1-1.55.7,37.2,37.2,0,0,0-4.12,2.11,34.54,34.54,0,0,0-16.64,24.35,36.21,36.21,0,0,0-.47,4.6,15.71,15.71,0,0,1-.09,1.71,1.29,1.29,0,0,1-.06-.44c0-.29,0-.72,0-1.27a30.79,30.79,0,0,1,.32-4.65,33.56,33.56,0,0,1,16.82-24.6,29.26,29.26,0,0,1,4.22-2c.51-.21.92-.32,1.19-.41A1.33,1.33,0,0,1,546.21,118.16Z"/><path class="cls-3" d="M556.19,116.22a16.59,16.59,0,0,1-3.51.59,16.76,16.76,0,0,1-3.55.33,10.51,10.51,0,0,1,3.48-.82A10.69,10.69,0,0,1,556.19,116.22Z"/><g class="cls-13"><path d="M533.88,168.66s15.55,24.53,39.67,12c25.18-13.12,11.27-43.2,11.27-43.2s11.85,24-12.69,39.6c-6.12,3.89-12.77,3.89-17.85,3.38C541.31,179.11,533.88,168.66,533.88,168.66Z"/></g><path class="cls-2" d="M566.23,134.67a101.88,101.88,0,0,1-.4,13.19,16.43,16.43,0,0,1-.94,4.67,6.21,6.21,0,0,1-3.13,3.45,3.87,3.87,0,0,1-4.38-.86Z"/><polygon class="cls-9" points="557.21 148.25 568.12 129.89 561.54 150.62 558.17 151.63 557.21 148.25"/><g class="cls-13"><polygon points="568.12 129.89 560.03 148.65 561.54 150.62 568.12 129.89"/></g><path class="cls-15" d="M561.68,151.63a3.51,3.51,0,1,1-3.51-3.51A3.51,3.51,0,0,1,561.68,151.63Z"/><path class="cls-4" d="M561.68,151.63s0-.32-.2-.84a3.43,3.43,0,0,0-1.29-1.81,3.3,3.3,0,1,0-3.13,5.73,3.36,3.36,0,0,0,3.13-.43,3.49,3.49,0,0,0,1.29-1.82c.16-.52.16-.83.2-.83a1.62,1.62,0,0,1,0,.88,3.56,3.56,0,0,1-1.27,2.05,3.66,3.66,0,0,1-3.5.58,3.72,3.72,0,0,1,0-7,3.66,3.66,0,0,1,3.5.58,3.5,3.5,0,0,1,1.27,2.05A1.65,1.65,0,0,1,561.68,151.63Z"/><circle class="cls-7" cx="558.17" cy="151.63" r="2.61"/><path class="cls-9" d="M463.41,82.27a26.61,26.61,0,1,0-36.31,26.46c.2,3.15.43,6.7.43,6.7l23.27-1.5s-.1-3.77-.27-7.13A26.59,26.59,0,0,0,463.41,82.27Z"/><path class="cls-4" d="M442.38,114.36a2.73,2.73,0,0,1,0-.33c0-.23,0-.55.05-1,.05-.85.12-2.1.25-3.71s.32-3.57.68-5.84A39.68,39.68,0,0,1,445.29,96a25,25,0,0,1,1.93-4.12,4.83,4.83,0,0,1,1.71-1.74,2.72,2.72,0,0,1,2.53-.08,1.79,1.79,0,0,1,.9,1,1.85,1.85,0,0,1,0,1.37,3.75,3.75,0,0,1-1.94,1.9,7.29,7.29,0,0,1-9.57-4.22,5.55,5.55,0,0,1-.36-3,2.39,2.39,0,0,1,2.29-2,1.71,1.71,0,0,1,1.42.85,2.41,2.41,0,0,1,.31,1.62,5.24,5.24,0,0,1-1.69,2.76,8,8,0,0,1-6.07,2.19A6.93,6.93,0,0,1,431.34,89a4.05,4.05,0,0,1-.38-3.21,2,2,0,0,1,1.09-1.25,2,2,0,0,1,1.64,0,2.64,2.64,0,0,1,1.2,1.09,4.36,4.36,0,0,1,.5,1.5,7.73,7.73,0,0,1-.21,3.07,7.93,7.93,0,0,1-3.45,4.69A8.14,8.14,0,0,1,426.28,96a4.25,4.25,0,0,1-2.47-1.11,2.07,2.07,0,0,1-.31-2.55,1.73,1.73,0,0,1,1.15-.66,2.56,2.56,0,0,1,1.29.16,3.86,3.86,0,0,1,1.74,1.72c.76,1.4,1.39,2.76,2,4.06,2.47,5.22,4.26,9.53,5.47,12.52.6,1.49,1,2.66,1.35,3.45.15.39.26.69.34.91s.1.31.1.31-.05-.1-.13-.3l-.37-.89c-.32-.8-.8-1.95-1.41-3.43-1.24-3-3.06-7.27-5.55-12.47-.64-1.29-1.28-2.67-2-4a3.58,3.58,0,0,0-1.62-1.6A1.59,1.59,0,0,0,424,94.7a4,4,0,0,0,2.32,1,7.79,7.79,0,0,0,5.24-1.09,7.59,7.59,0,0,0,3.31-4.52,7.41,7.41,0,0,0,.2-2.93,2.92,2.92,0,0,0-1.52-2.35,1.62,1.62,0,0,0-2.3,1,3.68,3.68,0,0,0,.37,2.94,6.6,6.6,0,0,0,5.13,3.33A7.62,7.62,0,0,0,442.57,90a4.81,4.81,0,0,0,1.6-2.57,2,2,0,0,0-.27-1.4,1.37,1.37,0,0,0-1.15-.7,1.85,1.85,0,0,0-1.29.51,2.24,2.24,0,0,0-.68,1.24,5.25,5.25,0,0,0,.34,2.87A7,7,0,0,0,450.28,94a3.44,3.44,0,0,0,1.8-1.74,1.56,1.56,0,0,0-.75-2,2.46,2.46,0,0,0-2.27.07A4.68,4.68,0,0,0,447.43,92a25.27,25.27,0,0,0-1.92,4.06,40.16,40.16,0,0,0-2,7.49c-.38,2.26-.58,4.22-.73,5.82s-.24,2.84-.32,3.7c0,.41-.06.73-.07,1S442.38,114.36,442.38,114.36Z"/><path class="cls-4" d="M449.29,118.35l-20,1.29a1.5,1.5,0,0,1-1.6-1.4h0a1.51,1.51,0,0,1,1.4-1.6l20-1.29a1.51,1.51,0,0,1,1.6,1.41h0A1.51,1.51,0,0,1,449.29,118.35Z"/><path class="cls-4" d="M449.37,119.66l-20,1.29a1.5,1.5,0,1,0,.2,3l2.19-.14,3.27,5.35a1.92,1.92,0,0,0,1.77.92l7.14-.46a1.93,1.93,0,0,0,1.64-1.16l2.47-5.7,1.5-.1a1.5,1.5,0,1,0-.2-3Z"/><g class="cls-14"><path class="cls-3" d="M418.71,68.17a19.23,19.23,0,0,1,5.09-3.88,13.83,13.83,0,0,1,4-1.45c1-.17,1.58-.11,1.64.09.15.48-1.82,1.32-4.42,3.31a21.85,21.85,0,0,0-8.56,22.08c.57,3.22,1.46,5.17,1,5.42-.19.11-.66-.23-1.28-1a14,14,0,0,1-2-3.78,19.79,19.79,0,0,1-1.15-6.3,20.76,20.76,0,0,1,1.37-7.79"/></g><g class="cls-14"><path class="cls-3" d="M435.91,63.67c-1.69.09-3.2-.27-3.43-1.15-.1-.44.18-.93.76-1.34a5.32,5.32,0,0,1,5-.3c.63.34,1,.79.92,1.24"/></g><path class="cls-7" d="M445.26,129s-.54-.15-1.4-.34a11.45,11.45,0,0,0-3.41-.21,11.66,11.66,0,0,0-3.32.84,12.86,12.86,0,0,1-1.32.59A4.09,4.09,0,0,1,437,129a9.61,9.61,0,0,1,3.38-.95,9.73,9.73,0,0,1,3.51.31A3.73,3.73,0,0,1,445.26,129Z"/><path class="cls-7" d="M448.12,122.82c0,.09-3.6.4-8.05.69s-8.08.44-8.08.35,3.6-.39,8.05-.68S448.12,122.73,448.12,122.82Z"/><path class="cls-7" d="M447,125.27a10.8,10.8,0,0,1-1.95.33c-1.21.15-2.89.33-4.75.48s-3.55.23-4.77.27a10.21,10.21,0,0,1-2,0,14.8,14.8,0,0,1,2-.21l4.76-.37,4.76-.38A13,13,0,0,1,447,125.27Z"/><rect class="cls-11" x="247.59" y="90.51" width="39.54" height="49.45" transform="translate(117.48 364.83) rotate(-82.33)"/><path class="cls-4" d="M294.51,98.94l-.24,0-.69-.09-2.67-.34-10-1.32-35.4-4.7.14-.11c-1.56,11.66-3.36,25-5.26,39.18h0l-.12-.17,49,6.63-.14.1c1.62-11.79,2.95-21.57,3.89-28.41.47-3.42.85-6.1,1.1-7.94l.3-2.09c.06-.48.11-.73.11-.73l-.09.71c-.06.47-.15,1.17-.26,2.07-.24,1.83-.59,4.51-1,7.92-.91,6.86-2.2,16.67-3.77,28.5l0,.12h-.12l-49-6.58-.14,0,0-.14h0c1.91-14.14,3.71-27.51,5.29-39.17V92.2l.13,0L281,97.06l10,1.38,2.63.37.67.1Z"/><rect class="cls-9" x="250.05" y="92.24" width="34.56" height="45.98" transform="translate(117.45 364.79) rotate(-82.33)"/><polygon class="cls-9" points="242.24 129.29 261.02 110.14 269.09 124.79 276.73 118.57 287.81 135.42 242.24 129.29"/><path class="cls-9" d="M275.42,109.42a3.62,3.62,0,1,1-3.11-4.07A3.62,3.62,0,0,1,275.42,109.42Z"/><g class="cls-14"><polygon points="242.24 129.29 261.02 110.14 269.09 124.79 276.73 118.57 287.81 135.42 242.24 129.29"/></g><g class="cls-14"><path d="M275.42,109.42a3.62,3.62,0,1,1-3.11-4.07A3.62,3.62,0,0,1,275.42,109.42Z"/></g><rect class="cls-11" x="282.68" y="56.83" width="59.74" height="74.73" transform="translate(173.23 389.4) rotate(-81.51)"/><path class="cls-4" d="M353.92,70.17l-.36,0-1-.14-4-.58-15.14-2.21L280,59.32l.22-.16c-2.62,17.58-5.63,37.75-8.81,59.08h0l-.18-.25,73.9,11.07-.2.16c2.69-17.79,4.93-32.53,6.49-42.84.79-5.16,1.41-9.2,1.83-12,.22-1.38.38-2.43.5-3.16s.18-1.09.18-1.09,0,.35-.14,1.06-.25,1.76-.44,3.13c-.41,2.76-1,6.8-1.74,11.94-1.52,10.34-3.7,25.14-6.33,43l0,.18-.18,0-73.91-11-.22,0,0-.22h0c3.19-21.34,6.21-41.5,8.84-59.08l0-.19.19,0L333.52,67l15.08,2.31,4,.61,1,.16Z"/><rect class="cls-9" x="286.4" y="59.44" width="52.22" height="69.48" transform="translate(173.19 389.35) rotate(-81.51)"/><polygon class="cls-9" points="274.29 114.88 303.09 86.36 314.95 108.66 326.64 99.43 343.01 125.14 274.29 114.88"/><path class="cls-9" d="M324.85,85.59a5.47,5.47,0,1,1-4.6-6.22A5.47,5.47,0,0,1,324.85,85.59Z"/><g class="cls-14"><polygon points="274.29 114.88 303.09 86.36 314.95 108.66 326.64 99.43 343.01 125.14 274.29 114.88"/></g><g class="cls-14"><path d="M324.85,85.59a5.47,5.47,0,1,1-4.6-6.22A5.47,5.47,0,0,1,324.85,85.59Z"/></g><path class="cls-12" d="M148.11,241,164.39,258a2.84,2.84,0,0,0,4,.13l64.81-62.26a2.83,2.83,0,0,0,0-4l-16.28-17a2.84,2.84,0,0,0-4-.13L148.14,237A2.84,2.84,0,0,0,148.11,241Z"/><path class="cls-4" d="M148.11,241a2.54,2.54,0,0,1-.41-.49,2.84,2.84,0,0,1-.44-1.79,2.78,2.78,0,0,1,.45-1.3,8.48,8.48,0,0,1,1.14-1.21l3-2.86,18.84-18.21,28-27,8.1-7.79,4.18-4c.72-.67,1.37-1.35,2.16-2a3.06,3.06,0,0,1,3.06-.33,3.76,3.76,0,0,1,1.25,1l1,1.08,2.1,2.18,4.24,4.42,8.66,9a3.13,3.13,0,0,1,.71,3.18,3.2,3.2,0,0,1-.95,1.37l-1.12,1.08-4.48,4.31q-4.46,4.26-8.76,8.41l-16.57,15.89-28.07,26.89-5.7,5.45a3,3,0,0,1-3.55.34,6.79,6.79,0,0,1-1.3-1.19l-1.16-1.22L154.69,248l-4.9-5.17-1.26-1.35c-.29-.31-.42-.47-.42-.47s.16.14.45.44l1.3,1.31,5,5.11,7.84,8.1,1.17,1.21a7,7,0,0,0,1.24,1.14,2.66,2.66,0,0,0,3.18-.32l5.68-5.48,28-27c5.27-5.07,10.8-10.4,16.54-15.91l8.75-8.42c1.49-1.42,3-2.86,4.48-4.3l1.13-1.09a2.78,2.78,0,0,0,.83-1.17,2.66,2.66,0,0,0-.61-2.68l-8.66-9-4.24-4.42c-.7-.73-1.4-1.45-2.09-2.18l-1-1.08a3.43,3.43,0,0,0-1.1-.86,2.58,2.58,0,0,0-2.57.28c-.7.61-1.42,1.34-2.12,2l-4.19,4-8.1,7.77L170.88,215.4l-18.95,18.1-3,2.83a8.85,8.85,0,0,0-1.14,1.17,2.76,2.76,0,0,0-.45,1.24,2.85,2.85,0,0,0,.39,1.76A6.08,6.08,0,0,0,148.11,241Z"/><rect class="cls-9" x="208.37" y="179.37" width="16.42" height="23.95" transform="translate(-72.08 205.24) rotate(-44.22)"/><rect class="cls-9" x="170.03" y="216.67" width="16.42" height="23.95" transform="translate(-108.95 189.07) rotate(-44.22)"/><rect class="cls-9" x="182.83" y="204.22" width="16.42" height="23.95" transform="translate(-96.65 194.47) rotate(-44.22)"/><rect class="cls-9" x="195.63" y="191.76" width="16.42" height="23.95" transform="translate(-84.33 199.87) rotate(-44.22)"/><g class="cls-16"><rect x="208.37" y="179.37" width="16.42" height="23.95" transform="translate(-72.08 205.24) rotate(-44.22)"/></g><g class="cls-17"><rect x="170.03" y="216.67" width="16.42" height="23.95" transform="translate(-108.95 189.07) rotate(-44.22)"/></g><g class="cls-18"><rect x="182.83" y="204.22" width="16.42" height="23.95" transform="translate(-96.65 194.47) rotate(-44.22)"/></g><g class="cls-19"><rect x="195.63" y="191.76" width="16.42" height="23.95" transform="translate(-84.33 199.87) rotate(-44.22)"/></g><path class="cls-12" d="M149.2,238.11l11.38,20.57a2.82,2.82,0,0,0,3.8,1.18L241.9,217a2.8,2.8,0,0,0,1-3.84l-11.37-20.58a2.82,2.82,0,0,0-3.81-1.17l-77.52,42.86A2.83,2.83,0,0,0,149.2,238.11Z"/><path class="cls-4" d="M149.2,238.11a2.07,2.07,0,0,1-.26-.57,2.85,2.85,0,0,1,.75-3,8.14,8.14,0,0,1,1.4-.86l3.54-2,22.65-12.61,33.61-18.65,9.72-5.38,5-2.78,1.27-.7a7.18,7.18,0,0,1,1.36-.67,3.09,3.09,0,0,1,3,.78,5.14,5.14,0,0,1,.86,1.28l.72,1.3,1.44,2.62q1.46,2.63,2.93,5.29l6,10.82a3,3,0,0,1-1.35,4.31l-1.35.75-5.38,3-10.51,5.81-19.87,11L171,256.38c-2.41,1.32-4.65,2.59-6.86,3.76a3,3,0,0,1-3.41-.94c-.67-1-1.13-2-1.68-2.95l-5.35-9.78-3.37-6.19-.87-1.61-.28-.56s.12.18.33.53l.9,1.59,3.45,6.15c1.5,2.67,3.32,5.94,5.44,9.73.54.93,1.05,2,1.66,2.9a2.65,2.65,0,0,0,3.06.83c2.14-1.14,4.42-2.45,6.81-3.76l33.62-18.65,19.86-11,10.5-5.81,5.38-3,1.36-.75a2.57,2.57,0,0,0,1.14-3.63l-6-10.82c-1-1.78-2-3.54-2.92-5.3-.49-.87-1-1.74-1.45-2.61l-.72-1.3a4.57,4.57,0,0,0-.77-1.17,2.6,2.6,0,0,0-2.48-.66,6.66,6.66,0,0,0-1.26.62l-1.27.7-5,2.77-9.73,5.37-33.66,18.56-22.72,12.47-3.57,2a7.75,7.75,0,0,0-1.38.83,2.66,2.66,0,0,0-.74,1.08,3,3,0,0,0-.06,1.78C149.1,237.92,149.22,238.1,149.2,238.11Z"/><rect class="cls-9" x="217.75" y="197.64" width="16.42" height="23.95" transform="translate(-73.65 137.29) rotate(-29.28)"/><rect class="cls-9" x="171.09" y="223.8" width="16.42" height="23.95" transform="translate(-92.4 117.82) rotate(-29.28)"/><rect class="cls-9" x="186.66" y="215.07" width="16.42" height="23.95" transform="translate(-86.14 124.32) rotate(-29.28)"/><rect class="cls-9" x="202.24" y="206.33" width="16.42" height="23.95" transform="translate(-79.88 130.82) rotate(-29.28)"/><g class="cls-17"><rect x="217.75" y="197.64" width="16.42" height="23.95" transform="translate(-73.65 137.29) rotate(-29.28)"/></g><g class="cls-14"><rect x="171.09" y="223.8" width="16.42" height="23.95" transform="translate(-92.4 117.82) rotate(-29.28)"/></g><g class="cls-10"><rect x="186.66" y="215.07" width="16.42" height="23.95" transform="translate(-86.14 124.32) rotate(-29.28)"/></g><g class="cls-13"><rect x="202.24" y="206.33" width="16.42" height="23.95" transform="translate(-79.88 130.82) rotate(-29.28)"/></g><path class="cls-12" d="M146.35,237.92l5,23a2.87,2.87,0,0,0,3.44,2.18l90.92-19.87a2.88,2.88,0,0,0,2.22-3.42l-5-23a2.88,2.88,0,0,0-3.45-2.18L148.57,234.5A2.88,2.88,0,0,0,146.35,237.92Z"/><path class="cls-4" d="M146.35,237.92a2.12,2.12,0,0,1-.09-.64,2.88,2.88,0,0,1,.62-1.79,3.05,3.05,0,0,1,1.12-.87,11.29,11.29,0,0,1,1.65-.43l4.12-.92,26.28-5.83,39-8.57,11.28-2.48,5.82-1.27,2.95-.65a3.77,3.77,0,0,1,1.61-.09,3.13,3.13,0,0,1,2.38,2.1c.15.54.23,1,.35,1.52l.66,3q.68,3,1.35,6.14,1.35,6.18,2.74,12.55a3.12,3.12,0,0,1-1.15,3.13,3.47,3.47,0,0,1-1.57.65l-1.58.35-6.23,1.36-12.19,2.66-23,5-39,8.47-7.92,1.72c-.32.06-.62.14-.95.19a3.28,3.28,0,0,1-1-.06,3.07,3.07,0,0,1-1.64-1,3.42,3.42,0,0,1-.75-1.67c-.12-.57-.24-1.14-.36-1.69-.95-4.41-1.76-8.21-2.43-11.32l-1.52-7.16c-.16-.81-.29-1.43-.38-1.87s-.11-.64-.11-.64.06.21.16.63.24,1,.43,1.86c.37,1.65.91,4.05,1.61,7.14s1.53,6.9,2.51,11.3c.12.55.25,1.11.37,1.68a3.09,3.09,0,0,0,.69,1.54,2.77,2.77,0,0,0,1.49.85,3.73,3.73,0,0,0,1.8-.14l7.92-1.75,39-8.58,23-5,12.18-2.66,6.24-1.37,1.57-.34a3.08,3.08,0,0,0,1.38-.56,2.65,2.65,0,0,0,1-2.64q-1.4-6.35-2.74-12.55-.67-3.09-1.35-6.14l-.66-3c-.11-.49-.21-1-.33-1.48a2.55,2.55,0,0,0-.77-1.16,2.75,2.75,0,0,0-2.65-.53l-3,.65-5.82,1.27-11.28,2.45-39,8.48-26.32,5.67-4.13.88a11.44,11.44,0,0,0-1.63.4,2.91,2.91,0,0,0-1.09.81,2.81,2.81,0,0,0-.65,1.73A3.83,3.83,0,0,0,146.35,237.92Z"/><path class="cls-4" d="M146.16,238c0,.08-1.15,0-3.15.38a16.93,16.93,0,0,0-7.62,3.63,16.24,16.24,0,0,0-5.63,10.85,15.89,15.89,0,0,0,20,16.73,16,16,0,0,0,9.68-7.46,16.53,16.53,0,0,0,2.22-8.14c0-.5,0-.95,0-1.35s-.08-.72-.11-1a2.52,2.52,0,0,1,0-.83,2.66,2.66,0,0,1,.23.79,10.06,10.06,0,0,1,.2,1c0,.41.08.86.13,1.37a16,16,0,0,1-2,8.49,16.41,16.41,0,0,1-10.05,8,16.61,16.61,0,0,1-15.25-3.26,16.19,16.19,0,0,1-4.85-6.76,16.87,16.87,0,0,1-1.08-7.67,16.76,16.76,0,0,1,6.1-11.31,16.46,16.46,0,0,1,8-3.47,13.48,13.48,0,0,1,2.38-.11C145.88,237.93,146.16,238,146.16,238Z"/><path class="cls-4" d="M164.16,247.24a3.58,3.58,0,1,1-4.27-2.74A3.59,3.59,0,0,1,164.16,247.24Z"/><rect class="cls-9" x="226.47" y="219.18" width="16.42" height="23.95" transform="translate(-43.94 55.43) rotate(-12.33)"/><rect class="cls-9" x="209.1" y="222.98" width="16.42" height="23.95" transform="translate(-45.15 51.81) rotate(-12.33)"/><rect class="cls-9" x="191.65" y="226.79" width="16.42" height="23.95" transform="translate(-46.37 48.18) rotate(-12.33)"/><rect class="cls-9" x="174.21" y="230.6" width="16.42" height="23.95" transform="translate(-47.58 44.54) rotate(-12.33)"/><g class="cls-16"><rect class="cls-3" x="174.21" y="230.6" width="16.42" height="23.95" transform="translate(-47.58 44.54) rotate(-12.33)"/></g><g class="cls-18"><rect class="cls-3" x="191.65" y="226.79" width="16.42" height="23.95" transform="translate(-46.37 48.18) rotate(-12.33)"/></g><g class="cls-13"><rect class="cls-3" x="209.1" y="222.98" width="16.42" height="23.95" transform="translate(-45.15 51.81) rotate(-12.33)"/></g><circle class="cls-9" cx="283.47" cy="222.66" r="15.19" transform="translate(1.32 447) rotate(-76.64)"/><path class="cls-9" d="M283.47,203.66a42.55,42.55,0,0,1-.28-6.83,42.55,42.55,0,0,1,.28-6.83,40.51,40.51,0,0,1,.29,6.83A40.51,40.51,0,0,1,283.47,203.66Z"/><path class="cls-9" d="M282.7,258.06a57.37,57.37,0,0,1-.28-8.07,57.28,57.28,0,0,1,.28-8.06A57.28,57.28,0,0,1,283,250,57.37,57.37,0,0,1,282.7,258.06Z"/><path class="cls-9" d="M260.51,222.91a26,26,0,0,1-5.33.28,26,26,0,0,1-5.33-.28,24.78,24.78,0,0,1,5.33-.29A24.71,24.71,0,0,1,260.51,222.91Z"/><path class="cls-9" d="M317.28,220.89a38.84,38.84,0,0,1-6.63.28,38.84,38.84,0,0,1-6.63-.28,38.84,38.84,0,0,1,6.63-.28A38.84,38.84,0,0,1,317.28,220.89Z"/><path class="cls-9" d="M306,204.75a35.67,35.67,0,0,1-6.34,6.34,35.67,35.67,0,0,1,6.34-6.34Z"/><path class="cls-9" d="M304,241.93a13.66,13.66,0,0,1-2.93-2.54,13.24,13.24,0,0,1-2.54-2.94,13.49,13.49,0,0,1,2.94,2.54A13.09,13.09,0,0,1,304,241.93Z"/><path class="cls-9" d="M268.88,236.46a16.76,16.76,0,0,1-3,3.23,17.22,17.22,0,0,1-3.37,2.82,17,17,0,0,1,3-3.23A17.34,17.34,0,0,1,268.88,236.46Z"/><path class="cls-9" d="M269.09,208.54c-.14.08-1-1.38-2.49-2.87s-2.87-2.43-2.78-2.58a7.24,7.24,0,0,1,3.19,2.19A7,7,0,0,1,269.09,208.54Z"/><path class="cls-9" d="M501,222.66a21.24,21.24,0,0,1,18.27-21,21,21,0,0,0-3-.21,21.25,21.25,0,1,0,0,42.49,22.6,22.6,0,0,0,3-.21A21.25,21.25,0,0,1,501,222.66Z"/><path class="cls-9" d="M523.86,220.4l.57.95a6.5,6.5,0,0,0,2.69,2.48l1,.49-1,.58a6.44,6.44,0,0,0-2.48,2.69l-.5,1-.57-1a6.63,6.63,0,0,0-2.69-2.48l-1-.49,1-.57a6.46,6.46,0,0,0,2.48-2.7Z"/><path class="cls-9" d="M482.56,232.76l.29.48a3.33,3.33,0,0,0,1.37,1.26l.51.25-.49.29a3.33,3.33,0,0,0-1.26,1.37l-.25.51-.29-.49a3.27,3.27,0,0,0-1.37-1.26l-.5-.25.48-.29a3.3,3.3,0,0,0,1.26-1.36Z"/><path class="cls-9" d="M472.26,223.46l.15.24a1.63,1.63,0,0,0,.67.63l.26.12-.24.14a1.72,1.72,0,0,0-.63.68l-.12.25-.15-.24a1.7,1.7,0,0,0-.68-.62l-.25-.13.24-.14a1.65,1.65,0,0,0,.63-.68Z"/><path class="cls-9" d="M543.39,235.1l.15.24a1.63,1.63,0,0,0,.68.62l.25.13-.24.14a1.65,1.65,0,0,0-.63.68l-.12.25-.15-.24a1.59,1.59,0,0,0-.68-.63l-.25-.12.24-.14a1.72,1.72,0,0,0,.63-.68Z"/><path class="cls-9" d="M531.86,216.74l.15.24a1.59,1.59,0,0,0,.68.63l.25.12-.24.15a1.65,1.65,0,0,0-.63.68l-.12.25-.15-.24a1.65,1.65,0,0,0-.68-.63l-.25-.12.24-.15a1.63,1.63,0,0,0,.63-.67Z"/><path class="cls-9" d="M293.07,211.15a6.9,6.9,0,0,1-1.22,2.46c-.8,1.27-1.56,2.24-1.7,2.16a6.86,6.86,0,0,1,1.22-2.46C292.18,212,292.94,211.07,293.07,211.15Z"/><path class="cls-9" d="M299.51,202.36a6.86,6.86,0,0,1-1.43,2.33c-.92,1.19-1.76,2.08-1.89,2a6.71,6.71,0,0,1,1.44-2.33C298.55,203.15,299.39,202.26,299.51,202.36Z"/><path class="cls-9" d="M306.72,194.18c.11.11-.62,1.1-1.64,2.2s-1.94,1.92-2.06,1.81a7,7,0,0,1,1.64-2.19C305.69,194.89,306.61,194.08,306.72,194.18Z"/><path class="cls-9" d="M314.61,186.67c.11.12-.71,1-1.82,2s-2.1,1.74-2.21,1.63.71-1,1.83-2.05S314.51,186.55,314.61,186.67Z"/><path class="cls-9" d="M323.13,179.85c.09.13-.8,1-2,1.89a7,7,0,0,1-2.34,1.43c-.1-.12.79-1,2-1.88A7,7,0,0,1,323.13,179.85Z"/><path class="cls-9" d="M332.2,173.78c.08.14-.88.9-2.15,1.71a6.75,6.75,0,0,1-2.45,1.23c-.09-.13.87-.89,2.15-1.71A6.91,6.91,0,0,1,332.2,173.78Z"/><path class="cls-9" d="M341.75,168.5a13.24,13.24,0,0,1-4.83,2.54c-.08-.14.94-.82,2.28-1.52A6.68,6.68,0,0,1,341.75,168.5Z"/><path class="cls-9" d="M351.71,164a6.69,6.69,0,0,1-2.4,1.32,6.6,6.6,0,0,1-2.63.8,6.93,6.93,0,0,1,2.4-1.32A6.68,6.68,0,0,1,351.71,164Z"/><path class="cls-9" d="M362,160.45a6.85,6.85,0,0,1-2.51,1.11,6.64,6.64,0,0,1-2.68.57,7,7,0,0,1,2.51-1.11A6.84,6.84,0,0,1,362,160.45Z"/><path class="cls-9" d="M372.58,157.78a13.15,13.15,0,0,1-5.32,1.22,7,7,0,0,1,2.6-.89A6.75,6.75,0,0,1,372.58,157.78Z"/><path class="cls-9" d="M383.34,156.06a6.63,6.63,0,0,1-2.66.65,7,7,0,0,1-2.74.09,6.63,6.63,0,0,1,2.66-.65A7,7,0,0,1,383.34,156.06Z"/><path class="cls-9" d="M394.23,155.34a6.75,6.75,0,0,1-2.72.38,7.45,7.45,0,0,1-2.74-.14,6.38,6.38,0,0,1,2.72-.43A7,7,0,0,1,394.23,155.34Z"/><path class="cls-9" d="M405.13,155.64a7,7,0,0,1-2.74.14,6.68,6.68,0,0,1-2.71-.42,6.89,6.89,0,0,1,2.74-.14A6.63,6.63,0,0,1,405.13,155.64Z"/><path class="cls-9" d="M416,156.91a13.28,13.28,0,0,1-5.4-.76,13.28,13.28,0,0,1,5.4.76Z"/><path class="cls-9" d="M426.62,159.13a6.73,6.73,0,0,1-2.72-.33,7,7,0,0,1-2.59-.89,6.55,6.55,0,0,1,2.72.33A6.78,6.78,0,0,1,426.62,159.13Z"/><path class="cls-9" d="M437.07,162.27a6.85,6.85,0,0,1-2.69-.57,6.65,6.65,0,0,1-2.5-1.11,13.28,13.28,0,0,1,5.19,1.68Z"/><path class="cls-9" d="M447.21,166.28a6.86,6.86,0,0,1-2.62-.79,7.17,7.17,0,0,1-2.41-1.32,13,13,0,0,1,5,2.11Z"/><path class="cls-9" d="M457,171.13a6.64,6.64,0,0,1-2.55-1,6.94,6.94,0,0,1-2.29-1.52,13.58,13.58,0,0,1,4.84,2.53Z"/><path class="cls-9" d="M466.32,176.8a6.83,6.83,0,0,1-2.46-1.23c-1.26-.81-2.23-1.57-2.15-1.7a6.59,6.59,0,0,1,2.46,1.22C465.44,175.9,466.41,176.67,466.32,176.8Z"/><path class="cls-9" d="M475.13,183.23a6.85,6.85,0,0,1-2.34-1.43c-1.2-.91-2.09-1.75-2-1.88a6.67,6.67,0,0,1,2.34,1.43C474.33,182.27,475.22,183.11,475.13,183.23Z"/><path class="cls-9" d="M483.34,190.41c-.11.11-1.1-.62-2.21-1.63s-1.92-1.93-1.82-2.05,1.09.61,2.2,1.63S483.44,190.29,483.34,190.41Z"/><path class="cls-9" d="M490.87,198.28c-.12.1-1-.71-2.05-1.82s-1.74-2.09-1.63-2.2,1,.7,2.05,1.82S491,198.18,490.87,198.28Z"/><path class="cls-9" d="M496.67,205.46c-.13.09-.75-.5-1.38-1.32s-1.05-1.58-.92-1.67.73.49,1.37,1.32S496.79,205.36,496.67,205.46Z"/></g></svg>